<svg width="17" height="18" viewBox="0 0 17 18" fill="none" xmlns="http://www.w3.org/2000/svg">
<path d="M8.5 5.66602V8.99935L10.5833 11.0827" stroke="#FF7601" stroke-width="1.5" stroke-linecap="round" stroke-linejoin="round"/>
<path d="M2.11499 4.72594L1.48999 4.72844C1.49065 4.8932 1.55633 5.05102 1.67275 5.1676C1.78917 5.28417 1.94691 5.35007 2.11166 5.35094L2.11499 4.72594ZM4.23333 5.36094C4.3154 5.36133 4.39675 5.34554 4.47273 5.31449C4.5487 5.28343 4.61782 5.23771 4.67612 5.17995C4.73443 5.12218 4.78079 5.0535 4.81255 4.97782C4.84432 4.90213 4.86086 4.82094 4.86125 4.73886C4.86163 4.65678 4.84584 4.57544 4.81479 4.49946C4.78373 4.42349 4.73802 4.35437 4.68025 4.29607C4.62248 4.23776 4.5538 4.1914 4.47812 4.15964C4.40243 4.12787 4.32124 4.11133 4.23916 4.11094L4.23333 5.36094ZM2.72916 2.60094C2.72872 2.51887 2.71212 2.43768 2.68031 2.36202C2.6485 2.28636 2.60209 2.21771 2.54375 2.15998C2.4854 2.10225 2.41625 2.05658 2.34026 2.02558C2.26426 1.99457 2.1829 1.97884 2.10083 1.97928C2.01875 1.97972 1.93757 1.99631 1.8619 2.02813C1.78624 2.05994 1.71759 2.10635 1.65986 2.16469C1.60214 2.22304 1.55647 2.29218 1.52546 2.36818C1.49446 2.44418 1.47872 2.52553 1.47916 2.60761L2.72916 2.60094ZM1.68916 7.98761C1.70114 7.90593 1.69681 7.82268 1.67643 7.74268C1.65605 7.66268 1.62003 7.5875 1.57043 7.5215C1.52084 7.4555 1.45866 7.39998 1.38749 7.35814C1.31632 7.31631 1.23757 7.28899 1.15578 7.27776C1.07399 7.26653 0.990782 7.27162 0.910969 7.29273C0.831156 7.31383 0.756316 7.35055 0.690771 7.40074C0.625226 7.45094 0.570275 7.51362 0.529092 7.58517C0.487908 7.65672 0.461308 7.73572 0.450828 7.81761L1.68916 7.98761ZM14.2183 3.28178C11.035 0.0984444 5.89083 0.0651109 2.72833 3.22844L3.61166 4.11178C6.27833 1.44594 10.6308 1.46178 13.335 4.16511L14.2183 3.28178ZM2.78166 14.7184C5.96499 17.9018 11.1092 17.9351 14.2717 14.7718L13.3883 13.8884C10.7217 16.5543 6.36916 16.5384 3.66499 13.8351L2.78166 14.7184ZM14.2717 14.7718C17.4342 11.6093 17.4017 6.46511 14.2183 3.28178L13.335 4.16511C16.0383 6.86928 16.0542 11.2218 13.3883 13.8884L14.2717 14.7718ZM2.72833 3.22844L1.67249 4.28344L2.55666 5.16678L3.61166 4.11178L2.72833 3.22844ZM2.11166 5.35094L4.23333 5.36094L4.23916 4.11094L2.11833 4.10094L2.11166 5.35094ZM2.73999 4.72261L2.72916 2.60094L1.47916 2.60761L1.48999 4.72844L2.73999 4.72261ZM0.449995 7.81678C0.278649 9.06893 0.399952 10.3438 0.804377 11.5411C1.2088 12.7385 1.88533 13.8258 2.78083 14.7176L3.66416 13.8343C2.90508 13.0788 2.33157 12.1575 1.98873 11.1428C1.64589 10.1282 1.54306 9.04787 1.68833 7.98678L0.449995 7.81678Z" fill="#FF7601"/>
</svg>
