<svg width="22" height="22" viewBox="0 0 22 22" fill="none" xmlns="http://www.w3.org/2000/svg">
<path d="M12.834 19.4792H9.16732V20.8542H12.834V19.4792ZM2.52149 12.8333V9.16667H1.14649V12.8333H2.52149ZM19.4798 12.4327V12.8333H20.8548V12.4327H19.4798ZM13.6507 4.22675L17.2798 7.49283L18.1992 6.46983L14.5711 3.20375L13.6507 4.22675ZM20.8548 12.4327C20.8548 10.8845 20.8686 9.90367 20.479 9.02733L19.2222 9.58742C19.4661 10.1356 19.4798 10.7635 19.4798 12.4327H20.8548ZM17.2798 7.49283C18.5201 8.60933 18.9784 9.04017 19.2222 9.58742L20.479 9.02733C20.0885 8.15008 19.3506 7.50567 18.1992 6.46983L17.2798 7.49283ZM9.19482 2.52083C10.645 2.52083 11.1922 2.53183 11.679 2.71883L12.1722 1.4355C11.3912 1.13483 10.5405 1.14583 9.19482 1.14583V2.52083ZM14.5711 3.20467C13.5756 2.30908 12.9532 1.73433 12.1722 1.4355L11.6799 2.71883C12.1676 2.90583 12.5782 3.2615 13.6507 4.22675L14.5711 3.20467ZM9.16732 19.4792C7.41924 19.4792 6.17807 19.4773 5.23482 19.3508C4.31357 19.2271 3.7819 18.9942 3.39415 18.6065L2.42249 19.5782C3.10815 20.2657 3.97807 20.5691 5.0524 20.7139C6.10657 20.856 7.45865 20.8542 9.16732 20.8542V19.4792ZM1.14649 12.8333C1.14649 14.542 1.14465 15.8932 1.28674 16.9482C1.43157 18.0226 1.7359 18.8925 2.42157 19.5791L3.39324 18.6074C3.0064 18.2187 2.77357 17.6871 2.64982 16.7649C2.52332 15.8235 2.52149 14.5814 2.52149 12.8333H1.14649ZM12.834 20.8542C14.5427 20.8542 15.8938 20.856 16.9489 20.7139C18.0232 20.5691 18.8932 20.2647 19.5797 19.5791L18.6081 18.6074C18.2194 18.9942 17.6877 19.2271 16.7656 19.3508C15.8242 19.4773 14.5821 19.4792 12.834 19.4792V20.8542ZM19.4798 12.8333C19.4798 14.5814 19.478 15.8235 19.3515 16.7658C19.2277 17.6871 18.9949 18.2188 18.6072 18.6065L19.5788 19.5782C20.2663 18.8925 20.5697 18.0226 20.7146 16.9482C20.8567 15.8941 20.8548 14.542 20.8548 12.8333H19.4798ZM2.52149 9.16667C2.52149 7.41858 2.52332 6.17742 2.64982 5.23417C2.77357 4.31292 3.0064 3.78125 3.39415 3.3935L2.42249 2.42183C1.73499 3.1075 1.43157 3.97742 1.28674 5.05175C1.14465 6.10592 1.14649 7.458 1.14649 9.16667H2.52149ZM9.19482 1.14583C7.47607 1.14583 6.11849 1.144 5.05974 1.28608C3.98082 1.43092 3.10815 1.73525 2.42157 2.42092L3.39324 3.39258C3.7819 3.00575 4.31449 2.77292 5.24215 2.64917C6.18907 2.52267 7.43757 2.52083 9.19482 2.52083V1.14583Z" fill="black"/>
<path d="M11.918 2.29166V4.58332C11.918 6.74391 11.918 7.82466 12.589 8.49566C13.26 9.16666 14.3407 9.16666 16.5013 9.16666H20.168" stroke="black" stroke-width="1.5"/>
<path d="M7.79232 12.375V16.9583M7.79232 16.9583L9.62565 15.2396M7.79232 16.9583L5.95898 15.2396" stroke="black" stroke-width="1.5" stroke-linecap="round" stroke-linejoin="round"/>
</svg>
