<svg width="24" height="24" viewBox="0 0 24 24" fill="none" xmlns="http://www.w3.org/2000/svg">
<path fill-rule="evenodd" clip-rule="evenodd" d="M6.5 23C7.95869 23 9.35764 22.4205 10.3891 21.3891C11.4205 20.3576 12 18.9587 12 17.5C12 16.0413 11.4205 14.6424 10.3891 13.6109C9.35764 12.5795 7.95869 12 6.5 12C5.04131 12 3.64236 12.5795 2.61091 13.6109C1.57946 14.6424 1 16.0413 1 17.5C1 18.9587 1.57946 20.3576 2.61091 21.3891C3.64236 22.4205 5.04131 23 6.5 23ZM6.5 14.007C6.63261 14.007 6.75979 14.0597 6.85355 14.1534C6.94732 14.2472 7 14.3744 7 14.507V17H9.493C9.62561 17 9.75279 17.0527 9.84655 17.1464C9.94032 17.2402 9.993 17.3674 9.993 17.5C9.993 17.6326 9.94032 17.7598 9.84655 17.8536C9.75279 17.9473 9.62561 18 9.493 18H7V20.493C7 20.6256 6.94732 20.7528 6.85355 20.8466C6.75979 20.9403 6.63261 20.993 6.5 20.993C6.36739 20.993 6.24021 20.9403 6.14645 20.8466C6.05268 20.7528 6 20.6256 6 20.493V18H3.507C3.37439 18 3.24721 17.9473 3.15345 17.8536C3.05968 17.7598 3.007 17.6326 3.007 17.5C3.007 17.3674 3.05968 17.2402 3.15345 17.1464C3.24721 17.0527 3.37439 17 3.507 17H6V14.507C6 14.3744 6.05268 14.2472 6.14645 14.1534C6.24021 14.0597 6.36739 14.007 6.5 14.007Z" fill="white"/>
<path d="M4.29297 10.25V6.25C4.29297 5.32174 4.66172 4.4315 5.3181 3.77513C5.97447 3.11875 6.86471 2.75 7.79297 2.75H10.241C10.7401 2.74996 11.2335 2.85668 11.688 3.063M11.688 3.063C12.0702 3.2368 12.4191 3.47798 12.716 3.775L18.684 9.745C18.984 10.045 19.224 10.391 19.395 10.77M11.688 3.063L11.689 8.77C11.689 9.30043 11.8997 9.80914 12.2748 10.1842C12.6498 10.5593 13.1585 10.77 13.689 10.77H19.395M13.751 21.25H16.209C17.1372 21.25 18.0275 20.8813 18.6838 20.2249C19.3402 19.5685 19.709 18.6783 19.709 17.75V12.22C19.709 11.715 19.6 11.221 19.395 10.77" stroke="white" stroke-width="1.5" stroke-linecap="round" stroke-linejoin="round"/>
</svg>
