<svg width="13" height="14" viewBox="0 0 13 14" fill="none" xmlns="http://www.w3.org/2000/svg">
<path d="M6.54141 13.5999C3.03023 13.5999 0.191406 10.7611 0.191406 7.2499C0.191406 3.73873 3.03023 0.899902 6.54141 0.899902C10.0526 0.899902 12.8914 3.73873 12.8914 7.2499C12.8914 10.7611 10.0526 13.5999 6.54141 13.5999ZM6.54141 1.64696C3.44111 1.64696 0.938465 4.14961 0.938465 7.2499C0.938465 10.3502 3.44111 12.8528 6.54141 12.8528C9.6417 12.8528 12.1443 10.3502 12.1443 7.2499C12.1443 4.14961 9.6417 1.64696 6.54141 1.64696Z" fill="black"/>
<path d="M3.17969 6.87646H9.90322V7.62352H3.17969V6.87646Z" fill="black"/>
<path d="M6.17188 3.88818H6.91893V10.6117H6.17188V3.88818Z" fill="black"/>
</svg>
