<svg width="21" height="21" viewBox="0 0 21 21" fill="none" xmlns="http://www.w3.org/2000/svg">
<path d="M13.6235 17.7915L15.707 19.875L19.8735 15.7085M15.707 1.125H4.24853C3.97231 1.125 3.7074 1.23473 3.51208 1.43005C3.31676 1.62537 3.20703 1.89028 3.20703 2.1665V7.375H7.37353L9.45703 9.4585H17.79V3.2085M15.707 1.125L17.79 3.2085M15.707 1.125V3.2085H17.79" stroke="black" stroke-linecap="round" stroke-linejoin="round"/>
<path d="M9.4585 19.875H2.1665C1.89028 19.875 1.62537 19.7653 1.43005 19.57C1.23473 19.3746 1.125 19.1097 1.125 18.8335V8.4165C1.125 8.14028 1.23473 7.87537 1.43005 7.68005C1.62537 7.48473 1.89028 7.375 2.1665 7.375H7.375L9.4585 9.4585H18.8335C19.1097 9.4585 19.3746 9.56823 19.57 9.76355C19.7653 9.95887 19.875 10.2238 19.875 10.5V11.5415" stroke="black" stroke-linecap="round" stroke-linejoin="round"/>
</svg>
