<svg width="8" height="8" viewBox="0 0 8 8" fill="none" xmlns="http://www.w3.org/2000/svg">
<path d="M7.77064 1.03142V6.33472C7.77064 6.4343 7.73108 6.52981 7.66066 6.60022C7.59025 6.67064 7.49475 6.7102 7.39516 6.7102C7.29558 6.7102 7.20008 6.67064 7.12966 6.60022C7.05925 6.52981 7.01969 6.4343 7.01969 6.33472L7.02022 1.9367L1.29637 7.66055C1.22604 7.73087 1.13066 7.77038 1.0312 7.77038C0.931747 7.77038 0.836364 7.73087 0.766038 7.66055C0.695712 7.59022 0.656203 7.49484 0.656202 7.39538C0.656203 7.29593 0.695712 7.20054 0.766038 7.13022L6.48989 1.40637L2.09186 1.4069C1.99228 1.4069 1.89678 1.36734 1.82636 1.29692C1.75595 1.22651 1.71639 1.131 1.71639 1.03142C1.71639 0.931841 1.75595 0.836337 1.82636 0.765922C1.89678 0.695507 1.99228 0.655948 2.09186 0.655948L7.39516 0.655949C7.44449 0.655886 7.49334 0.665556 7.53893 0.684403C7.58451 0.70325 7.62592 0.730905 7.6608 0.765783C7.69568 0.800662 7.72334 0.842078 7.74218 0.887661C7.76103 0.933243 7.7707 0.982097 7.77064 1.03142Z" fill="#787878"/>
</svg>
