<svg width="18" height="20" viewBox="0 0 18 20" fill="none" xmlns="http://www.w3.org/2000/svg">
<path d="M9.00066 0.5C7.14415 0.5 5.36367 1.2375 4.05092 2.55025C2.73816 3.86301 2.00066 5.64348 2.00066 7.5V11.028C2.00081 11.1831 1.96486 11.3362 1.89566 11.475L0.178663 14.908C0.0947892 15.0757 0.0551849 15.2621 0.0636113 15.4494C0.0720377 15.6368 0.128215 15.8188 0.226808 15.9783C0.325401 16.1379 0.463135 16.2695 0.62693 16.3608C0.790724 16.4521 0.975141 16.5 1.16266 16.5H16.8387C17.0262 16.5 17.2106 16.4521 17.3744 16.3608C17.5382 16.2695 17.6759 16.1379 17.7745 15.9783C17.8731 15.8188 17.9293 15.6368 17.9377 15.4494C17.9461 15.2621 17.9065 15.0757 17.8227 14.908L16.1067 11.475C16.0371 11.3362 16.0008 11.1832 16.0007 11.028V7.5C16.0007 5.64348 15.2632 3.86301 13.9504 2.55025C12.6377 1.2375 10.8572 0.5 9.00066 0.5ZM9.00066 19.5C8.38001 19.5003 7.77454 19.3081 7.26768 18.9499C6.76083 18.5917 6.37755 18.0852 6.17066 17.5H11.8307C11.6238 18.0852 11.2405 18.5917 10.7336 18.9499C10.2268 19.3081 9.62132 19.5003 9.00066 19.5Z" fill="black"/>
</svg>
