<svg width="20" height="20" viewBox="0 0 20 20" fill="none" xmlns="http://www.w3.org/2000/svg">
<path d="M9.96042 15.9862H16.7704C17.0356 16.0011 17.3002 15.9478 17.5389 15.8314C17.7777 15.715 17.9826 15.5393 18.1342 15.3212C18.2858 15.1032 18.3791 14.8499 18.405 14.5855C18.4309 14.3212 18.3887 14.0546 18.2824 13.8112C17.9224 12.7232 16.4874 11.4182 16.4874 10.1342C16.4874 7.28422 16.4874 6.53422 15.0834 4.85822C14.6291 4.31875 14.0657 3.88151 13.4304 3.57522L12.6474 3.19522C12.516 3.11592 12.4027 3.01 12.3147 2.88428C12.2267 2.75856 12.166 2.61581 12.1364 2.46522C12.0582 1.95763 11.7898 1.4988 11.3857 1.18181C10.9816 0.864811 10.4721 0.713377 9.96042 0.758218C9.45803 0.72805 8.96244 0.886235 8.57042 1.20188C8.17841 1.51752 7.91813 1.96796 7.84042 2.46522C7.80517 2.62101 7.73611 2.76715 7.63813 2.8933C7.54015 3.01944 7.41564 3.12252 7.27342 3.19522L6.49042 3.57522C5.85546 3.88163 5.29247 4.31886 4.83842 4.85822C3.43542 6.53422 3.43542 7.28422 3.43542 10.1342C3.43542 11.4182 2.06542 12.5922 1.70542 13.7452C1.48842 14.4422 1.36842 15.9862 3.18542 15.9862H9.96042Z" stroke="black" stroke-width="1.5" stroke-linecap="round" stroke-linejoin="round"/>
<path d="M13.225 15.9863C13.2335 16.4172 13.155 16.8453 12.994 17.2451C12.8331 17.6448 12.5931 18.008 12.2883 18.3127C11.9836 18.6174 11.6205 18.8575 11.2207 19.0184C10.821 19.1794 10.3928 19.2579 9.96196 19.2493C9.531 19.2585 9.10264 19.1803 8.70268 19.0195C8.30272 18.8588 7.93942 18.6188 7.63467 18.3139C7.32991 18.0091 7.08999 17.6457 6.92935 17.2457C6.76872 16.8457 6.69069 16.4173 6.69996 15.9863" stroke="black" stroke-width="1.5" stroke-linecap="round" stroke-linejoin="round"/>
</svg>
