<svg width="17" height="17" viewBox="0 0 17 17" fill="none" xmlns="http://www.w3.org/2000/svg">
<path fill-rule="evenodd" clip-rule="evenodd" d="M0 0.53125C0 0.390354 0.0559708 0.255228 0.1556 0.1556C0.255228 0.0559708 0.390354 0 0.53125 0L4.78125 0C4.92215 0 5.05727 0.0559708 5.1569 0.1556C5.25653 0.255228 5.3125 0.390354 5.3125 0.53125C5.3125 0.672146 5.25653 0.807272 5.1569 0.906901C5.05727 1.00653 4.92215 1.0625 4.78125 1.0625H0.53125C0.390354 1.0625 0.255228 1.00653 0.1556 0.906901C0.0559708 0.807272 0 0.672146 0 0.53125ZM0 2.65625C0 2.51535 0.0559708 2.38023 0.1556 2.2806C0.255228 2.18097 0.390354 2.125 0.53125 2.125H7.96875C8.10965 2.125 8.24477 2.18097 8.3444 2.2806C8.44403 2.38023 8.5 2.51535 8.5 2.65625C8.5 2.79715 8.44403 2.93227 8.3444 3.0319C8.24477 3.13153 8.10965 3.1875 7.96875 3.1875H0.53125C0.390354 3.1875 0.255228 3.13153 0.1556 3.0319C0.0559708 2.93227 0 2.79715 0 2.65625ZM9.5625 2.65625C9.5625 2.51535 9.61847 2.38023 9.7181 2.2806C9.81773 2.18097 9.95285 2.125 10.0938 2.125H15.4062C15.5471 2.125 15.6823 2.18097 15.7819 2.2806C15.8815 2.38023 15.9375 2.51535 15.9375 2.65625C15.9375 2.79715 15.8815 2.93227 15.7819 3.0319C15.6823 3.13153 15.5471 3.1875 15.4062 3.1875H10.0938C9.95285 3.1875 9.81773 3.13153 9.7181 3.0319C9.61847 2.93227 9.5625 2.79715 9.5625 2.65625ZM0 4.78125C0 4.64035 0.0559708 4.50523 0.1556 4.4056C0.255228 4.30597 0.390354 4.25 0.53125 4.25H3.71875C3.85965 4.25 3.99477 4.30597 4.0944 4.4056C4.19403 4.50523 4.25 4.64035 4.25 4.78125C4.25 4.92215 4.19403 5.05727 4.0944 5.1569C3.99477 5.25653 3.85965 5.3125 3.71875 5.3125H0.53125C0.390354 5.3125 0.255228 5.25653 0.1556 5.1569C0.0559708 5.05727 0 4.92215 0 4.78125ZM5.3125 4.78125C5.3125 4.64035 5.36847 4.50523 5.4681 4.4056C5.56773 4.30597 5.70285 4.25 5.84375 4.25H11.1562C11.2971 4.25 11.4323 4.30597 11.5319 4.4056C11.6315 4.50523 11.6875 4.64035 11.6875 4.78125C11.6875 4.92215 11.6315 5.05727 11.5319 5.1569C11.4323 5.25653 11.2971 5.3125 11.1562 5.3125H5.84375C5.70285 5.3125 5.56773 5.25653 5.4681 5.1569C5.36847 5.05727 5.3125 4.92215 5.3125 4.78125ZM12.75 4.78125C12.75 4.64035 12.806 4.50523 12.9056 4.4056C13.0052 4.30597 13.1404 4.25 13.2812 4.25H16.4688C16.6096 4.25 16.7448 4.30597 16.8444 4.4056C16.944 4.50523 17 4.64035 17 4.78125C17 4.92215 16.944 5.05727 16.8444 5.1569C16.7448 5.25653 16.6096 5.3125 16.4688 5.3125H13.2812C13.1404 5.3125 13.0052 5.25653 12.9056 5.1569C12.806 5.05727 12.75 4.92215 12.75 4.78125ZM0 6.90625C0 6.76535 0.0559708 6.63023 0.1556 6.5306C0.255228 6.43097 0.390354 6.375 0.53125 6.375H6.90625C7.04715 6.375 7.18227 6.43097 7.2819 6.5306C7.38153 6.63023 7.4375 6.76535 7.4375 6.90625C7.4375 7.04715 7.38153 7.18227 7.2819 7.2819C7.18227 7.38153 7.04715 7.4375 6.90625 7.4375H0.53125C0.390354 7.4375 0.255228 7.38153 0.1556 7.2819C0.0559708 7.18227 0 7.04715 0 6.90625ZM8.5 6.90625C8.5 6.76535 8.55597 6.63023 8.6556 6.5306C8.75523 6.43097 8.89035 6.375 9.03125 6.375H14.3438C14.4846 6.375 14.6198 6.43097 14.7194 6.5306C14.819 6.63023 14.875 6.76535 14.875 6.90625C14.875 7.04715 14.819 7.18227 14.7194 7.2819C14.6198 7.38153 14.4846 7.4375 14.3438 7.4375H9.03125C8.89035 7.4375 8.75523 7.38153 8.6556 7.2819C8.55597 7.18227 8.5 7.04715 8.5 6.90625ZM0 9.03125C0 8.89035 0.0559708 8.75523 0.1556 8.6556C0.255228 8.55597 0.390354 8.5 0.53125 8.5H5.84375C5.98465 8.5 6.11977 8.55597 6.2194 8.6556C6.31903 8.75523 6.375 8.89035 6.375 9.03125C6.375 9.17215 6.31903 9.30727 6.2194 9.4069C6.11977 9.50653 5.98465 9.5625 5.84375 9.5625H0.53125C0.390354 9.5625 0.255228 9.50653 0.1556 9.4069C0.0559708 9.30727 0 9.17215 0 9.03125ZM7.4375 9.03125C7.4375 8.89035 7.49347 8.75523 7.5931 8.6556C7.69273 8.55597 7.82785 8.5 7.96875 8.5H15.4062C15.5471 8.5 15.6823 8.55597 15.7819 8.6556C15.8815 8.75523 15.9375 8.89035 15.9375 9.03125C15.9375 9.17215 15.8815 9.30727 15.7819 9.4069C15.6823 9.50653 15.5471 9.5625 15.4062 9.5625H7.96875C7.82785 9.5625 7.69273 9.50653 7.5931 9.4069C7.49347 9.30727 7.4375 9.17215 7.4375 9.03125ZM0 11.1562C0 11.0154 0.0559708 10.8802 0.1556 10.7806C0.255228 10.681 0.390354 10.625 0.53125 10.625H9.03125C9.17215 10.625 9.30727 10.681 9.4069 10.7806C9.50653 10.8802 9.5625 11.0154 9.5625 11.1562C9.5625 11.2971 9.50653 11.4323 9.4069 11.5319C9.30727 11.6315 9.17215 11.6875 9.03125 11.6875H0.53125C0.390354 11.6875 0.255228 11.6315 0.1556 11.5319C0.0559708 11.4323 0 11.2971 0 11.1562ZM0 13.2812C0 13.1404 0.0559708 13.0052 0.1556 12.9056C0.255228 12.806 0.390354 12.75 0.53125 12.75H4.78125C4.92215 12.75 5.05727 12.806 5.1569 12.9056C5.25653 13.0052 5.3125 13.1404 5.3125 13.2812C5.3125 13.4221 5.25653 13.5573 5.1569 13.6569C5.05727 13.7565 4.92215 13.8125 4.78125 13.8125H0.53125C0.390354 13.8125 0.255228 13.7565 0.1556 13.6569C0.0559708 13.5573 0 13.4221 0 13.2812ZM0 15.4062C0 15.2654 0.0559708 15.1302 0.1556 15.0306C0.255228 14.931 0.390354 14.875 0.53125 14.875H2.65625C2.79715 14.875 2.93227 14.931 3.0319 15.0306C3.13153 15.1302 3.1875 15.2654 3.1875 15.4062C3.1875 15.5471 3.13153 15.6823 3.0319 15.7819C2.93227 15.8815 2.79715 15.9375 2.65625 15.9375H0.53125C0.390354 15.9375 0.255228 15.8815 0.1556 15.7819C0.0559708 15.6823 0 15.5471 0 15.4062Z" fill="black"/>
</svg>
