<svg width="21" height="21" viewBox="0 0 21 21" fill="none" xmlns="http://www.w3.org/2000/svg">
<path d="M12.6621 0.995106C12.7684 0.885088 12.8272 0.737736 12.8258 0.584788C12.8245 0.43184 12.7631 0.285533 12.655 0.177378C12.5468 0.0692234 12.4005 0.00787471 12.2476 0.00654563C12.0946 0.00521656 11.9473 0.0640135 11.8373 0.170272L10.4997 1.50786L9.1621 0.170272C9.10829 0.114558 9.04392 0.0701184 8.97275 0.0395465C8.90158 0.00897458 8.82504 -0.00711742 8.74758 -0.00779048C8.67013 -0.00846353 8.59331 0.00629567 8.52163 0.0356262C8.44994 0.0649567 8.38481 0.108271 8.33003 0.163042C8.27526 0.217812 8.23195 0.282943 8.20262 0.354632C8.17329 0.426322 8.15853 0.503135 8.1592 0.58059C8.15987 0.658044 8.17597 0.734589 8.20654 0.805758C8.23711 0.876927 8.28155 0.941295 8.33726 0.995106L9.67485 2.33269L8.33726 3.67027C8.23101 3.78029 8.17221 3.92764 8.17354 4.08059C8.17487 4.23354 8.23622 4.37984 8.34437 4.488C8.45253 4.59615 8.59883 4.6575 8.75178 4.65883C8.90473 4.66016 9.05208 4.60136 9.1621 4.49511L10.4997 3.15752L11.8373 4.49511C11.9467 4.60449 12.0951 4.6659 12.2499 4.66585C12.4046 4.66579 12.553 4.60427 12.6624 4.49481C12.7718 4.38536 12.8332 4.23693 12.8331 4.08219C12.8331 3.92745 12.7716 3.77907 12.6621 3.66969L11.3245 2.33269L12.6621 0.995106Z" fill="#3666AA"/>
<path fill-rule="evenodd" clip-rule="evenodd" d="M0.398773 11.9286L2.33311 12.5732V17.5C2.33311 17.6213 2.37092 17.7396 2.44129 17.8384C2.51165 17.9372 2.61106 18.0116 2.72569 18.0512L10.3044 20.6745C10.4242 20.7171 10.5547 20.7193 10.6759 20.6809L10.6841 20.6786L10.6929 20.6757L18.2739 18.0512C18.3885 18.0116 18.4879 17.9372 18.5583 17.8384C18.6286 17.7396 18.6664 17.6213 18.6664 17.5V12.5732L20.6008 11.9286C20.69 11.8989 20.7707 11.8481 20.8361 11.7805C20.9014 11.7129 20.9495 11.6305 20.9761 11.5403C21.0028 11.4501 21.0072 11.3548 20.9891 11.2626C20.971 11.1703 20.9308 11.0838 20.872 11.0104L18.5387 8.09374C18.4695 8.00757 18.3772 7.94284 18.2727 7.90707L10.6905 5.28207C10.567 5.23931 10.4326 5.23931 10.309 5.28207L2.72686 7.90707C2.6223 7.94284 2.53005 8.00757 2.46086 8.09374L0.127523 11.0104C0.0687453 11.0838 0.0285817 11.1703 0.0104542 11.2626C-0.00767332 11.3548 -0.00322719 11.4501 0.0234137 11.5403C0.0500546 11.6305 0.0981005 11.7129 0.163458 11.7805C0.228815 11.8481 0.309547 11.8989 0.398773 11.9286ZM8.93586 14.3342L9.91644 12.9342V19.306L3.49977 17.0847V12.9617L8.27377 14.553C8.39303 14.5926 8.52191 14.5927 8.64121 14.5532C8.7605 14.5136 8.86385 14.4372 8.93586 14.3342ZM4.69969 8.45832L10.4998 10.4662L16.2999 8.45832L10.4998 6.45049L4.69969 8.45832ZM12.0637 14.3348L11.0831 12.9337V19.306L17.4998 17.0847V12.9617L12.7258 14.553C12.6065 14.5926 12.4776 14.5927 12.3583 14.5532C12.239 14.5136 12.1357 14.4367 12.0637 14.3337M3.11477 9.14432L1.56136 11.0862L4.77611 12.1578L8.22944 13.3087L9.57869 11.382L9.49994 11.3546L3.11477 9.14432ZM19.4382 11.0862L17.8848 9.14373L11.4209 11.382L12.7701 13.3087L19.4382 11.0862Z" fill="#3666AA"/>
</svg>
