<svg width="25" height="25" viewBox="0 0 25 25" fill="none" xmlns="http://www.w3.org/2000/svg">
<g clip-path="url(#clip0_1624_56254)">
<path d="M17 7.4375C16.7969 7.4375 16.6211 7.36328 16.4727 7.21484C16.3242 7.06641 16.25 6.89062 16.25 6.6875C16.25 6.28906 16.3242 5.90625 16.4727 5.53906C16.6211 5.17188 16.8398 4.84766 17.1289 4.56641L18.0547 3.62891C18.3516 3.33203 18.5 2.97656 18.5 2.5625C18.5 2.35938 18.5742 2.18359 18.7227 2.03516C18.8711 1.88672 19.0469 1.8125 19.25 1.8125C19.4531 1.8125 19.6289 1.88672 19.7773 2.03516C19.9258 2.18359 20 2.35938 20 2.5625C20 2.96094 19.9258 3.34375 19.7773 3.71094C19.6289 4.07812 19.4102 4.40234 19.1211 4.68359L18.1953 5.62109C17.8984 5.91797 17.75 6.27344 17.75 6.6875C17.75 6.89062 17.6758 7.06641 17.5273 7.21484C17.3789 7.36328 17.2031 7.4375 17 7.4375ZM12.5 7.4375C12.2969 7.4375 12.1211 7.36328 11.9727 7.21484C11.8242 7.06641 11.75 6.89062 11.75 6.6875C11.75 6.28906 11.8242 5.90625 11.9727 5.53906C12.1211 5.17188 12.3398 4.84766 12.6289 4.56641L13.5547 3.62891C13.8516 3.33203 14 2.97656 14 2.5625C14 2.35938 14.0742 2.18359 14.2227 2.03516C14.3711 1.88672 14.5469 1.8125 14.75 1.8125C14.9531 1.8125 15.1289 1.88672 15.2773 2.03516C15.4258 2.18359 15.5 2.35938 15.5 2.5625C15.5 2.96094 15.4258 3.34375 15.2773 3.71094C15.1289 4.07812 14.9102 4.40234 14.6211 4.68359L13.6953 5.62109C13.3984 5.91797 13.25 6.27344 13.25 6.6875C13.25 6.89062 13.1758 7.06641 13.0273 7.21484C12.8789 7.36328 12.7031 7.4375 12.5 7.4375ZM22.25 9.5C22.5625 9.5 22.8555 9.55859 23.1289 9.67578C23.4023 9.79297 23.6406 9.95312 23.8438 10.1562C24.0469 10.3594 24.207 10.5977 24.3242 10.8711C24.4414 11.1445 24.5 11.4375 24.5 11.75V16.25C24.5 16.5625 24.4414 16.8555 24.3242 17.1289C24.207 17.4023 24.0469 17.6406 23.8438 17.8438C23.6406 18.0469 23.4023 18.207 23.1289 18.3242C22.8555 18.4414 22.5625 18.5 22.25 18.5H21.582C21.5664 18.5547 21.5547 18.6055 21.5469 18.6523C21.5391 18.6992 21.5234 18.7461 21.5 18.793V19.25C21.5 19.7656 21.4023 20.25 21.207 20.7031C21.0117 21.1562 20.7422 21.5547 20.3984 21.8984C20.0547 22.2422 19.6562 22.5117 19.2031 22.707C18.75 22.9023 18.2656 23 17.75 23H13.25C12.6406 23 12.0781 22.8633 11.5625 22.5898C11.0469 22.3164 10.6172 21.9531 10.2734 21.5H4.41406C3.89844 21.5 3.41406 21.4023 2.96094 21.207C2.50781 21.0117 2.10938 20.7461 1.76562 20.4102C1.42188 20.0742 1.15234 19.6758 0.957031 19.2148C0.761719 18.7539 0.664062 18.2656 0.664062 17.75V17H3.66406C3.66406 16.3828 3.78125 15.8008 4.01562 15.2539C4.25 14.707 4.57422 14.2305 4.98828 13.8242C5.40234 13.418 5.87891 13.0938 6.41797 12.8516C6.95703 12.6094 7.53906 12.4922 8.16406 12.5C8.39844 12.5 8.625 12.5195 8.84375 12.5586C9.0625 12.5977 9.28125 12.6523 9.5 12.7227V8H21.5V9.5H22.25ZM8.16406 14C7.75 14 7.36328 14.0781 7.00391 14.2344C6.64453 14.3906 6.32422 14.6055 6.04297 14.8789C5.76172 15.1523 5.54688 15.4688 5.39844 15.8281C5.25 16.1875 5.17188 16.5781 5.16406 17H9.5V14.3281C9.29688 14.2266 9.08594 14.1484 8.86719 14.0938C8.64844 14.0391 8.41406 14.0078 8.16406 14ZM4.41406 20H9.58203C9.52734 19.7734 9.5 19.5234 9.5 19.25V18.5H2.29297C2.37109 18.7188 2.48047 18.918 2.62109 19.0977C2.76172 19.2773 2.92188 19.4375 3.10156 19.5781C3.28125 19.7188 3.48438 19.8203 3.71094 19.8828C3.9375 19.9453 4.17188 19.9844 4.41406 20ZM9.83984 20.7852V20.7969L9.85156 20.8203V20.8086L9.83984 20.7852ZM20 19.25V9.5H11V19.25C11 19.5625 11.0586 19.8555 11.1758 20.1289C11.293 20.4023 11.4531 20.6406 11.6562 20.8438C11.8594 21.0469 12.0977 21.207 12.3711 21.3242C12.6445 21.4414 12.9375 21.5 13.25 21.5H17.75C18.0625 21.5 18.3555 21.4414 18.6289 21.3242C18.9023 21.207 19.1406 21.0469 19.3438 20.8438C19.5469 20.6406 19.707 20.4023 19.8242 20.1289C19.9414 19.8555 20 19.5625 20 19.25ZM23 16.25V11.75C23 11.5469 22.9258 11.3711 22.7773 11.2227C22.6289 11.0742 22.4531 11 22.25 11H21.5V17H22.25C22.4531 17 22.6289 16.9258 22.7773 16.7773C22.9258 16.6289 23 16.4531 23 16.25Z" fill="#3666AA"/>
</g>
<defs>
<clipPath id="clip0_1624_56254">
<rect width="24" height="24" fill="white" transform="translate(0.5 0.5)"/>
</clipPath>
</defs>
</svg>
