<svg width="20" height="20" viewBox="0 0 20 20" fill="none" xmlns="http://www.w3.org/2000/svg">
<path d="M0.832031 9.99984C0.832031 6.54309 0.832031 4.81425 1.90636 3.74084C2.9807 2.66742 4.70861 2.6665 8.16536 2.6665H11.832C15.2888 2.6665 17.0176 2.6665 18.091 3.74084C19.1644 4.81517 19.1654 6.54309 19.1654 9.99984V11.8332C19.1654 15.2899 19.1654 17.0188 18.091 18.0922C17.0167 19.1656 15.2888 19.1665 11.832 19.1665H8.16536C4.70861 19.1665 2.97978 19.1665 1.90636 18.0922C0.832948 17.0178 0.832031 15.2899 0.832031 11.8332V9.99984Z" stroke="#3666AA" stroke-width="1.5"/>
<path d="M5.41406 2.6665V1.2915M14.5807 2.6665V1.2915M1.28906 7.24984H18.7057" stroke="#3666AA" stroke-width="1.5" stroke-linecap="round"/>
<path d="M15.5 14.5833C15.5 14.8264 15.4034 15.0596 15.2315 15.2315C15.0596 15.4034 14.8264 15.5 14.5833 15.5C14.3402 15.5 14.1071 15.4034 13.9352 15.2315C13.7632 15.0596 13.6667 14.8264 13.6667 14.5833C13.6667 14.3402 13.7632 14.1071 13.9352 13.9352C14.1071 13.7632 14.3402 13.6667 14.5833 13.6667C14.8264 13.6667 15.0596 13.7632 15.2315 13.9352C15.4034 14.1071 15.5 14.3402 15.5 14.5833ZM15.5 10.9167C15.5 11.1598 15.4034 11.3929 15.2315 11.5648C15.0596 11.7368 14.8264 11.8333 14.5833 11.8333C14.3402 11.8333 14.1071 11.7368 13.9352 11.5648C13.7632 11.3929 13.6667 11.1598 13.6667 10.9167C13.6667 10.6736 13.7632 10.4404 13.9352 10.2685C14.1071 10.0966 14.3402 10 14.5833 10C14.8264 10 15.0596 10.0966 15.2315 10.2685C15.4034 10.4404 15.5 10.6736 15.5 10.9167ZM10.9167 14.5833C10.9167 14.8264 10.8201 15.0596 10.6482 15.2315C10.4763 15.4034 10.2431 15.5 10 15.5C9.75689 15.5 9.52373 15.4034 9.35182 15.2315C9.17991 15.0596 9.08333 14.8264 9.08333 14.5833C9.08333 14.3402 9.17991 14.1071 9.35182 13.9352C9.52373 13.7632 9.75689 13.6667 10 13.6667C10.2431 13.6667 10.4763 13.7632 10.6482 13.9352C10.8201 14.1071 10.9167 14.3402 10.9167 14.5833ZM10.9167 10.9167C10.9167 11.1598 10.8201 11.3929 10.6482 11.5648C10.4763 11.7368 10.2431 11.8333 10 11.8333C9.75689 11.8333 9.52373 11.7368 9.35182 11.5648C9.17991 11.3929 9.08333 11.1598 9.08333 10.9167C9.08333 10.6736 9.17991 10.4404 9.35182 10.2685C9.52373 10.0966 9.75689 10 10 10C10.2431 10 10.4763 10.0966 10.6482 10.2685C10.8201 10.4404 10.9167 10.6736 10.9167 10.9167ZM6.33333 14.5833C6.33333 14.8264 6.23676 15.0596 6.06485 15.2315C5.89294 15.4034 5.65978 15.5 5.41667 15.5C5.17355 15.5 4.94039 15.4034 4.76849 15.2315C4.59658 15.0596 4.5 14.8264 4.5 14.5833C4.5 14.3402 4.59658 14.1071 4.76849 13.9352C4.94039 13.7632 5.17355 13.6667 5.41667 13.6667C5.65978 13.6667 5.89294 13.7632 6.06485 13.9352C6.23676 14.1071 6.33333 14.3402 6.33333 14.5833ZM6.33333 10.9167C6.33333 11.1598 6.23676 11.3929 6.06485 11.5648C5.89294 11.7368 5.65978 11.8333 5.41667 11.8333C5.17355 11.8333 4.94039 11.7368 4.76849 11.5648C4.59658 11.3929 4.5 11.1598 4.5 10.9167C4.5 10.6736 4.59658 10.4404 4.76849 10.2685C4.94039 10.0966 5.17355 10 5.41667 10C5.65978 10 5.89294 10.0966 6.06485 10.2685C6.23676 10.4404 6.33333 10.6736 6.33333 10.9167Z" fill="#3666AA"/>
</svg>
