<svg width="19" height="19" viewBox="0 0 19 19" fill="none" xmlns="http://www.w3.org/2000/svg">
<g clip-path="url(#clip0_193_1926)">
<path d="M13.0625 7.71875C13.0625 7.56128 13.1251 7.41026 13.2364 7.29891C13.3478 7.18756 13.4988 7.125 13.6562 7.125H14.8438C15.0012 7.125 15.1522 7.18756 15.2636 7.29891C15.3749 7.41026 15.4375 7.56128 15.4375 7.71875V8.90625C15.4375 9.06372 15.3749 9.21474 15.2636 9.32609C15.1522 9.43744 15.0012 9.5 14.8438 9.5H13.6562C13.4988 9.5 13.3478 9.43744 13.2364 9.32609C13.1251 9.21474 13.0625 9.06372 13.0625 8.90625V7.71875ZM9.5 7.71875C9.5 7.56128 9.56256 7.41026 9.6739 7.29891C9.78525 7.18756 9.93628 7.125 10.0938 7.125H11.2812C11.4387 7.125 11.5897 7.18756 11.7011 7.29891C11.8124 7.41026 11.875 7.56128 11.875 7.71875V8.90625C11.875 9.06372 11.8124 9.21474 11.7011 9.32609C11.5897 9.43744 11.4387 9.5 11.2812 9.5H10.0938C9.93628 9.5 9.78525 9.43744 9.6739 9.32609C9.56256 9.21474 9.5 9.06372 9.5 8.90625V7.71875ZM3.5625 11.2812C3.5625 11.1238 3.62506 10.9728 3.73641 10.8614C3.84776 10.7501 3.99878 10.6875 4.15625 10.6875H5.34375C5.50122 10.6875 5.65224 10.7501 5.76359 10.8614C5.87494 10.9728 5.9375 11.1238 5.9375 11.2812V12.4688C5.9375 12.6262 5.87494 12.7772 5.76359 12.8886C5.65224 12.9999 5.50122 13.0625 5.34375 13.0625H4.15625C3.99878 13.0625 3.84776 12.9999 3.73641 12.8886C3.62506 12.7772 3.5625 12.6262 3.5625 12.4688V11.2812ZM7.125 11.2812C7.125 11.1238 7.18756 10.9728 7.29891 10.8614C7.41026 10.7501 7.56128 10.6875 7.71875 10.6875H8.90625C9.06372 10.6875 9.21475 10.7501 9.32609 10.8614C9.43744 10.9728 9.5 11.1238 9.5 11.2812V12.4688C9.5 12.6262 9.43744 12.7772 9.32609 12.8886C9.21475 12.9999 9.06372 13.0625 8.90625 13.0625H7.71875C7.56128 13.0625 7.41026 12.9999 7.29891 12.8886C7.18756 12.7772 7.125 12.6262 7.125 12.4688V11.2812Z" fill="#00809D"/>
<path d="M4.15625 0C4.31372 0 4.46475 0.0625556 4.57609 0.173905C4.68744 0.285255 4.75 0.436278 4.75 0.59375V1.1875H14.25V0.59375C14.25 0.436278 14.3126 0.285255 14.4239 0.173905C14.5353 0.0625556 14.6863 0 14.8438 0C15.0012 0 15.1522 0.0625556 15.2636 0.173905C15.3749 0.285255 15.4375 0.436278 15.4375 0.59375V1.1875H16.625C17.2549 1.1875 17.859 1.43772 18.3044 1.88312C18.7498 2.32852 19 2.93261 19 3.5625V16.625C19 17.2549 18.7498 17.859 18.3044 18.3044C17.859 18.7498 17.2549 19 16.625 19H2.375C1.74511 19 1.14102 18.7498 0.695621 18.3044C0.250223 17.859 0 17.2549 0 16.625V3.5625C0 2.93261 0.250223 2.32852 0.695621 1.88312C1.14102 1.43772 1.74511 1.1875 2.375 1.1875H3.5625V0.59375C3.5625 0.436278 3.62506 0.285255 3.73641 0.173905C3.84776 0.0625556 3.99878 0 4.15625 0ZM1.1875 4.75V16.625C1.1875 16.9399 1.31261 17.242 1.53531 17.4647C1.75801 17.6874 2.06006 17.8125 2.375 17.8125H16.625C16.9399 17.8125 17.242 17.6874 17.4647 17.4647C17.6874 17.242 17.8125 16.9399 17.8125 16.625V4.75H1.1875Z" fill="#00809D"/>
</g>
<defs>
<clipPath id="clip0_193_1926">
<rect width="19" height="19" fill="white"/>
</clipPath>
</defs>
</svg>
