<svg width="19" height="19" viewBox="0 0 19 19" fill="none" xmlns="http://www.w3.org/2000/svg">
<path d="M1.47266 9.24992C1.47266 6.10742 1.47266 4.53575 2.44932 3.55992C3.42599 2.58409 4.99682 2.58325 8.13932 2.58325H11.4727C14.6152 2.58325 16.1868 2.58325 17.1627 3.55992C18.1385 4.53659 18.1393 6.10742 18.1393 9.24992V10.9166C18.1393 14.0591 18.1393 15.6308 17.1627 16.6066C16.186 17.5824 14.6152 17.5833 11.4727 17.5833H8.13932C4.99682 17.5833 3.42516 17.5833 2.44932 16.6066C1.47349 15.6299 1.47266 14.0591 1.47266 10.9166V9.24992Z" stroke="#A19F9F"/>
<path d="M5.64062 2.58325V1.33325M13.974 2.58325V1.33325M1.89062 6.74992H17.724" stroke="#A19F9F" stroke-linecap="round"/>
<path d="M14.8047 13.4167C14.8047 13.6377 14.7169 13.8496 14.5606 14.0059C14.4043 14.1622 14.1924 14.25 13.9714 14.25C13.7503 14.25 13.5384 14.1622 13.3821 14.0059C13.2258 13.8496 13.138 13.6377 13.138 13.4167C13.138 13.1957 13.2258 12.9837 13.3821 12.8274C13.5384 12.6711 13.7503 12.5833 13.9714 12.5833C14.1924 12.5833 14.4043 12.6711 14.5606 12.8274C14.7169 12.9837 14.8047 13.1957 14.8047 13.4167ZM14.8047 10.0833C14.8047 10.3043 14.7169 10.5163 14.5606 10.6726C14.4043 10.8289 14.1924 10.9167 13.9714 10.9167C13.7503 10.9167 13.5384 10.8289 13.3821 10.6726C13.2258 10.5163 13.138 10.3043 13.138 10.0833C13.138 9.86232 13.2258 9.65036 13.3821 9.49408C13.5384 9.3378 13.7503 9.25 13.9714 9.25C14.1924 9.25 14.4043 9.3378 14.5606 9.49408C14.7169 9.65036 14.8047 9.86232 14.8047 10.0833ZM10.638 13.4167C10.638 13.6377 10.5502 13.8496 10.3939 14.0059C10.2377 14.1622 10.0257 14.25 9.80469 14.25C9.58367 14.25 9.37171 14.1622 9.21543 14.0059C9.05915 13.8496 8.97135 13.6377 8.97135 13.4167C8.97135 13.1957 9.05915 12.9837 9.21543 12.8274C9.37171 12.6711 9.58367 12.5833 9.80469 12.5833C10.0257 12.5833 10.2377 12.6711 10.3939 12.8274C10.5502 12.9837 10.638 13.1957 10.638 13.4167ZM10.638 10.0833C10.638 10.3043 10.5502 10.5163 10.3939 10.6726C10.2377 10.8289 10.0257 10.9167 9.80469 10.9167C9.58367 10.9167 9.37171 10.8289 9.21543 10.6726C9.05915 10.5163 8.97135 10.3043 8.97135 10.0833C8.97135 9.86232 9.05915 9.65036 9.21543 9.49408C9.37171 9.3378 9.58367 9.25 9.80469 9.25C10.0257 9.25 10.2377 9.3378 10.3939 9.49408C10.5502 9.65036 10.638 9.86232 10.638 10.0833ZM6.47135 13.4167C6.47135 13.6377 6.38356 13.8496 6.22728 14.0059C6.071 14.1622 5.85903 14.25 5.63802 14.25C5.41701 14.25 5.20505 14.1622 5.04877 14.0059C4.89249 13.8496 4.80469 13.6377 4.80469 13.4167C4.80469 13.1957 4.89249 12.9837 5.04877 12.8274C5.20505 12.6711 5.41701 12.5833 5.63802 12.5833C5.85903 12.5833 6.071 12.6711 6.22728 12.8274C6.38356 12.9837 6.47135 13.1957 6.47135 13.4167ZM6.47135 10.0833C6.47135 10.3043 6.38356 10.5163 6.22728 10.6726C6.071 10.8289 5.85903 10.9167 5.63802 10.9167C5.41701 10.9167 5.20505 10.8289 5.04877 10.6726C4.89249 10.5163 4.80469 10.3043 4.80469 10.0833C4.80469 9.86232 4.89249 9.65036 5.04877 9.49408C5.20505 9.3378 5.41701 9.25 5.63802 9.25C5.85903 9.25 6.071 9.3378 6.22728 9.49408C6.38356 9.65036 6.47135 9.86232 6.47135 10.0833Z" fill="#A19F9F"/>
</svg>
