<svg width="19" height="19" viewBox="0 0 19 19" fill="none" xmlns="http://www.w3.org/2000/svg">
<g clip-path="url(#clip0_193_1931)">
<path d="M3.03844 13.4567L3.67969 11.5544H6.03569L6.67694 13.4567H7.52956L5.27569 7.125H4.44919L2.19531 13.4567H3.03844ZM4.87194 8.08094L5.81719 10.9013H3.89819L4.84819 8.08094H4.87194ZM11.6953 8.58206H10.8926V11.6019C10.8926 12.3761 10.4009 12.8167 9.70031 12.8167C9.06025 12.8167 8.53656 12.5246 8.53656 11.6149V8.58206H7.73381V11.8429C7.73381 12.9604 8.45344 13.5351 9.45925 13.5351C10.2382 13.5351 10.6978 13.2026 10.87 12.8167H10.9021V13.4567H11.6953V8.58206ZM14.3767 14.5742C13.7081 14.5742 13.2961 14.2132 13.207 13.8189H12.3912C12.5028 14.63 13.1334 15.2428 14.3719 15.2428C15.4763 15.2428 16.4453 14.6169 16.4453 13.3689V8.58206H15.6746V9.26844H15.6521C15.4253 8.85519 14.8956 8.50844 14.233 8.50844C13.0871 8.50844 12.2855 9.31475 12.2855 10.7481V11.1518C12.2855 12.6124 13.0966 13.4104 14.233 13.4104C14.8956 13.4104 15.43 13.0625 15.6248 12.6409H15.6485V13.3594C15.6485 14.1253 15.1462 14.5742 14.3767 14.5742ZM14.3862 9.19481C15.1557 9.19481 15.6473 9.82063 15.6473 10.8086V11.1091C15.6473 12.1161 15.1842 12.7288 14.3862 12.7288C13.5644 12.7288 13.0823 12.1208 13.0823 11.1091V10.8086C13.0823 9.77788 13.5644 9.19481 14.3862 9.19481Z" fill="#00809D"/>
<path d="M4.15625 0C4.31372 0 4.46475 0.0625556 4.57609 0.173905C4.68744 0.285255 4.75 0.436278 4.75 0.59375V1.1875H14.25V0.59375C14.25 0.436278 14.3126 0.285255 14.4239 0.173905C14.5353 0.0625556 14.6863 0 14.8438 0C15.0012 0 15.1522 0.0625556 15.2636 0.173905C15.3749 0.285255 15.4375 0.436278 15.4375 0.59375V1.1875H16.625C17.2549 1.1875 17.859 1.43772 18.3044 1.88312C18.7498 2.32852 19 2.93261 19 3.5625V16.625C19 17.2549 18.7498 17.859 18.3044 18.3044C17.859 18.7498 17.2549 19 16.625 19H2.375C1.74511 19 1.14102 18.7498 0.695621 18.3044C0.250223 17.859 0 17.2549 0 16.625V3.5625C0 2.93261 0.250223 2.32852 0.695621 1.88312C1.14102 1.43772 1.74511 1.1875 2.375 1.1875H3.5625V0.59375C3.5625 0.436278 3.62506 0.285255 3.73641 0.173905C3.84776 0.0625556 3.99878 0 4.15625 0ZM1.1875 4.75V16.625C1.1875 16.9399 1.31261 17.242 1.53531 17.4647C1.75801 17.6874 2.06006 17.8125 2.375 17.8125H16.625C16.9399 17.8125 17.242 17.6874 17.4647 17.4647C17.6874 17.242 17.8125 16.9399 17.8125 16.625V4.75H1.1875Z" fill="#00809D"/>
</g>
<defs>
<clipPath id="clip0_193_1931">
<rect width="19" height="19" fill="white"/>
</clipPath>
</defs>
</svg>
