<svg width="19" height="19" viewBox="0 0 19 19" fill="none" xmlns="http://www.w3.org/2000/svg">
<g clip-path="url(#clip0_193_1923)">
<path d="M5.11539 0C4.71273 0 4.38462 0.328115 4.38462 0.730769V2.92308C4.38462 3.32573 4.71273 3.65385 5.11539 3.65385C5.51804 3.65385 5.84615 3.32573 5.84615 2.92308V0.730769C5.84615 0.328115 5.51804 0 5.11539 0ZM13.8846 0C13.482 0 13.1538 0.328115 13.1538 0.730769V2.92308C13.1538 3.32573 13.482 3.65385 13.8846 3.65385C14.2873 3.65385 14.6154 3.32573 14.6154 2.92308V0.730769C14.6154 0.328115 14.2873 0 13.8846 0ZM2.19231 1.46154C0.982154 1.46154 0 2.44369 0 3.65385V16.8077C0 18.0178 0.982154 19 2.19231 19H16.8077C18.0178 19 19 18.0178 19 16.8077V3.65385C19 2.44369 18.0178 1.46154 16.8077 1.46154H15.3462V2.92308C15.3462 3.3107 15.1922 3.68245 14.9181 3.95654C14.644 4.23063 14.2722 4.38462 13.8846 4.38462C13.497 4.38462 13.1252 4.23063 12.8512 3.95654C12.5771 3.68245 12.4231 3.3107 12.4231 2.92308V1.46154H6.57692V2.92308C6.57692 3.3107 6.42294 3.68245 6.14885 3.95654C5.87476 4.23063 5.50301 4.38462 5.11539 4.38462C4.72776 4.38462 4.35601 4.23063 4.08192 3.95654C3.80783 3.68245 3.65385 3.3107 3.65385 2.92308V1.46154H2.19231ZM1.46154 6.57692H17.5385V16.8077C17.5385 17.2103 17.2103 17.5385 16.8077 17.5385H2.19231C1.78965 17.5385 1.46154 17.2103 1.46154 16.8077V6.57692ZM12.3544 8.15246C12.2987 8.16269 12.2457 8.18416 12.1985 8.21557C12.1514 8.24698 12.1112 8.28767 12.0803 8.33515L8.49519 13.6332L6.82831 11.989C6.7879 11.9483 6.73985 11.9161 6.68692 11.8941C6.634 11.8721 6.57724 11.8607 6.51992 11.8607C6.4626 11.8607 6.40585 11.8721 6.35292 11.8941C6.3 11.9161 6.25195 11.9483 6.21154 11.989L5.57212 12.6058C5.48878 12.6913 5.44214 12.806 5.44214 12.9255C5.44214 13.0449 5.48878 13.1596 5.57212 13.2452L8.10715 15.7802C8.24965 15.9213 8.47619 16.0309 8.67789 16.0309C8.87958 16.0309 9.09589 15.9023 9.22596 15.7115L13.5419 9.33996C13.6085 9.24305 13.634 9.12363 13.6126 9.00797C13.5912 8.89231 13.5248 8.78988 13.4279 8.72319L12.6971 8.22115C12.596 8.15482 12.4732 8.1302 12.3544 8.15246ZM659.154 1073.5V1074.96H678.154V1073.5H659.154ZM662.077 1077.15V1078.62H675.231V1077.15H662.077ZM659.154 1080.81V1082.27H678.154V1080.81H659.154ZM662.077 1084.46V1085.92H675.231V1084.46H662.077ZM659.154 1088.12V1089.58H678.154V1088.12H659.154Z" fill="#00809D"/>
</g>
<defs>
<clipPath id="clip0_193_1923">
<rect width="19" height="19" fill="white"/>
</clipPath>
</defs>
</svg>
