<svg width="15" height="14" viewBox="0 0 15 14" fill="none" xmlns="http://www.w3.org/2000/svg">
<path d="M7.31178 11.1243L2.06178 3.54094C2.00122 3.45343 1.96576 3.35101 1.95924 3.24479C1.95271 3.13857 1.97537 3.03259 2.02476 2.93832C2.07415 2.84405 2.14838 2.76509 2.23943 2.70998C2.33047 2.65488 2.43486 2.62573 2.54128 2.62569H13.0413C13.1478 2.62562 13.2522 2.65469 13.3433 2.70975C13.4345 2.76482 13.5088 2.84377 13.5582 2.93806C13.6077 3.03235 13.6304 3.13837 13.6239 3.24465C13.6174 3.35092 13.5819 3.45339 13.5214 3.54094L8.27136 11.1243C8.21744 11.2015 8.14567 11.2646 8.06214 11.3082C7.9786 11.3518 7.88578 11.3745 7.79157 11.3745C7.69736 11.3745 7.60454 11.3518 7.52101 11.3082C7.43748 11.2646 7.3657 11.2015 7.31178 11.1243Z" fill="#787878"/>
</svg>
