<svg width="10" height="12" viewBox="0 0 10 12" fill="none" xmlns="http://www.w3.org/2000/svg">
<path d="M8.91383 6.47948L1.33049 11.7295C1.24298 11.79 1.14056 11.8255 1.03434 11.832C0.92812 11.8385 0.822136 11.8159 0.727867 11.7665C0.633598 11.7171 0.554638 11.6429 0.499533 11.5518C0.444427 11.4608 0.415278 11.3564 0.415242 11.25V0.74998C0.415172 0.643508 0.444242 0.539047 0.499306 0.447919C0.554368 0.356791 0.633322 0.282471 0.72761 0.233013C0.821898 0.183555 0.927923 0.160847 1.0342 0.167349C1.14047 0.17385 1.24294 0.209314 1.33049 0.269897L8.91383 5.5199C8.99108 5.57381 9.05418 5.64559 9.09774 5.72913C9.14131 5.81266 9.16406 5.90548 9.16406 5.99969C9.16406 6.0939 9.14131 6.18672 9.09774 6.27025C9.05418 6.35379 8.99108 6.42556 8.91383 6.47948Z" fill="#787878"/>
</svg>
