<svg width="15" height="16" viewBox="0 0 15 16" fill="none" xmlns="http://www.w3.org/2000/svg">
<path d="M0.637681 0.5C0.468557 0.5 0.306361 0.565848 0.186773 0.683058C0.0671842 0.800269 0 0.95924 0 1.125C0 1.29076 0.0671842 1.44973 0.186773 1.56694C0.306361 1.68415 0.468557 1.75 0.637681 1.75H0.95142C1.08989 1.75023 1.22451 1.79464 1.33496 1.8765C1.4454 1.95836 1.52565 2.07323 1.56359 2.20375L3.58632 9.14125C3.70072 9.53276 3.94207 9.87711 4.27387 10.1223C4.60567 10.3674 5.00988 10.5 5.42539 10.5H11.2525C11.6349 10.5001 12.0086 10.3878 12.3253 10.1777C12.6419 9.96757 12.8871 9.66926 13.0291 9.32125L14.909 4.71375C14.9863 4.52416 15.015 4.3189 14.9926 4.11591C14.9703 3.91293 14.8976 3.7184 14.7808 3.54932C14.664 3.38025 14.5068 3.24178 14.3228 3.14602C14.1389 3.05026 13.9338 3.00013 13.7254 3H3.12209L2.78922 1.86C2.6751 1.46847 2.43405 1.12398 2.10249 0.878621C1.77092 0.633259 1.36688 0.500355 0.95142 0.5H0.637681ZM4.81322 8.79625L3.48684 4.25H13.7254L11.8443 8.8575C11.7969 8.97336 11.7152 9.07266 11.6098 9.14262C11.5043 9.21257 11.3799 9.24997 11.2525 9.25H5.42539C5.28692 9.24977 5.1523 9.20536 5.04185 9.1235C4.93141 9.04164 4.85116 8.92677 4.81322 8.79625ZM5.73913 15.5C5.99035 15.5 6.23912 15.4515 6.47122 15.3573C6.70332 15.263 6.91421 15.1249 7.09185 14.9508C7.2695 14.7767 7.41041 14.57 7.50655 14.3425C7.60269 14.115 7.65217 13.8712 7.65217 13.625C7.65217 13.3788 7.60269 13.135 7.50655 12.9075C7.41041 12.68 7.2695 12.4733 7.09185 12.2992C6.91421 12.1251 6.70332 11.987 6.47122 11.8927C6.23912 11.7985 5.99035 11.75 5.73913 11.75C5.23176 11.75 4.74517 11.9475 4.3864 12.2992C4.02764 12.6508 3.82609 13.1277 3.82609 13.625C3.82609 14.1223 4.02764 14.5992 4.3864 14.9508C4.74517 15.3025 5.23176 15.5 5.73913 15.5ZM5.73913 14.25C5.57 14.25 5.40781 14.1842 5.28822 14.0669C5.16863 13.9497 5.10145 13.7908 5.10145 13.625C5.10145 13.4592 5.16863 13.3003 5.28822 13.1831C5.40781 13.0658 5.57 13 5.73913 13C5.90825 13 6.07045 13.0658 6.19004 13.1831C6.30963 13.3003 6.37681 13.4592 6.37681 13.625C6.37681 13.7908 6.30963 13.9497 6.19004 14.0669C6.07045 14.1842 5.90825 14.25 5.73913 14.25ZM10.8406 15.5C11.0918 15.5 11.3406 15.4515 11.5727 15.3573C11.8048 15.263 12.0157 15.1249 12.1933 14.9508C12.3709 14.7767 12.5119 14.57 12.608 14.3425C12.7041 14.115 12.7536 13.8712 12.7536 13.625C12.7536 13.3788 12.7041 13.135 12.608 12.9075C12.5119 12.68 12.3709 12.4733 12.1933 12.2992C12.0157 12.1251 11.8048 11.987 11.5727 11.8927C11.3406 11.7985 11.0918 11.75 10.8406 11.75C10.3332 11.75 9.84662 11.9475 9.48785 12.2992C9.12909 12.6508 8.92753 13.1277 8.92753 13.625C8.92753 14.1223 9.12909 14.5992 9.48785 14.9508C9.84662 15.3025 10.3332 15.5 10.8406 15.5ZM10.8406 14.25C10.6715 14.25 10.5093 14.1842 10.3897 14.0669C10.2701 13.9497 10.2029 13.7908 10.2029 13.625C10.2029 13.4592 10.2701 13.3003 10.3897 13.1831C10.5093 13.0658 10.6715 13 10.8406 13C11.0097 13 11.1719 13.0658 11.2915 13.1831C11.4111 13.3003 11.4783 13.4592 11.4783 13.625C11.4783 13.7908 11.4111 13.9497 11.2915 14.0669C11.1719 14.1842 11.0097 14.25 10.8406 14.25Z" fill="black"/>
</svg>
