<svg width="17" height="16" viewBox="0 0 17 16" fill="none" xmlns="http://www.w3.org/2000/svg">
<path d="M6 5.91667H11M7.25 3.41667H9.75M3.04167 1.425L1.24 7.96417C1.08089 8.541 1.00017 9.13663 1 9.735V13.8333C1 14.2754 1.17559 14.6993 1.48816 15.0118C1.80072 15.3244 2.22464 15.5 2.66667 15.5H14.3333C14.7754 15.5 15.1993 15.3244 15.5118 15.0118C15.8244 14.6993 16 14.2754 16 13.8333V9.735C15.9998 9.13663 15.9191 8.541 15.76 7.96417L13.9583 1.425C13.8204 1.14732 13.6076 0.913642 13.3441 0.750233C13.0806 0.586823 12.7767 0.500165 12.4667 0.5H4.53333C4.22326 0.500165 3.91939 0.586823 3.65587 0.750233C3.39235 0.913642 3.17965 1.14732 3.04167 1.425Z" stroke="black" stroke-linecap="round" stroke-linejoin="round"/>
</svg>
