<svg width="17" height="24" viewBox="0 0 17 24" fill="none" xmlns="http://www.w3.org/2000/svg">
<path d="M11.8534 23.3162C12.673 23.0699 13.4361 22.6645 14.0991 22.1231C15.0214 21.3688 15.6899 20.4105 16.0842 19.3631C16.2146 19.0171 16.2547 18.6436 16.2008 18.2778C16.1468 17.912 16.0006 17.566 15.7759 17.2723C15.5513 16.9787 15.2555 16.7471 14.9165 16.5994C14.5775 16.4518 14.2065 16.3928 13.8385 16.4282C14.1539 16.3562 14.4556 16.2122 14.7231 15.9945C15.6556 15.2351 15.7276 13.5054 14.9682 12.5728C14.3172 11.7712 13.4849 11.1359 12.5401 10.7192C11.5952 10.3025 10.5648 10.1164 9.53392 10.1762L11.7968 4.98709C11.9256 4.69219 11.9945 4.3746 11.9993 4.05283C12.0042 3.73106 11.945 3.41153 11.8252 3.11286C11.7054 2.81419 11.5273 2.54235 11.3014 2.31317C11.0755 2.08398 10.8063 1.90204 10.5094 1.77794C10.0163 1.566 9.46487 1.53202 8.9495 1.68181C8.43414 1.83161 7.98686 2.15586 7.68421 2.59909C5.98535 5.13966 2.86021 10.2928 2.66649 14.0848C2.39735 19.3134 2.66649 23.3162 2.66649 23.3162" stroke="#787878" stroke-width="1.25" stroke-linecap="round" stroke-linejoin="round"/>
<path d="M8.77458 15.312C8.51677 15.5236 8.31101 15.7915 8.17317 16.0952C8.03534 16.3989 7.96911 16.7302 7.97959 17.0635C7.99008 17.3968 8.077 17.7233 8.23366 18.0177C8.39031 18.3121 8.6125 18.5666 8.8831 18.7616C9.15369 18.9565 9.46546 19.0866 9.79433 19.142C10.1232 19.1973 10.4604 19.1764 10.7799 19.0808C11.0994 18.9852 11.3926 18.8174 11.637 18.5905C11.8814 18.3636 12.0704 18.0836 12.1894 17.772C12.316 17.436 12.5238 17.1365 12.7942 16.9002C13.0646 16.6639 13.3892 16.4982 13.7392 16.4177C13.3816 16.4524 13.0211 16.398 12.6897 16.2596C12.3583 16.1211 12.0663 15.9027 11.8397 15.624C11.6591 15.4024 11.4365 15.2185 11.1848 15.0828C10.9331 14.9472 10.6571 14.8624 10.3726 14.8335C10.0882 14.8045 9.80077 14.8318 9.52686 14.914C9.25296 14.9961 8.9962 15.1313 8.77458 15.312Z" stroke="#787878" stroke-width="1.25" stroke-linecap="round" stroke-linejoin="round"/>
<path d="M9.54961 10.1806C9.11075 10.232 8.06846 10.4257 7.40675 10.7857M2.56903 15.9286C1.03475 12.4983 1.10332 6.86341 1.26618 3.9457C1.30192 3.41072 1.52231 2.90475 1.88969 2.51423C2.25708 2.12371 2.74866 1.87286 3.28046 1.80455C3.59916 1.76006 3.92352 1.77941 4.23467 1.8615C4.54581 1.94358 4.83751 2.08676 5.09278 2.28268C5.34805 2.4786 5.56179 2.72335 5.72155 3.00268C5.8813 3.28201 5.98388 3.59033 6.02332 3.9097V5.27941" stroke="#787878" stroke-width="1.25" stroke-linecap="round" stroke-linejoin="round"/>
</svg>
