<svg width="25" height="25" viewBox="0 0 25 25" fill="none" xmlns="http://www.w3.org/2000/svg">
<path d="M11.507 21.5H10.105C6.52 21.5 4.728 21.5 3.614 20.365C2.5 19.23 2.5 17.403 2.5 13.75C2.5 10.097 2.5 8.27 3.614 7.135C4.728 6 6.52 6 10.105 6H13.908C17.493 6 19.286 6 20.4 7.135C21.257 8.008 21.454 9.291 21.5 11.5" stroke="#3666AA" stroke-width="1.5" stroke-linecap="round" stroke-linejoin="round"/>
<path d="M19.35 19.35L18 18.45V16.2M16.5 6L16.4 5.69C15.906 4.15 15.658 3.38 15.069 2.94C14.479 2.5 13.697 2.5 12.132 2.5H11.868C10.303 2.5 9.52 2.5 8.931 2.94C8.341 3.38 8.094 4.15 7.599 5.69L7.5 6M13.5 18C13.5 18.5909 13.6164 19.1761 13.8425 19.7221C14.0687 20.268 14.4002 20.7641 14.818 21.182C15.2359 21.5998 15.732 21.9313 16.2779 22.1575C16.8239 22.3836 17.4091 22.5 18 22.5C18.5909 22.5 19.1761 22.3836 19.7221 22.1575C20.268 21.9313 20.7641 21.5998 21.182 21.182C21.5998 20.7641 21.9313 20.268 22.1575 19.7221C22.3836 19.1761 22.5 18.5909 22.5 18C22.5 16.8065 22.0259 15.6619 21.182 14.818C20.3381 13.9741 19.1935 13.5 18 13.5C16.8065 13.5 15.6619 13.9741 14.818 14.818C13.9741 15.6619 13.5 16.8065 13.5 18Z" stroke="#3666AA" stroke-width="1.5" stroke-linecap="round" stroke-linejoin="round"/>
</svg>
