<svg width="25" height="25" viewBox="0 0 25 25" fill="none" xmlns="http://www.w3.org/2000/svg">
<g clip-path="url(#clip0_1627_56431)">
<path d="M15.8534 23.3162C16.673 23.0699 17.4361 22.6645 18.0991 22.1231C19.0214 21.3688 19.6899 20.4105 20.0842 19.3631C20.2146 19.0171 20.2547 18.6436 20.2008 18.2778C20.1468 17.912 20.0006 17.566 19.7759 17.2723C19.5513 16.9787 19.2555 16.7471 18.9165 16.5994C18.5775 16.4518 18.2065 16.3928 17.8385 16.4282C18.1539 16.3562 18.4556 16.2122 18.7231 15.9945C19.6556 15.2351 19.7276 13.5054 18.9682 12.5728C18.3172 11.7712 17.4849 11.1359 16.5401 10.7192C15.5952 10.3025 14.5648 10.1164 13.5339 10.1762L15.7968 4.98709C15.9256 4.69219 15.9945 4.3746 15.9993 4.05283C16.0042 3.73106 15.945 3.41153 15.8252 3.11286C15.7054 2.81419 15.5273 2.54235 15.3014 2.31317C15.0755 2.08398 14.8063 1.90204 14.5094 1.77794C14.0163 1.566 13.4649 1.53202 12.9495 1.68181C12.4341 1.83161 11.9869 2.15586 11.6842 2.59909C9.98535 5.13966 6.86021 10.2928 6.66649 14.0848C6.39735 19.3134 6.66649 23.3162 6.66649 23.3162" stroke="#787878" stroke-width="1.25" stroke-linecap="round" stroke-linejoin="round"/>
<path d="M12.7746 15.312C12.5168 15.5236 12.311 15.7915 12.1732 16.0952C12.0353 16.3989 11.9691 16.7302 11.9796 17.0635C11.9901 17.3968 12.077 17.7233 12.2337 18.0177C12.3903 18.3121 12.6125 18.5666 12.8831 18.7616C13.1537 18.9565 13.4655 19.0866 13.7943 19.142C14.1232 19.1973 14.4604 19.1764 14.7799 19.0808C15.0994 18.9852 15.3926 18.8174 15.637 18.5905C15.8814 18.3636 16.0704 18.0836 16.1894 17.772C16.316 17.436 16.5238 17.1365 16.7942 16.9002C17.0646 16.6639 17.3892 16.4982 17.7392 16.4177C17.3816 16.4524 17.0211 16.398 16.6897 16.2596C16.3583 16.1211 16.0663 15.9027 15.8397 15.624C15.6591 15.4024 15.4365 15.2185 15.1848 15.0828C14.9331 14.9472 14.6571 14.8624 14.3726 14.8335C14.0882 14.8045 13.8008 14.8318 13.5269 14.914C13.253 14.9961 12.9962 15.1313 12.7746 15.312Z" stroke="#787878" stroke-width="1.25" stroke-linecap="round" stroke-linejoin="round"/>
<path d="M13.5496 10.1806C13.1107 10.232 12.0685 10.4257 11.4067 10.7857M6.56903 15.9286C5.03475 12.4983 5.10332 6.86341 5.26618 3.9457C5.30192 3.41072 5.52231 2.90475 5.88969 2.51423C6.25708 2.12371 6.74866 1.87286 7.28046 1.80455C7.59916 1.76006 7.92352 1.77941 8.23467 1.8615C8.54581 1.94358 8.83751 2.08676 9.09278 2.28268C9.34805 2.4786 9.56179 2.72335 9.72155 3.00268C9.8813 3.28201 9.98388 3.59033 10.0233 3.9097V5.27941" stroke="#787878" stroke-width="1.25" stroke-linecap="round" stroke-linejoin="round"/>
</g>
<defs>
<clipPath id="clip0_1627_56431">
<rect width="24" height="24" fill="white" transform="translate(0.5 0.5)"/>
</clipPath>
</defs>
</svg>
