<svg width="13" height="13" viewBox="0 0 13 13" fill="none" xmlns="http://www.w3.org/2000/svg">
<path d="M6.13633 2.34338C6.09122 2.29564 6.05595 2.23949 6.03255 2.17813C6.00914 2.11676 5.99805 2.05139 5.9999 1.98574C6.00176 1.92009 6.01653 1.85544 6.04337 1.7955C6.07021 1.73556 6.10859 1.68149 6.15633 1.63638C6.20406 1.59127 6.26022 1.55601 6.32158 1.5326C6.38295 1.50919 6.44832 1.4981 6.51397 1.49996C6.57962 1.50181 6.64426 1.51658 6.70421 1.54342C6.76415 1.57026 6.81822 1.60864 6.86333 1.65638L11.1133 6.15638C11.2011 6.24921 11.25 6.37212 11.25 6.49988C11.25 6.62764 11.2011 6.75055 11.1133 6.84338L6.86333 11.3439C6.81852 11.3927 6.76446 11.4321 6.7043 11.4598C6.64413 11.4875 6.57906 11.503 6.51287 11.5053C6.44667 11.5077 6.38066 11.4968 6.31869 11.4735C6.25671 11.4501 6.19999 11.4146 6.15183 11.3692C6.10367 11.3237 6.06503 11.2691 6.03814 11.2086C6.01126 11.148 5.99667 11.0827 5.99523 11.0165C5.99379 10.9503 6.00552 10.8844 6.02974 10.8228C6.05396 10.7611 6.09019 10.7049 6.13633 10.6574L10.0623 6.49988L6.13633 2.34338Z" fill="#0A3353"/>
</svg>
