<svg width="12" height="20" viewBox="0 0 12 20" fill="none" xmlns="http://www.w3.org/2000/svg">
<path d="M10.9734 18.3206C11.0637 18.416 11.1342 18.5283 11.181 18.6511C11.2278 18.7738 11.25 18.9045 11.2463 19.0358C11.2426 19.1671 11.213 19.2964 11.1594 19.4163C11.1057 19.5362 11.0289 19.6443 10.9334 19.7346C10.838 19.8248 10.7257 19.8953 10.6029 19.9421C10.4802 19.9889 10.3495 20.0111 10.2182 20.0074C10.0869 20.0037 9.95756 19.9742 9.83768 19.9205C9.71779 19.8668 9.60965 19.79 9.51944 19.6946L1.01944 10.6946C0.8439 10.5089 0.746094 10.2631 0.746094 10.0076C0.746094 9.75205 0.8439 9.50623 1.01944 9.32056L9.51944 0.319563C9.60906 0.222002 9.71717 0.143219 9.8375 0.0877953C9.95783 0.0323715 10.088 0.00140762 10.2204 -0.0032959C10.3528 -0.00799942 10.4848 0.0136509 10.6087 0.0603962C10.7327 0.107141 10.8461 0.178051 10.9424 0.269005C11.0388 0.359959 11.116 0.469147 11.1698 0.590223C11.2236 0.7113 11.2527 0.841854 11.2556 0.9743C11.2585 1.10675 11.2351 1.23845 11.1866 1.36175C11.1382 1.48505 11.0657 1.5975 10.9734 1.69256L3.12144 10.0076L10.9734 18.3206Z" fill="#3666AA"/>
</svg>
