<svg width="12" height="20" viewBox="0 0 12 20" fill="none" xmlns="http://www.w3.org/2000/svg">
<path d="M1.02852 18.3206C0.938298 18.416 0.867769 18.5283 0.820953 18.6511C0.774137 18.7738 0.751953 18.9045 0.755668 19.0358C0.759382 19.1671 0.788922 19.2964 0.842601 19.4163C0.896279 19.5362 0.973045 19.6443 1.06852 19.7346C1.16399 19.8248 1.27629 19.8953 1.39902 19.9421C1.52175 19.9889 1.6525 20.0111 1.7838 20.0074C1.9151 20.0037 2.04439 19.9742 2.16427 19.9205C2.28416 19.8668 2.3923 19.79 2.48252 19.6946L10.9825 10.6946C11.1581 10.5089 11.2559 10.2631 11.2559 10.0076C11.2559 9.75205 11.1581 9.50623 10.9825 9.32056L2.48252 0.319563C2.39289 0.222002 2.28478 0.143219 2.16445 0.0877953C2.04413 0.0323715 1.91399 0.00140762 1.78159 -0.0032959C1.6492 -0.00799942 1.51719 0.0136509 1.39323 0.0603962C1.26927 0.107141 1.15584 0.178051 1.05952 0.269005C0.9632 0.359959 0.885911 0.469147 0.832145 0.590223C0.778378 0.7113 0.749207 0.841854 0.746322 0.9743C0.743437 1.10675 0.766898 1.23845 0.815342 1.36175C0.863786 1.48505 0.936247 1.5975 1.02852 1.69256L8.88052 10.0076L1.02852 18.3206Z" fill="#3666AA"/>
</svg>
