<svg width="15" height="16" viewBox="0 0 15 16" fill="none" xmlns="http://www.w3.org/2000/svg">
<path d="M10.8656 13.625C10.169 13.625 9.57812 13.3825 9.09312 12.8975C8.60812 12.4117 8.36563 11.8208 8.36563 11.125C8.36563 10.4292 8.60812 9.83854 9.09312 9.35312C9.57812 8.8677 10.1688 8.62499 10.865 8.62499C11.5617 8.62499 12.1525 8.8677 12.6375 9.35312C13.1229 9.83812 13.3656 10.4287 13.3656 11.125C13.3656 11.8212 13.1229 12.4121 12.6375 12.8975C12.1521 13.3829 11.5615 13.6254 10.8656 13.625ZM11.9 12.5012L12.2413 12.16L11.1056 11.0237V9.32249H10.625V11.2262L11.9 12.5012ZM3.50937 13C3.23021 13 2.99208 12.9017 2.795 12.705C2.59833 12.5083 2.5 12.2702 2.5 11.9906V4.00937C2.5 3.7302 2.59833 3.49208 2.795 3.29499C2.99167 3.09833 3.23 2.99999 3.51 2.99999H6.4075C6.46583 2.75583 6.59562 2.55062 6.79688 2.38437C6.99813 2.2177 7.2325 2.13437 7.5 2.13437C7.7725 2.13437 8.00875 2.2177 8.20875 2.38437C8.40875 2.5502 8.53792 2.75541 8.59625 2.99999H11.49C11.77 2.99999 12.0083 3.09833 12.205 3.29499C12.4017 3.49166 12.5 3.72999 12.5 4.00999V7.77187C12.3925 7.71645 12.2908 7.66791 12.195 7.62624C12.0992 7.58458 11.9925 7.54729 11.875 7.51437V4.00937C11.875 3.91354 11.835 3.82541 11.755 3.74499C11.675 3.66458 11.5867 3.62458 11.49 3.62499H10V5.01874H5V3.62499H3.51C3.41375 3.62499 3.32542 3.66499 3.245 3.74499C3.16458 3.82499 3.12458 3.91333 3.125 4.00999V11.9906C3.125 12.1027 3.16104 12.1948 3.23312 12.2669C3.30521 12.339 3.3975 12.375 3.51 12.375H7.33875C7.37208 12.4917 7.41146 12.6002 7.45687 12.7006C7.50271 12.8006 7.56104 12.9004 7.63188 13H3.50937ZM7.5 3.76874C7.645 3.76874 7.76542 3.72104 7.86125 3.62562C7.95708 3.52979 8.005 3.40937 8.005 3.26437C8.005 3.11937 7.95708 2.99895 7.86125 2.90312C7.76542 2.80729 7.645 2.75937 7.5 2.75937C7.355 2.75937 7.23458 2.80729 7.13875 2.90312C7.04292 2.99895 6.995 3.11937 6.995 3.26437C6.995 3.40937 7.04292 3.52979 7.13875 3.62562C7.23458 3.72145 7.355 3.76874 7.5 3.76874Z" fill="#FF9E02"/>
</svg>
