<svg width="15" height="16" viewBox="0 0 15 16" fill="none" xmlns="http://www.w3.org/2000/svg">
<path d="M7.5 14.5625C3.88125 14.5625 0.9375 11.6187 0.9375 8C0.9375 4.38125 3.88125 1.4375 7.5 1.4375C11.1187 1.4375 14.0625 4.38125 14.0625 8C14.0625 11.6187 11.1187 14.5625 7.5 14.5625ZM7.5 2.375C4.39688 2.375 1.875 4.89688 1.875 8C1.875 11.1031 4.39688 13.625 7.5 13.625C10.6031 13.625 13.125 11.1031 13.125 8C13.125 4.89688 10.6031 2.375 7.5 2.375Z" fill="#FF9E02"/>
<path d="M9.37501 10.3438C9.29063 10.3438 9.20626 10.325 9.13126 10.2781L6.78751 8.87188C6.71841 8.82981 6.66137 8.77057 6.62194 8.69993C6.58251 8.62929 6.56204 8.54965 6.56251 8.46875V4.71875C6.56251 4.45625 6.76876 4.25 7.03126 4.25C7.29376 4.25 7.50001 4.45625 7.50001 4.71875V8.20625L9.61876 9.47187C9.70603 9.52536 9.77348 9.60584 9.81089 9.70112C9.8483 9.79639 9.85363 9.90127 9.82607 9.99984C9.79851 10.0984 9.73957 10.1853 9.65817 10.2474C9.57677 10.3094 9.47736 10.3433 9.37501 10.3438Z" fill="#FF9E02"/>
</svg>
