<svg width="15" height="16" viewBox="0 0 15 16" fill="none" xmlns="http://www.w3.org/2000/svg">
<g clip-path="url(#clip0_1075_24326)">
<path fill-rule="evenodd" clip-rule="evenodd" d="M7.66318 0.501882C6.57197 0.478135 5.48872 0.692847 4.48906 1.13103C3.4894 1.56921 2.59743 2.2203 1.87542 3.03885C1.15341 3.85739 0.618756 4.82366 0.308791 5.8702C-0.00117442 6.91674 -0.0789826 8.01832 0.0807985 9.09803C0.24058 10.1777 0.634099 11.2096 1.23388 12.1215C1.83367 13.0334 2.62526 13.8034 3.5534 14.3778C4.48154 14.9521 5.52385 15.3169 6.60757 15.4468C7.69129 15.5767 8.7903 15.4685 9.82787 15.1297C10.0052 15.0718 10.1522 14.9458 10.2365 14.7795C10.3209 14.6131 10.3358 14.4201 10.2779 14.2428C10.2199 14.0655 10.094 13.9185 9.92763 13.8341C9.76131 13.7498 9.56828 13.7349 9.391 13.7928C8.26347 14.161 7.053 14.1921 5.90805 13.8823C4.7631 13.5726 3.73344 12.9354 2.94534 12.049C2.15725 11.1625 1.64498 10.0654 1.47136 8.89203C1.29775 7.71869 1.47033 6.52019 1.96795 5.44351C2.46557 4.36683 3.26659 3.45878 4.27277 2.83072C5.27896 2.20266 6.44656 1.8819 7.6324 1.90777C8.81823 1.93364 9.97073 2.30502 10.9486 2.97637C11.9264 3.64771 12.6871 4.58984 13.1372 5.68719C13.208 5.85975 13.3444 5.99714 13.5164 6.06914C13.6016 6.10479 13.693 6.12331 13.7853 6.12364C13.8776 6.12398 13.9691 6.10613 14.0546 6.0711C14.14 6.03608 14.2177 5.98456 14.2833 5.91951C14.3488 5.85445 14.4009 5.77712 14.4365 5.69194C14.4722 5.60676 14.4907 5.51538 14.491 5.42304C14.4914 5.3307 14.4735 5.2392 14.4385 5.15376C13.8845 3.80309 12.9483 2.64349 11.7447 1.81716C10.5412 0.99084 9.12272 0.533725 7.66318 0.501882ZM8.20225 4.01563C8.20225 3.82915 8.12817 3.65031 7.9963 3.51845C7.86444 3.38659 7.6856 3.31251 7.49912 3.31251C7.31264 3.31251 7.1338 3.38659 7.00194 3.51845C6.87007 3.65031 6.79599 3.82915 6.79599 4.01563V7.70938L4.88912 9.61532C4.82004 9.67969 4.76463 9.75732 4.7262 9.84357C4.68777 9.92982 4.66711 10.0229 4.66544 10.1173C4.66377 10.2117 4.68114 10.3055 4.71651 10.3931C4.75187 10.4806 4.8045 10.5602 4.87127 10.6269C4.93804 10.6937 5.01757 10.7463 5.10512 10.7817C5.19267 10.817 5.28645 10.8344 5.38086 10.8327C5.47527 10.8311 5.56837 10.8104 5.65462 10.772C5.74087 10.7336 5.8185 10.6782 5.88287 10.6091L7.996 8.49688L8.20225 8.29063V4.01563ZM14.0616 14.5625C14.0616 14.8111 13.9628 15.0496 13.787 15.2254C13.6112 15.4012 13.3728 15.5 13.1241 15.5C12.8755 15.5 12.637 15.4012 12.4612 15.2254C12.2854 15.0496 12.1866 14.8111 12.1866 14.5625C12.1866 14.3139 12.2854 14.0754 12.4612 13.8996C12.637 13.7238 12.8755 13.625 13.1241 13.625C13.3728 13.625 13.6112 13.7238 13.787 13.8996C13.9628 14.0754 14.0616 14.3139 14.0616 14.5625ZM13.8272 8.70313C13.8272 8.51665 13.7532 8.33781 13.6213 8.20595C13.4894 8.07409 13.3106 8.00001 13.1241 8.00001C12.9376 8.00001 12.7588 8.07409 12.6269 8.20595C12.4951 8.33781 12.421 8.51665 12.421 8.70313V11.9844C12.421 12.1709 12.4951 12.3497 12.6269 12.4816C12.7588 12.6134 12.9376 12.6875 13.1241 12.6875C13.3106 12.6875 13.4894 12.6134 13.6213 12.4816C13.7532 12.3497 13.8272 12.1709 13.8272 11.9844V8.70313Z" fill="#EA0000" fill-opacity="0.7"/>
</g>
<defs>
<clipPath id="clip0_1075_24326">
<rect width="15" height="15" fill="white" transform="translate(0 0.5)"/>
</clipPath>
</defs>
</svg>
