<svg width="18" height="18" viewBox="0 0 18 18" fill="none" xmlns="http://www.w3.org/2000/svg">
<path d="M5.00391 10.4846C5.00382 10.6752 5.06088 10.8613 5.16771 11.0191C5.27454 11.1769 5.42622 11.299 5.60316 11.3696L7.07039 11.9568C7.27586 12.0395 7.44617 12.1911 7.55209 12.3856C7.65802 12.5801 7.69297 12.8054 7.65094 13.0229C7.60891 13.2403 7.49252 13.4364 7.32175 13.5774C7.15097 13.7185 6.93644 13.7957 6.71496 13.7958H5.27048M6.33678 14.8621V13.7958M6.33678 6.33174C6.33678 7.74574 6.89848 9.10183 7.89833 10.1017C8.89818 11.1015 10.2543 11.6632 11.6683 11.6632C13.0823 11.6632 14.4383 11.1015 15.4382 10.1017C16.438 9.10183 16.9997 7.74574 16.9997 6.33174C16.9997 4.91774 16.438 3.56165 15.4382 2.5618C14.4383 1.56195 13.0823 1.00024 11.6683 1.00024C10.2543 1.00024 8.89818 1.56195 7.89833 2.5618C6.89848 3.56165 6.33678 4.91774 6.33678 6.33174Z" stroke="black" stroke-linecap="round" stroke-linejoin="round"/>
<path d="M4.22543 6.77031C3.4255 7.11428 2.72199 7.64894 2.17639 8.32756C1.63078 9.00618 1.2597 9.80811 1.09557 10.6633C0.931439 11.5184 0.979256 12.4007 1.23484 13.2331C1.49043 14.0655 1.946 14.8227 2.56175 15.4383C3.17749 16.054 3.93466 16.5095 4.76709 16.765C5.59951 17.0205 6.48184 17.0683 7.33696 16.904C8.19209 16.7398 8.99398 16.3686 9.67254 15.823C10.3511 15.2773 10.8857 14.5737 11.2296 13.7738M12.7338 4.19911H11.2886C11.0671 4.19927 10.8526 4.27648 10.6818 4.41751C10.511 4.55854 10.3946 4.7546 10.3526 4.97206C10.3106 5.18952 10.3455 5.41483 10.4514 5.60934C10.5574 5.80385 10.7277 5.95545 10.9331 6.03812L12.4004 6.6253C12.6058 6.70797 12.7762 6.85957 12.8821 7.05408C12.988 7.24859 13.023 7.4739 12.9809 7.69136C12.9389 7.90882 12.8225 8.10488 12.6517 8.24591C12.481 8.38694 12.2664 8.46415 12.0449 8.46431H10.6012M11.6675 4.19911V3.13281M11.6675 9.53061V8.46431" stroke="black" stroke-linecap="round" stroke-linejoin="round"/>
</svg>
