<svg width="18" height="19" viewBox="0 0 18 19" fill="none" xmlns="http://www.w3.org/2000/svg">
<path d="M12.375 3.5H6C5.20435 3.5 4.44129 3.81607 3.87868 4.37868C3.31607 4.94129 3 5.70435 3 6.5V12.875C3 13.6706 3.31607 14.4337 3.87868 14.9963C4.44129 15.5589 5.20435 15.875 6 15.875H11.1323C11.5263 15.875 11.9165 15.7974 12.2806 15.6466C12.6446 15.4958 12.9754 15.2747 13.254 14.996L14.496 13.754C14.7747 13.4754 14.9958 13.1446 15.1466 12.7806C15.2974 12.4165 15.375 12.0263 15.375 11.6323V6.5C15.375 5.70435 15.0589 4.94129 14.4963 4.37868C13.9337 3.81607 13.1706 3.5 12.375 3.5Z" stroke="black" stroke-linecap="round" stroke-linejoin="round"/>
<path d="M15.375 11H12.75C12.1533 11 11.581 11.2371 11.159 11.659C10.7371 12.081 10.5 12.6533 10.5 13.25V15.875M6 6.5H11.625M6 9.5H9.75" stroke="black" stroke-linecap="round" stroke-linejoin="round"/>
</svg>
