<svg width="18" height="22" viewBox="0 0 18 22" fill="none" xmlns="http://www.w3.org/2000/svg">
<path d="M13 5H5M7 9H5M1 17.646V7.054C1 4.2 1 2.774 1.879 1.887C2.757 1 4.172 1 7 1H11C13.828 1 15.243 1 16.121 1.887C17 2.773 17 4.2 17 7.054V17.646C17 19.157 17 19.913 16.538 20.211C15.783 20.697 14.616 19.677 14.029 19.307C13.544 19.001 13.302 18.849 13.032 18.84C12.742 18.83 12.495 18.977 11.971 19.307L10.06 20.512C9.544 20.837 9.287 21 9 21C8.713 21 8.456 20.837 7.94 20.512L6.03 19.307C5.544 19.001 5.302 18.849 5.033 18.84C4.742 18.83 4.495 18.977 3.971 19.307C3.384 19.677 2.217 20.697 1.461 20.211C1 19.913 1 19.158 1 17.646Z" stroke="black" stroke-linecap="round" stroke-linejoin="round"/>
<path d="M11.5 8.875C10.672 8.875 10 9.463 10 10.188C10 10.912 10.672 11.5 11.5 11.5C12.328 11.5 13 12.088 13 12.813C13 13.537 12.328 14.125 11.5 14.125M11.5 8.875C12.153 8.875 12.709 9.24 12.915 9.75M11.5 8.875V8M11.5 14.125C10.847 14.125 10.291 13.76 10.085 13.25M11.5 14.125V15" stroke="black" stroke-linecap="round" stroke-linejoin="round"/>
</svg>
