<svg width="15" height="15" viewBox="0 0 15 15" fill="none" xmlns="http://www.w3.org/2000/svg">
<path d="M4 3.39384V1.85384C4.00009 1.60521 4.09892 1.3668 4.27475 1.19102C4.45059 1.01525 4.68904 0.916504 4.93767 0.916504H13.0623C13.311 0.916504 13.5495 1.01529 13.7254 1.19114C13.9012 1.36699 14 1.60549 14 1.85417V9.97917C13.9999 10.2277 13.9011 10.4661 13.7254 10.6419C13.5496 10.8176 13.3112 10.9164 13.0627 10.9165H11.5053" stroke="black" stroke-opacity="0.35" stroke-linecap="round" stroke-linejoin="round"/>
<path d="M10.3947 3.58325H2.26903C2.02046 3.58343 1.78213 3.6823 1.60643 3.85812C1.43073 4.03395 1.33203 4.27235 1.33203 4.52092V12.6456C1.33203 12.8943 1.43082 13.1328 1.60667 13.3086C1.78251 13.4845 2.02101 13.5833 2.2697 13.5833H10.3947C10.6433 13.5832 10.8816 13.4844 11.0574 13.3086C11.2332 13.1329 11.3319 12.8945 11.332 12.6459V4.52025C11.3319 4.27174 11.233 4.03346 11.0573 3.85777C10.8815 3.68208 10.6432 3.58334 10.3947 3.58325Z" stroke="black" stroke-opacity="0.35" stroke-linejoin="round"/>
</svg>
