<svg width="15" height="18" viewBox="0 0 15 18" fill="none" xmlns="http://www.w3.org/2000/svg">
<path d="M3 8.25C3 6.129 3 5.06775 3.65925 4.40925C4.31775 3.75 5.379 3.75 7.5 3.75H9.75C11.871 3.75 12.9323 3.75 13.5908 4.40925C14.25 5.06775 14.25 6.129 14.25 8.25V12C14.25 14.121 14.25 15.1823 13.5908 15.8408C12.9323 16.5 11.871 16.5 9.75 16.5H7.5C5.379 16.5 4.31775 16.5 3.65925 15.8408C3 15.1823 3 14.121 3 12V8.25Z" stroke="#A9A8A8" stroke-width="1.5"/>
<path d="M3 14.25C2.40326 14.25 1.83097 14.0129 1.40901 13.591C0.987053 13.169 0.75 12.5967 0.75 12V7.5C0.75 4.67175 0.75 3.25725 1.629 2.379C2.508 1.50075 3.92175 1.5 6.75 1.5H9.75C10.3467 1.5 10.919 1.73705 11.341 2.15901C11.7629 2.58097 12 3.15326 12 3.75" stroke="#A9A8A8" stroke-width="1.5"/>
</svg>
