<svg width="18" height="16" viewBox="0 0 18 16" fill="none" xmlns="http://www.w3.org/2000/svg">
<path d="M11.4618 13.94C12.1617 14.1461 12.8868 14.2505 13.6156 14.25C14.7876 14.2528 15.9446 13.9813 16.9967 13.4566C16.9989 13.4089 17 13.3608 17 13.3125C17.0001 12.5774 16.7681 11.8616 16.3382 11.2703C15.9083 10.6789 15.3031 10.2431 14.6114 10.0268C13.9196 9.81056 13.1779 9.82518 12.495 10.0686C11.812 10.312 11.2239 10.7713 10.8169 11.3792M11.4618 13.94V13.9375C11.4618 13.01 11.228 12.1375 10.8169 11.3792M11.4618 13.94V14.0283C9.88311 14.9949 8.07388 15.5039 6.2305 15.5C4.31798 15.5 2.52854 14.9625 1.00082 14.0283L1 13.9375C0.999371 12.7579 1.3853 11.6116 2.09696 10.6794C2.80861 9.74715 3.8055 9.08201 4.93046 8.78882C6.05542 8.49563 7.24446 8.59106 8.31012 9.06006C9.37578 9.52907 10.2583 10.345 10.8169 11.3792M9.00041 3.3125C9.00041 4.05842 8.70867 4.77379 8.18936 5.30123C7.67006 5.82868 6.96573 6.12499 6.23132 6.12499C5.49691 6.12499 4.79259 5.82868 4.27328 5.30123C3.75398 4.77379 3.46223 4.05842 3.46223 3.3125C3.46223 2.56658 3.75398 1.85121 4.27328 1.32376C4.79259 0.796316 5.49691 0.5 6.23132 0.5C6.96573 0.5 7.67006 0.796316 8.18936 1.32376C8.70867 1.85121 9.00041 2.56658 9.00041 3.3125ZM15.7693 5.18749C15.7693 5.76765 15.5424 6.32405 15.1385 6.73429C14.7346 7.14452 14.1868 7.37499 13.6156 7.37499C13.0444 7.37499 12.4965 7.14452 12.0926 6.73429C11.6887 6.32405 11.4618 5.76765 11.4618 5.18749C11.4618 4.60733 11.6887 4.05093 12.0926 3.6407C12.4965 3.23046 13.0444 3 13.6156 3C14.1868 3 14.7346 3.23046 15.1385 3.6407C15.5424 4.05093 15.7693 4.60733 15.7693 5.18749Z" stroke="black" stroke-linecap="round" stroke-linejoin="round"/>
</svg>
