<svg width="16" height="16" viewBox="0 0 16 16" fill="none" xmlns="http://www.w3.org/2000/svg">
<path d="M8.08333 15.5005C7.03444 15.5005 6.05028 15.3025 5.13083 14.9064C4.21139 14.5102 3.40806 13.9683 2.72083 13.2805C2.03361 12.5927 1.49167 11.7891 1.095 10.8697C0.698333 9.95024 0.5 8.96608 0.5 7.91719C0.5 6.29496 0.966667 4.83247 1.9 3.52969C2.83333 2.22691 4.06556 1.31858 5.59667 0.804688C5.53889 2.10469 5.73806 3.35497 6.19417 4.55552C6.64972 5.75608 7.33861 6.81719 8.26083 7.73885C9.18305 8.66108 10.2442 9.35024 11.4442 9.80635C12.6442 10.2625 13.8947 10.4616 15.1958 10.4039C14.6847 11.9339 13.7769 13.1658 12.4725 14.0997C11.1681 15.0336 9.705 15.5005 8.08333 15.5005Z" fill="black" fill-opacity="0.2"/>
</svg>
