<svg width="18" height="19" viewBox="0 0 18 19" fill="none" xmlns="http://www.w3.org/2000/svg">
<path d="M8.25 3.5H9.75M9 13.25V13.2575M4.5 4.25C4.5 3.85218 4.65804 3.47064 4.93934 3.18934C5.22064 2.90804 5.60218 2.75 6 2.75H12C12.3978 2.75 12.7794 2.90804 13.0607 3.18934C13.342 3.47064 13.5 3.85218 13.5 4.25V14.75C13.5 15.1478 13.342 15.5294 13.0607 15.8107C12.7794 16.092 12.3978 16.25 12 16.25H6C5.60218 16.25 5.22064 16.092 4.93934 15.8107C4.65804 15.5294 4.5 15.1478 4.5 14.75V4.25Z" stroke="#787878" stroke-linecap="round" stroke-linejoin="round"/>
</svg>
