<svg width="9" height="15" viewBox="0 0 9 15" fill="none" xmlns="http://www.w3.org/2000/svg">
<path d="M4.0348 14.9545V0.40909H4.96662V14.9545H4.0348ZM7.17116 4.77273C7.10298 4.19697 6.82647 3.75 6.34162 3.43182C5.85677 3.11364 5.26207 2.95455 4.55753 2.95455C4.04238 2.95455 3.59162 3.03788 3.20526 3.20455C2.82268 3.37121 2.52344 3.60038 2.30753 3.89205C2.09541 4.18371 1.98935 4.51515 1.98935 4.88636C1.98935 5.19697 2.06321 5.46401 2.21094 5.6875C2.36245 5.9072 2.55563 6.09091 2.79048 6.23864C3.02533 6.38258 3.27154 6.50189 3.52912 6.59659C3.7867 6.6875 4.02344 6.76136 4.23935 6.81818L5.42116 7.13636C5.7242 7.21591 6.06132 7.32576 6.43253 7.46591C6.80753 7.60606 7.16548 7.79735 7.50639 8.03977C7.85109 8.27841 8.13518 8.58523 8.35867 8.96023C8.58215 9.33523 8.69389 9.79545 8.69389 10.3409C8.69389 10.9697 8.52912 11.5379 8.19957 12.0455C7.87382 12.553 7.39654 12.9564 6.76776 13.2557C6.14276 13.5549 5.38329 13.7045 4.48935 13.7045C3.65601 13.7045 2.93442 13.5701 2.32457 13.3011C1.71851 13.0322 1.24124 12.6572 0.892756 12.1761C0.548059 11.6951 0.352983 11.1364 0.307528 10.5H1.76207C1.79995 10.9394 1.94768 11.303 2.20526 11.5909C2.46662 11.875 2.79616 12.0871 3.19389 12.2273C3.59541 12.3636 4.02723 12.4318 4.48935 12.4318C5.02723 12.4318 5.51018 12.3447 5.93821 12.1705C6.36624 11.9924 6.70526 11.7462 6.95526 11.4318C7.20526 11.1136 7.33026 10.7424 7.33026 10.3182C7.33026 9.93182 7.2223 9.61742 7.00639 9.375C6.79048 9.13258 6.50639 8.93561 6.15412 8.78409C5.80185 8.63258 5.42116 8.5 5.01207 8.38636L3.58026 7.97727C2.67116 7.71591 1.95147 7.3428 1.42116 6.85795C0.890862 6.37311 0.62571 5.73864 0.62571 4.95455C0.62571 4.30303 0.801847 3.73485 1.15412 3.25C1.51018 2.76136 1.98745 2.38258 2.58594 2.11364C3.18821 1.84091 3.86056 1.70455 4.60298 1.70455C5.35298 1.70455 6.01965 1.83901 6.60298 2.10795C7.18632 2.37311 7.64844 2.73674 7.98935 3.19886C8.33404 3.66098 8.51586 4.18561 8.5348 4.77273H7.17116Z" fill="black"/>
</svg>
