<svg width="30" height="25" viewBox="0 0 30 25" fill="none" xmlns="http://www.w3.org/2000/svg">
<path d="M25.2096 0.833984H4.79297C3.63265 0.833984 2.51985 1.29492 1.69938 2.11539C0.878905 2.93586 0.417969 4.04866 0.417969 5.20898V19.7923C0.417969 20.9526 0.878905 22.0654 1.69938 22.8859C2.51985 23.7064 3.63265 24.1673 4.79297 24.1673H25.2096C26.37 24.1673 27.4828 23.7064 28.3032 22.8859C29.1237 22.0654 29.5846 20.9526 29.5846 19.7923V5.20898C29.5846 4.04866 29.1237 2.93586 28.3032 2.11539C27.4828 1.29492 26.37 0.833984 25.2096 0.833984ZM25.2096 3.75065L15.7305 10.2694C15.5088 10.3974 15.2573 10.4648 15.0013 10.4648C14.7453 10.4648 14.4938 10.3974 14.2721 10.2694L4.79297 3.75065H25.2096Z" fill="white"/>
</svg>
