<svg width="19" height="14" viewBox="0 0 19 14" fill="none" xmlns="http://www.w3.org/2000/svg">
<path d="M11.3333 7.22917C10.6535 7.22917 9.98885 7.02756 9.42356 6.64984C8.85827 6.27213 8.41767 5.73526 8.1575 5.10714C7.89732 4.47902 7.82925 3.78785 7.96188 3.12104C8.09452 2.45423 8.42191 1.84173 8.90265 1.36099C9.3834 0.880243 9.9959 0.552853 10.6627 0.420216C11.3295 0.28758 12.0207 0.355654 12.6488 0.61583C13.2769 0.876006 13.8138 1.3166 14.1915 1.88189C14.5692 2.44719 14.7708 3.11179 14.7708 3.79167C14.7708 4.70335 14.4087 5.57769 13.764 6.22235C13.1194 6.867 12.245 7.22917 11.3333 7.22917ZM11.3333 1.72917C10.9254 1.72917 10.5266 1.85013 10.1875 2.07676C9.84829 2.30339 9.58394 2.62551 9.42783 3.00238C9.27173 3.37925 9.23088 3.79395 9.31046 4.19404C9.39005 4.59413 9.58648 4.96163 9.87493 5.25007C10.1634 5.53852 10.5309 5.73495 10.931 5.81454C11.331 5.89412 11.7457 5.85327 12.1226 5.69717C12.4995 5.54106 12.8216 5.27671 13.0482 4.93753C13.2749 4.59835 13.3958 4.19959 13.3958 3.79167C13.3958 3.24466 13.1785 2.72005 12.7917 2.33326C12.4049 1.94646 11.8803 1.72917 11.3333 1.72917ZM17.75 13.6458C17.5684 13.6435 17.3949 13.5703 17.2665 13.4418C17.1381 13.3134 17.0649 13.1399 17.0625 12.9583C17.0625 11.1708 16.0908 9.97917 11.3333 9.97917C6.57583 9.97917 5.60417 11.1708 5.60417 12.9583C5.60417 13.1407 5.53173 13.3155 5.4028 13.4445C5.27387 13.5734 5.099 13.6458 4.91667 13.6458C4.73433 13.6458 4.55946 13.5734 4.43053 13.4445C4.3016 13.3155 4.22917 13.1407 4.22917 12.9583C4.22917 8.60417 9.20667 8.60417 11.3333 8.60417C13.46 8.60417 18.4375 8.60417 18.4375 12.9583C18.4351 13.1399 18.3619 13.3134 18.2335 13.4418C18.1051 13.5703 17.9316 13.6435 17.75 13.6458ZM6.12667 7.97167H5.83333C5.10399 7.90116 4.43252 7.54382 3.96665 6.97824C3.50078 6.41266 3.27866 5.68518 3.34917 4.95583C3.41967 4.22649 3.77702 3.55502 4.3426 3.08915C4.90817 2.62328 5.63565 2.40116 6.365 2.47167C6.45852 2.47568 6.55023 2.49876 6.63452 2.53947C6.7188 2.58019 6.79389 2.63768 6.85517 2.70844C6.91645 2.7792 6.96263 2.86172 6.9909 2.95096C7.01916 3.04019 7.0289 3.13426 7.01952 3.22739C7.01015 3.32053 6.98185 3.41077 6.93637 3.49258C6.89089 3.57439 6.82918 3.64605 6.75502 3.70318C6.68087 3.7603 6.59583 3.80168 6.50512 3.82477C6.41441 3.84787 6.31994 3.8522 6.2275 3.8375C6.04856 3.81966 5.86786 3.83806 5.69619 3.89161C5.52452 3.94516 5.3654 4.03275 5.22833 4.14917C5.08912 4.26146 4.97365 4.40035 4.88866 4.55773C4.80368 4.71511 4.75088 4.88783 4.73333 5.06583C4.71438 5.24606 4.73148 5.42826 4.78364 5.60182C4.83581 5.77538 4.92199 5.93682 5.03716 6.07673C5.15234 6.21665 5.29421 6.33225 5.4545 6.41679C5.6148 6.50133 5.79032 6.55313 5.97083 6.56917C6.26924 6.59469 6.56799 6.52402 6.82333 6.3675C6.97893 6.27147 7.1663 6.24118 7.34422 6.2833C7.52215 6.32542 7.67605 6.43649 7.77208 6.59208C7.86811 6.74768 7.8984 6.93505 7.85628 7.11297C7.81417 7.2909 7.70309 7.4448 7.5475 7.54083C7.12235 7.812 6.63082 7.96104 6.12667 7.97167ZM1.25 12.9583C1.0684 12.956 0.89491 12.8828 0.766489 12.7543C0.638069 12.6259 0.564874 12.4524 0.5625 12.2708C0.5625 9.79583 1.2225 8.14583 4.45833 8.14583C4.64067 8.14583 4.81554 8.21827 4.94447 8.3472C5.0734 8.47613 5.14583 8.651 5.14583 8.83333C5.14583 9.01567 5.0734 9.19054 4.94447 9.31947C4.81554 9.4484 4.64067 9.52083 4.45833 9.52083C2.30417 9.52083 1.9375 10.2083 1.9375 12.2708C1.93513 12.4524 1.86193 12.6259 1.73351 12.7543C1.60509 12.8828 1.4316 12.956 1.25 12.9583Z" fill="#FF9E02"/>
</svg>
