<svg width="15" height="16" viewBox="0 0 15 16" fill="none" xmlns="http://www.w3.org/2000/svg">
<path d="M0.176477 7.76603C0.270086 7.83623 0.38775 7.86636 0.503586 7.84982C0.619421 7.83328 0.723938 7.7714 0.794145 7.67781C1.16401 7.18477 1.64361 6.78459 2.19496 6.50896C2.74632 6.23334 3.35429 6.08985 3.97072 6.08985C4.58716 6.08985 5.19513 6.23334 5.74649 6.50896C6.29784 6.78459 6.77744 7.18477 7.1473 7.67781C7.21762 7.77129 7.32219 7.83302 7.43802 7.84942C7.55385 7.86583 7.67145 7.83557 7.76497 7.7653C7.79838 7.74071 7.82788 7.71122 7.85247 7.67781C8.22233 7.18477 8.70194 6.78459 9.25329 6.50896C9.80465 6.23334 10.4126 6.08985 11.0291 6.08985C11.6455 6.08985 12.2535 6.23334 12.8048 6.50896C13.3562 6.78459 13.8358 7.18477 14.2056 7.67781C14.2759 7.7714 14.3805 7.83324 14.4965 7.84971C14.6124 7.86619 14.7301 7.83596 14.8237 7.76567C14.9173 7.69538 14.9791 7.59079 14.9956 7.47491C15.0121 7.35903 14.9818 7.24135 14.9115 7.14776C14.3561 6.40398 13.5982 5.83584 12.7284 5.51127C13.192 5.15617 13.5326 4.66477 13.7025 4.10611C13.8723 3.54746 13.8628 2.94964 13.6753 2.39666C13.4878 1.84368 13.1317 1.36334 12.6571 1.02315C12.1824 0.682953 11.6131 0.5 11.0291 0.5C10.445 0.5 9.8757 0.682953 9.40106 1.02315C8.92641 1.36334 8.5703 1.84368 8.38279 2.39666C8.19527 2.94964 8.18577 3.54746 8.35562 4.10611C8.52547 4.66477 8.86613 5.15617 9.32973 5.51127C8.6339 5.77044 8.00767 6.18742 7.50026 6.72945C6.99264 6.18733 6.36614 5.77034 5.67005 5.51127C6.13365 5.15617 6.47431 4.66477 6.64416 4.10611C6.81401 3.54746 6.8045 2.94964 6.61699 2.39666C6.42947 1.84368 6.07337 1.36334 5.59872 1.02315C5.12407 0.682953 4.55474 0.5 3.97072 0.5C3.38671 0.5 2.81737 0.682953 2.34273 1.02315C1.86808 1.36334 1.51197 1.84368 1.32446 2.39666C1.13694 2.94964 1.12744 3.54746 1.29729 4.10611C1.46714 4.66477 1.8078 5.15617 2.2714 5.51127C1.40142 5.8359 0.643455 6.40432 0.0882384 7.14849C0.0534755 7.19483 0.0281824 7.24757 0.0138033 7.30368C-0.000575871 7.35979 -0.00375947 7.41819 0.00443421 7.47553C0.0126279 7.53288 0.0320384 7.58805 0.0615575 7.63789C0.0910766 7.68773 0.130126 7.73128 0.176477 7.76603ZM11.0298 1.38478C11.4079 1.38478 11.7775 1.49688 12.0919 1.70691C12.4063 1.91694 12.6514 2.21547 12.7961 2.56474C12.9408 2.91401 12.9787 3.29833 12.9049 3.66911C12.8311 4.0399 12.649 4.38048 12.3817 4.6478C12.1143 4.91512 11.7736 5.09717 11.4028 5.17092C11.0319 5.24467 10.6475 5.20682 10.2982 5.06215C9.94882 4.91748 9.65024 4.67248 9.44016 4.35815C9.23009 4.04382 9.11796 3.67426 9.11796 3.29621C9.11796 2.78927 9.31938 2.30309 9.67792 1.94462C10.0365 1.58616 10.5227 1.38478 11.0298 1.38478ZM3.97072 1.38478C4.34885 1.38478 4.71848 1.49688 5.03288 1.70691C5.34728 1.91694 5.59232 2.21547 5.73702 2.56474C5.88173 2.91401 5.91959 3.29833 5.84582 3.66911C5.77205 4.0399 5.58997 4.38048 5.32259 4.6478C5.05522 4.91512 4.71456 5.09717 4.3437 5.17092C3.97284 5.24467 3.58844 5.20682 3.2391 5.06215C2.88976 4.91748 2.59117 4.67248 2.3811 4.35815C2.17102 4.04382 2.05889 3.67426 2.05889 3.29621C2.05889 2.78927 2.26032 2.30309 2.61886 1.94462C2.97739 1.58616 3.46368 1.38478 3.97072 1.38478ZM12.7291 13.157C13.1927 12.8019 13.5334 12.3105 13.7032 11.7519C13.8731 11.1932 13.8636 10.5954 13.6761 10.0424C13.4885 9.48943 13.1324 9.00909 12.6578 8.66889C12.1831 8.3287 11.6138 8.14575 11.0298 8.14575C10.4458 8.14575 9.87644 8.3287 9.40179 8.66889C8.92714 9.00909 8.57104 9.48943 8.38352 10.0424C8.19601 10.5954 8.18651 11.1932 8.35636 11.7519C8.52621 12.3105 8.86687 12.8019 9.33047 13.157C8.63437 13.4161 8.00788 13.8331 7.50026 14.3752C6.99264 13.8331 6.36614 13.4161 5.67005 13.157C6.13365 12.8019 6.47431 12.3105 6.64416 11.7519C6.81401 11.1932 6.8045 10.5954 6.61699 10.0424C6.42947 9.48943 6.07337 9.00909 5.59872 8.66889C5.12407 8.3287 4.55474 8.14575 3.97072 8.14575C3.38671 8.14575 2.81737 8.3287 2.34273 8.66889C1.86808 9.00909 1.51197 9.48943 1.32446 10.0424C1.13694 10.5954 1.12744 11.1932 1.29729 11.7519C1.46714 12.3105 1.8078 12.8019 2.2714 13.157C1.40142 13.4816 0.643455 14.0501 0.0882384 14.7942C0.0534755 14.8406 0.0281824 14.8933 0.0138033 14.9494C-0.000575874 15.0055 -0.00375947 15.0639 0.00443421 15.1213C0.0126279 15.1786 0.0320384 15.2338 0.0615575 15.2836C0.0910766 15.3335 0.130126 15.377 0.176477 15.4118C0.222827 15.4465 0.275571 15.4718 0.331696 15.4862C0.387822 15.5006 0.44623 15.5038 0.503586 15.4956C0.560941 15.4874 0.616122 15.468 0.665976 15.4385C0.71583 15.4089 0.759382 15.3699 0.794145 15.3236C1.16401 14.8305 1.64361 14.4303 2.19496 14.1547C2.74632 13.8791 3.35429 13.7356 3.97072 13.7356C4.58716 13.7356 5.19513 13.8791 5.74649 14.1547C6.29784 14.4303 6.77744 14.8305 7.1473 15.3236C7.21762 15.417 7.32219 15.4788 7.43802 15.4952C7.55385 15.5116 7.67145 15.4813 7.76497 15.411C7.79838 15.3865 7.82788 15.357 7.85247 15.3236C8.22233 14.8305 8.70194 14.4303 9.25329 14.1547C9.80465 13.8791 10.4126 13.7356 11.0291 13.7356C11.6455 13.7356 12.2535 13.8791 12.8048 14.1547C13.3562 14.4303 13.8358 14.8305 14.2056 15.3236C14.2759 15.4171 14.3805 15.479 14.4965 15.4955C14.6124 15.5119 14.7301 15.4817 14.8237 15.4114C14.9173 15.3411 14.9791 15.2365 14.9956 15.1207C15.0121 15.0048 14.9818 14.8871 14.9115 14.7935C14.3563 14.0498 13.5986 13.4817 12.7291 13.157ZM3.97072 9.03052C4.34885 9.03052 4.71848 9.14263 5.03288 9.35266C5.34728 9.56269 5.59232 9.86121 5.73702 10.2105C5.88173 10.5598 5.91959 10.9441 5.84582 11.3149C5.77205 11.6856 5.58997 12.0262 5.32259 12.2935C5.05522 12.5609 4.71456 12.7429 4.3437 12.8167C3.97284 12.8904 3.58844 12.8526 3.2391 12.7079C2.88976 12.5632 2.59117 12.3182 2.3811 12.0039C2.17102 11.6896 2.05889 11.32 2.05889 10.942C2.05889 10.435 2.26032 9.94883 2.61886 9.59037C2.97739 9.2319 3.46368 9.03052 3.97072 9.03052ZM11.0298 9.03052C11.4079 9.03052 11.7775 9.14263 12.0919 9.35266C12.4063 9.56269 12.6514 9.86121 12.7961 10.2105C12.9408 10.5598 12.9787 10.9441 12.9049 11.3149C12.8311 11.6856 12.649 12.0262 12.3817 12.2935C12.1143 12.5609 11.7736 12.7429 11.4028 12.8167C11.0319 12.8904 10.6475 12.8526 10.2982 12.7079C9.94882 12.5632 9.65024 12.3182 9.44016 12.0039C9.23009 11.6896 9.11796 11.32 9.11796 10.942C9.11796 10.435 9.31938 9.94883 9.67792 9.59037C10.0365 9.2319 10.5227 9.03052 11.0298 9.03052Z" fill="#FF9E02"/>
</svg>
