<svg width="18" height="18" viewBox="0 0 18 18" fill="none" xmlns="http://www.w3.org/2000/svg">
<path d="M17.7225 3.5C17.376 2.9045 16.7385 2.5 16 2.5H9V3.5H17.7225ZM0 12.5H18V13.5H0V12.5ZM9 8.5H18V9.5H9V8.5ZM9 6.5H18V7.5H9V6.5ZM0 10.5H18V11.5H0V10.5ZM2 15.5H16C16.7385 15.5 17.376 15.0955 17.7225 14.5H0.2775C0.624 15.0955 1.2615 15.5 2 15.5ZM9 4.5H18V5.5H9V4.5Z" fill="#D22F27"/>
<path d="M0.034 13.8395C0.0423333 13.8862 0.0521667 13.9323 0.0635 13.978C0.0768333 14.028 0.0921667 14.0773 0.1095 14.126C0.154 14.2555 0.208 14.3805 0.276 14.4975L0.2775 14.5H17.7225L17.7235 14.498C17.7913 14.3805 17.8469 14.2563 17.8895 14.1275C17.922 14.0335 17.9474 13.9373 17.9655 13.8395C17.986 13.7295 18 13.6165 18 13.5H0C0 13.6165 0.014 13.729 0.034 13.8395ZM0 11.5H18V12.5H0V11.5ZM0 9.5V10.5H18V9.5H9H0ZM9 7.5H18V8.5H9V7.5ZM9 5.5H18V6.5H9V5.5ZM0.064 4.022C0.0765 3.971 0.094 3.9225 0.11 3.8735C0.0927479 3.92239 0.077403 3.97192 0.064 4.022ZM9 4.5H18C18 4.3835 17.986 4.2705 17.9655 4.16C17.948 4.06205 17.9224 3.96572 17.889 3.872C17.8463 3.74265 17.7905 3.61801 17.7225 3.5H9V4.5Z" fill="#EEEEEE"/>
<path d="M9 2.5H2C1.46957 2.5 0.960859 2.71071 0.585786 3.08579C0.210714 3.46086 0 3.96957 0 4.5L0 9.5H9V2.5Z" fill="#1E50A0"/>
<path d="M1.00049 3.863L1.30949 4.0875L1.19149 4.45L1.49999 4.226L1.80899 4.45L1.69099 4.0875L1.99999 3.863H1.61799L1.49999 3.5L1.38249 3.863H1.00049ZM2.00049 4.863L2.30949 5.0875L2.19149 5.45L2.49999 5.226L2.80899 5.45L2.69099 5.0875L2.99999 4.863H2.61799L2.49999 4.5L2.38249 4.863H2.00049ZM4.00049 4.863L4.30949 5.0875L4.19149 5.45L4.49999 5.226L4.80899 5.45L4.69099 5.0875L4.99999 4.863H4.61799L4.49999 4.5L4.38249 4.863H4.00049ZM6.00049 4.863L6.30949 5.0875L6.19149 5.45L6.49999 5.226L6.80899 5.45L6.69099 5.0875L6.99999 4.863H6.61799L6.49999 4.5L6.38249 4.863H6.00049ZM2.00049 6.863L2.30949 7.0875L2.19149 7.45L2.49999 7.226L2.80899 7.45L2.69099 7.0875L2.99999 6.863H2.61799L2.49999 6.5L2.38249 6.863H2.00049ZM4.00049 6.863L4.30949 7.0875L4.19149 7.45L4.49999 7.226L4.80899 7.45L4.69099 7.0875L4.99999 6.863H4.61799L4.49999 6.5L4.38249 6.863H4.00049ZM6.00049 6.863L6.30949 7.0875L6.19149 7.45L6.49999 7.226L6.80899 7.45L6.69099 7.0875L6.99999 6.863H6.61799L6.49999 6.5L6.38249 6.863H6.00049ZM3.00049 3.863L3.30949 4.0875L3.19149 4.45L3.49999 4.226L3.80899 4.45L3.69099 4.0875L3.99999 3.863H3.61799L3.49999 3.5L3.38249 3.863H3.00049ZM5.00049 3.863L5.30949 4.0875L5.19149 4.45L5.49999 4.226L5.80899 4.45L5.69099 4.0875L5.99999 3.863H5.61799L5.49999 3.5L5.38249 3.863H5.00049ZM7.00049 3.863L7.30949 4.0875L7.19149 4.45L7.49999 4.226L7.80899 4.45L7.69099 4.0875L7.99999 3.863H7.61799L7.49999 3.5L7.38249 3.863H7.00049ZM1.00049 5.863L1.30949 6.0875L1.19149 6.45L1.49999 6.226L1.80899 6.45L1.69099 6.0875L1.99999 5.863H1.61799L1.49999 5.5L1.38249 5.863H1.00049ZM3.19149 6.45L3.49999 6.226L3.80899 6.45L3.69099 6.0875L3.99999 5.863H3.61799L3.49999 5.5L3.38249 5.863H3.00049L3.30949 6.0875L3.19149 6.45ZM5.00049 5.863L5.30949 6.0875L5.19149 6.45L5.49999 6.226L5.80899 6.45L5.69099 6.0875L5.99999 5.863H5.61799L5.49999 5.5L5.38249 5.863H5.00049ZM7.00049 5.863L7.30949 6.0875L7.19149 6.45L7.49999 6.226L7.80899 6.45L7.69099 6.0875L7.99999 5.863H7.61799L7.49999 5.5L7.38249 5.863H7.00049ZM1.00049 7.863L1.30949 8.0875L1.19149 8.45L1.49999 8.226L1.80899 8.45L1.69099 8.0875L1.99999 7.863H1.61799L1.49999 7.5L1.38249 7.863H1.00049ZM3.19149 8.45L3.49999 8.226L3.80899 8.45L3.69099 8.0875L3.99999 7.863H3.61799L3.49999 7.5L3.38249 7.863H3.00049L3.30949 8.0875L3.19149 8.45ZM5.00049 7.863L5.30949 8.0875L5.19149 8.45L5.49999 8.226L5.80899 8.45L5.69099 8.0875L5.99999 7.863H5.61799L5.49999 7.5L5.38249 7.863H5.00049ZM7.00049 7.863L7.30949 8.0875L7.19149 8.45L7.49999 8.226L7.80899 8.45L7.69099 8.0875L7.99999 7.863H7.61799L7.49999 7.5L7.38249 7.863H7.00049Z" fill="white"/>
</svg>
