<svg width="23" height="22" viewBox="0 0 23 22" fill="none" xmlns="http://www.w3.org/2000/svg">
<path d="M13.332 19.4789H9.66537V20.8539H13.332V19.4789ZM3.01953 12.8331V9.16639H1.64453V12.8331H3.01953ZM19.9779 12.4325V12.8331H21.3529V12.4325H19.9779ZM14.1488 4.22648L17.7779 7.49256L18.6973 6.46956L15.0691 3.20348L14.1488 4.22648ZM21.3529 12.4325C21.3529 10.8842 21.3666 9.90339 20.977 9.02706L19.7203 9.58714C19.9641 10.1353 19.9779 10.7632 19.9779 12.4325H21.3529ZM17.7779 7.49256C19.0181 8.60906 19.4764 9.03989 19.7203 9.58714L20.977 9.02706C20.5865 8.14981 19.8486 7.50539 18.6973 6.46956L17.7779 7.49256ZM9.69286 2.52056C11.143 2.52056 11.6903 2.53156 12.177 2.71856L12.6702 1.43523C11.8892 1.13456 11.0385 1.14556 9.69286 1.14556V2.52056ZM15.0691 3.20439C14.0736 2.30881 13.4512 1.73406 12.6702 1.43523L12.1779 2.71856C12.6656 2.90556 13.0763 3.26123 14.1488 4.22648L15.0691 3.20439ZM9.66537 19.4789C7.91728 19.4789 6.67612 19.4771 5.73287 19.3506C4.81162 19.2268 4.27995 18.994 3.8922 18.6062L2.92053 19.5779C3.6062 20.2654 4.47612 20.5688 5.55045 20.7136C6.60462 20.8557 7.9567 20.8539 9.66537 20.8539V19.4789ZM1.64453 12.8331C1.64453 14.5417 1.6427 15.8929 1.78478 16.948C1.92962 18.0223 2.23395 18.8922 2.91962 19.5788L3.89128 18.6071C3.50445 18.2185 3.27162 17.6868 3.14787 16.7646C3.02137 15.8232 3.01953 14.5811 3.01953 12.8331H1.64453ZM13.332 20.8539C15.0407 20.8539 16.3919 20.8557 17.4469 20.7136C18.5213 20.5688 19.3912 20.2645 20.0778 19.5788L19.1061 18.6071C18.7174 18.994 18.1858 19.2268 17.2636 19.3506C16.3222 19.4771 15.0801 19.4789 13.332 19.4789V20.8539ZM19.9779 12.8331C19.9779 14.5811 19.976 15.8232 19.8495 16.7656C19.7258 17.6868 19.4929 18.2185 19.1052 18.6062L20.0769 19.5779C20.7644 18.8922 21.0678 18.0223 21.2126 16.948C21.3547 15.8938 21.3529 14.5417 21.3529 12.8331H19.9779ZM3.01953 9.16639C3.01953 7.41831 3.02137 6.17714 3.14787 5.23389C3.27162 4.31264 3.50445 3.78098 3.8922 3.39323L2.92053 2.42156C2.23303 3.10723 1.92962 3.97714 1.78478 5.05148C1.6427 6.10564 1.64453 7.45773 1.64453 9.16639H3.01953ZM9.69286 1.14556C7.97411 1.14556 6.61653 1.14373 5.55778 1.28581C4.47887 1.43064 3.6062 1.73498 2.91962 2.42064L3.89128 3.39231C4.27995 3.00548 4.81253 2.77264 5.7402 2.64889C6.68712 2.52239 7.93562 2.52056 9.69286 2.52056V1.14556Z" fill="white"/>
<path d="M12.4141 2.29102V4.58268C12.4141 6.74327 12.4141 7.82402 13.0851 8.49502C13.7561 9.16602 14.8368 9.16602 16.9974 9.16602H20.6641" stroke="white" stroke-width="1.5"/>
<path d="M8.29036 12.375V16.9583M8.29036 16.9583L10.1237 15.2396M8.29036 16.9583L6.45703 15.2396" stroke="white" stroke-width="1.5" stroke-linecap="round" stroke-linejoin="round"/>
</svg>
