<svg width="21" height="20" viewBox="0 0 21 20" fill="none" xmlns="http://www.w3.org/2000/svg">
<path d="M8.625 10C8.625 9.50272 8.82254 9.02581 9.17417 8.67417C9.52581 8.32254 10.0027 8.125 10.5 8.125C10.9973 8.125 11.4742 8.32254 11.8258 8.67417C12.1775 9.02581 12.375 9.50272 12.375 10C12.375 10.4973 12.1775 10.9742 11.8258 11.3258C11.4742 11.6775 10.9973 11.875 10.5 11.875C10.0027 11.875 9.52581 11.6775 9.17417 11.3258C8.82254 10.9742 8.625 10.4973 8.625 10Z" fill="#3666AA"/>
<path fill-rule="evenodd" clip-rule="evenodd" d="M2.16797 10C2.16797 11.3667 2.52214 11.8258 3.23047 12.7467C4.64464 14.5833 7.0163 16.6667 10.5013 16.6667C13.9863 16.6667 16.358 14.5833 17.7721 12.7467C18.4805 11.8267 18.8346 11.3658 18.8346 10C18.8346 8.63333 18.4805 8.17417 17.7721 7.25333C16.358 5.41667 13.9863 3.33333 10.5013 3.33333C7.0163 3.33333 4.64464 5.41667 3.23047 7.25333C2.52214 8.175 2.16797 8.63417 2.16797 10ZM10.5013 6.875C9.6725 6.875 8.87764 7.20424 8.29159 7.79029C7.70554 8.37634 7.3763 9.1712 7.3763 10C7.3763 10.8288 7.70554 11.6237 8.29159 12.2097C8.87764 12.7958 9.6725 13.125 10.5013 13.125C11.3301 13.125 12.125 12.7958 12.711 12.2097C13.2971 11.6237 13.6263 10.8288 13.6263 10C13.6263 9.1712 13.2971 8.37634 12.711 7.79029C12.125 7.20424 11.3301 6.875 10.5013 6.875Z" fill="#3666AA"/>
</svg>
