<svg width="17" height="12" viewBox="0 0 17 12" fill="none" xmlns="http://www.w3.org/2000/svg">
<path fill-rule="evenodd" clip-rule="evenodd" d="M8.4987 0.582031C6.31703 0.582031 4.35536 1.45786 2.94203 2.54286C2.2337 3.0862 1.65286 3.68953 1.24536 4.2762C0.845365 4.85286 0.582031 5.45786 0.582031 5.9987C0.582031 6.53953 0.846198 7.14453 1.24536 7.72036C1.6537 8.30786 2.2337 8.9112 2.94203 9.4537C4.35536 10.5404 6.31703 11.4154 8.4987 11.4154C10.6804 11.4154 12.642 10.5395 14.0554 9.45453C14.7637 8.9112 15.3445 8.30786 15.7512 7.7212C16.1512 7.14453 16.4154 6.53953 16.4154 5.9987C16.4154 5.45786 16.1512 4.85286 15.7512 4.27703C15.3445 3.68953 14.7637 3.0862 14.0554 2.5437C12.642 1.45703 10.6804 0.582031 8.4987 0.582031ZM5.3737 5.9987C5.3737 5.1699 5.70294 4.37504 6.28899 3.78899C6.87504 3.20294 7.6699 2.8737 8.4987 2.8737C9.3275 2.8737 10.1224 3.20294 10.7084 3.78899C11.2945 4.37504 11.6237 5.1699 11.6237 5.9987C11.6237 6.8275 11.2945 7.62236 10.7084 8.20841C10.1224 8.79446 9.3275 9.1237 8.4987 9.1237C7.6699 9.1237 6.87504 8.79446 6.28899 8.20841C5.70294 7.62236 5.3737 6.8275 5.3737 5.9987Z" fill="white"/>
</svg>
