<svg width="13" height="12" viewBox="0 0 13 12" fill="none" xmlns="http://www.w3.org/2000/svg">
<path d="M7.5625 0C5.9105 0 4.0705 0.281 2.7025 1.797C1.3365 3.313 0.5 5.94 0.5 10.5V11H4.828C5.323 11.3125 5.8795 11.5 6.5 11.5C7.1205 11.5 7.6775 11.3085 8.172 11H13V10.5C13 6.4375 12.215 4.078 11.1875 2.703C10.2825 1.493 9.2415 1.156 8.4685 1.078L8 0.25L7.86 0H7.5625ZM7.281 1.0315L7.6875 1.75L7.8275 2H8.125C8.63 2 9.549 2.17 10.39 3.297C11.193 4.37 11.9 6.415 11.969 10H9.2815C9.3365 9.93 9.3865 9.854 9.438 9.781C10.1165 8.8125 10.5 7.6035 10.5 6.5H9.5C9.5 7.361 9.178 8.4135 8.625 9.203C8.072 9.993 7.3325 10.5 6.5 10.5C5.6685 10.5 4.9285 9.995 4.375 9.203C3.8215 8.412 3.5 7.355 3.5 6.5C3.5 6.278 3.5425 6.1665 3.61 6.078C3.676 5.9895 3.792 5.913 3.9685 5.844C4.322 5.704 4.9185 5.6465 5.547 5.594C6.176 5.541 6.832 5.491 7.422 5.219C8.012 4.9465 8.5 4.33 8.5 3.5H7.5C7.5 4.022 7.363 4.152 7.015 4.3125C6.668 4.4725 6.074 4.5415 5.453 4.594C4.832 4.6465 4.178 4.6755 3.593 4.906C3.3015 5.021 3.019 5.195 2.813 5.469C2.605 5.7425 2.5 6.109 2.5 6.5C2.5 7.599 2.884 8.795 3.5625 9.765C3.6175 9.84533 3.67483 9.92367 3.7345 10H1.53C1.5975 5.9185 2.385 3.652 3.452 2.4685C4.496 1.3115 5.8435 1.061 7.28 1.0315H7.281ZM5 6.5C4.86739 6.5 4.74021 6.55268 4.64645 6.64645C4.55268 6.74021 4.5 6.86739 4.5 7C4.5 7.13261 4.55268 7.25979 4.64645 7.35355C4.74021 7.44732 4.86739 7.5 5 7.5C5.13261 7.5 5.25979 7.44732 5.35355 7.35355C5.44732 7.25979 5.5 7.13261 5.5 7C5.5 6.86739 5.44732 6.74021 5.35355 6.64645C5.25979 6.55268 5.13261 6.5 5 6.5ZM8 6.5C7.86739 6.5 7.74021 6.55268 7.64645 6.64645C7.55268 6.74021 7.5 6.86739 7.5 7C7.5 7.13261 7.55268 7.25979 7.64645 7.35355C7.74021 7.44732 7.86739 7.5 8 7.5C8.13261 7.5 8.25979 7.44732 8.35355 7.35355C8.44732 7.25979 8.5 7.13261 8.5 7C8.5 6.86739 8.44732 6.74021 8.35355 6.64645C8.25979 6.55268 8.13261 6.5 8 6.5Z" fill="#00809D"/>
</svg>
