<svg width="32" height="32" viewBox="0 0 32 32" fill="none" xmlns="http://www.w3.org/2000/svg">
<path fill-rule="evenodd" clip-rule="evenodd" d="M16.3639 2.63422C15.6931 2.52047 14.7773 2.51172 13.1264 2.51172C10.3308 2.51172 8.3431 2.51464 6.8381 2.71589C5.36227 2.91276 4.51497 3.28464 3.8981 3.90005C3.28122 4.51547 2.91081 5.36276 2.71393 6.82984C2.51268 8.32901 2.50977 10.3036 2.50977 13.0861V18.9194C2.50977 21.699 2.51268 23.6736 2.71393 25.1728C2.91081 26.6398 3.28122 27.4857 3.8981 28.104C4.51497 28.7194 5.36081 29.0898 6.82789 29.2867C8.32706 29.4894 10.3016 29.4909 13.0827 29.4909H18.916C21.6971 29.4909 23.6731 29.488 25.1723 29.2867C26.6379 29.0898 27.4837 28.7194 28.1006 28.1026C28.7175 27.4857 29.0879 26.6398 29.2848 25.1728C29.486 23.6751 29.4889 21.699 29.4889 18.918V18.2807C29.4889 16.0407 29.4743 14.979 29.2352 14.1784H24.6706C23.0183 14.1784 21.6693 14.1784 20.6019 14.0355C19.4891 13.8853 18.5237 13.5615 17.7523 12.7901C16.9808 12.0186 16.6571 11.0546 16.5068 9.93901C16.3639 8.87443 16.3639 7.52401 16.3639 5.87026V2.63422ZM18.5514 3.76589V5.79297C18.5514 7.54297 18.5543 8.74464 18.6754 9.64734C18.7921 10.5194 19.0021 10.9467 19.2996 11.2428C19.5971 11.5388 20.0229 11.7503 20.895 11.8669C21.7977 11.988 22.9993 11.9909 24.7493 11.9909H27.6952C27.1355 11.458 26.5667 10.9349 25.9889 10.4217L20.2154 5.22568C19.6708 4.72775 19.116 4.24105 18.5514 3.76589ZM13.3379 0.324219C15.3577 0.324219 16.6629 0.324219 17.8631 0.783594C19.0633 1.24443 20.0287 2.11359 21.5235 3.45964L21.6796 3.59964L27.4516 8.79568L27.6339 8.95901C29.3606 10.5121 30.4777 11.5169 31.0771 12.8644C31.6764 14.2119 31.6779 15.714 31.6764 18.0357V18.9996C31.6764 21.68 31.6764 23.8034 31.4533 25.4644C31.2229 27.1736 30.7387 28.5575 29.6479 29.6498C28.5556 30.7407 27.1716 31.2248 25.4625 31.4553C23.8 31.6784 21.6781 31.6784 18.9977 31.6784H13.001C10.3206 31.6784 8.19727 31.6784 6.53622 31.4553C4.82706 31.2248 3.4431 30.7407 2.35081 29.6498C1.25997 28.5575 0.775807 27.1736 0.545391 25.4644C0.322266 23.8019 0.322266 21.68 0.322266 18.9996V13.0044C0.322266 10.324 0.322266 8.20068 0.545391 6.53964C0.775807 4.83047 1.25997 3.44651 2.35081 2.35422C3.44456 1.26193 4.83143 0.779219 6.54789 0.548802C8.21622 0.325677 10.3498 0.325677 13.0448 0.325677H13.3393" fill="#A19F9F"/>
<path fill-rule="evenodd" clip-rule="evenodd" d="M11.6433 17.3896C11.4406 17.1995 11.1731 17.0938 10.8952 17.0938C10.6173 17.0938 10.3498 17.1995 10.1471 17.3896L7.23042 20.124C7.12322 20.2216 7.03649 20.3396 6.97528 20.471C6.91408 20.6024 6.87961 20.7447 6.8739 20.8896C6.86818 21.0345 6.89133 21.1791 6.94199 21.3149C6.99265 21.4508 7.06982 21.5752 7.169 21.6809C7.26819 21.7867 7.38741 21.8717 7.51973 21.9309C7.65205 21.9902 7.79484 22.0226 7.93978 22.0261C8.08473 22.0297 8.22894 22.0045 8.36403 21.9518C8.49912 21.8991 8.62239 21.8201 8.72667 21.7194L9.80146 20.7132V25.479C9.80146 25.7691 9.9167 26.0473 10.1218 26.2524C10.3269 26.4575 10.6051 26.5728 10.8952 26.5728C11.1853 26.5728 11.4635 26.4575 11.6686 26.2524C11.8737 26.0473 11.989 25.7691 11.989 25.479V20.7117L13.0638 21.7194C13.2762 21.9128 13.5562 22.0149 13.8432 22.0036C14.1303 21.9923 14.4014 21.8685 14.5979 21.6589C14.7945 21.4493 14.9006 21.1709 14.8935 20.8837C14.8865 20.5965 14.7666 20.3236 14.56 20.124L11.6433 17.3896Z" fill="#A19F9F"/>
</svg>
