<svg width="18" height="16" viewBox="0 0 18 16" fill="none" xmlns="http://www.w3.org/2000/svg">
<path d="M16.7096 8.00023H6.4138M2.77964 8.00023H1.29297M2.77964 8.00023C2.77964 7.51842 2.97103 7.05635 3.31172 6.71566C3.65242 6.37497 4.11449 6.18357 4.5963 6.18357C5.07811 6.18357 5.54019 6.37497 5.88088 6.71566C6.22157 7.05635 6.41297 7.51842 6.41297 8.00023C6.41297 8.48204 6.22157 8.94412 5.88088 9.28481C5.54019 9.6255 5.07811 9.8169 4.5963 9.8169C4.11449 9.8169 3.65242 9.6255 3.31172 9.28481C2.97103 8.94412 2.77964 8.48204 2.77964 8.00023ZM16.7096 13.5061H11.9196M11.9196 13.5061C11.9196 13.988 11.7278 14.4506 11.387 14.7914C11.0462 15.1321 10.5841 15.3236 10.1021 15.3236C9.62033 15.3236 9.15825 15.1313 8.81756 14.7906C8.47687 14.45 8.28547 13.9879 8.28547 13.5061M11.9196 13.5061C11.9196 13.0241 11.7278 12.5624 11.387 12.2216C11.0462 11.8808 10.5841 11.6894 10.1021 11.6894C9.62033 11.6894 9.15825 11.8808 8.81756 12.2215C8.47687 12.5622 8.28547 13.0243 8.28547 13.5061M8.28547 13.5061H1.29297M16.7096 2.4944H14.1221M10.488 2.4944H1.29297M10.488 2.4944C10.488 2.01259 10.6794 1.55051 11.0201 1.20982C11.3607 0.869133 11.8228 0.677734 12.3046 0.677734C12.5432 0.677734 12.7794 0.724724 12.9998 0.81602C13.2203 0.907316 13.4205 1.04113 13.5892 1.20982C13.7579 1.37852 13.8917 1.57878 13.983 1.79919C14.0743 2.0196 14.1213 2.25583 14.1213 2.4944C14.1213 2.73297 14.0743 2.9692 13.983 3.18961C13.8917 3.41002 13.7579 3.61028 13.5892 3.77898C13.4205 3.94767 13.2203 4.08149 12.9998 4.17278C12.7794 4.26408 12.5432 4.31107 12.3046 4.31107C11.8228 4.31107 11.3607 4.11967 11.0201 3.77898C10.6794 3.43829 10.488 2.97621 10.488 2.4944Z" stroke="black" stroke-width="1.25" stroke-miterlimit="10" stroke-linecap="round"/>
</svg>
