<svg width="16" height="16" viewBox="0 0 16 16" fill="none" xmlns="http://www.w3.org/2000/svg">
<path d="M0.125 1.8125C0.125 1.36495 0.30279 0.935725 0.619257 0.619257C0.935725 0.30279 1.36495 0.125 1.8125 0.125H4.0625C4.51005 0.125 4.93928 0.30279 5.25574 0.619257C5.57221 0.935725 5.75 1.36495 5.75 1.8125V4.0625C5.75 4.51005 5.57221 4.93928 5.25574 5.25574C4.93928 5.57221 4.51005 5.75 4.0625 5.75H1.8125C1.36495 5.75 0.935725 5.57221 0.619257 5.25574C0.30279 4.93928 0.125 4.51005 0.125 4.0625V1.8125ZM1.8125 1.25C1.66332 1.25 1.52024 1.30926 1.41475 1.41475C1.30926 1.52024 1.25 1.66332 1.25 1.8125V4.0625C1.25 4.21168 1.30926 4.35476 1.41475 4.46025C1.52024 4.56574 1.66332 4.625 1.8125 4.625H4.0625C4.21168 4.625 4.35476 4.56574 4.46025 4.46025C4.56574 4.35476 4.625 4.21168 4.625 4.0625V1.8125C4.625 1.66332 4.56574 1.52024 4.46025 1.41475C4.35476 1.30926 4.21168 1.25 4.0625 1.25H1.8125ZM8 9.6875C8 9.23995 8.17779 8.81072 8.49426 8.49426C8.81072 8.17779 9.23995 8 9.6875 8H14.1875C14.6351 8 15.0643 8.17779 15.3807 8.49426C15.6972 8.81072 15.875 9.23995 15.875 9.6875V14.1875C15.875 14.6351 15.6972 15.0643 15.3807 15.3807C15.0643 15.6972 14.6351 15.875 14.1875 15.875H9.6875C9.23995 15.875 8.81072 15.6972 8.49426 15.3807C8.17779 15.0643 8 14.6351 8 14.1875V9.6875ZM9.6875 9.125C9.53832 9.125 9.39524 9.18426 9.28975 9.28975C9.18426 9.39524 9.125 9.53832 9.125 9.6875V14.1875C9.125 14.3367 9.18426 14.4798 9.28975 14.5852C9.39524 14.6907 9.53832 14.75 9.6875 14.75H14.1875C14.3367 14.75 14.4798 14.6907 14.5852 14.5852C14.6907 14.4798 14.75 14.3367 14.75 14.1875V9.6875C14.75 9.53832 14.6907 9.39524 14.5852 9.28975C14.4798 9.18426 14.3367 9.125 14.1875 9.125H9.6875ZM2.375 10.8125V6.875H3.5V10.8125C3.5 10.9617 3.55926 11.1048 3.66475 11.2102C3.77024 11.3157 3.91332 11.375 4.0625 11.375H6.875V12.5H4.0625C3.61495 12.5 3.18572 12.3222 2.86926 12.0057C2.55279 11.6893 2.375 11.2601 2.375 10.8125ZM6.875 2.375V3.5H10.8125C10.9617 3.5 11.1048 3.55926 11.2102 3.66475C11.3157 3.77024 11.375 3.91332 11.375 4.0625V6.875H12.5V4.0625C12.5 3.61495 12.3222 3.18572 12.0057 2.86926C11.6893 2.55279 11.2601 2.375 10.8125 2.375H6.875Z" fill="black" fill-opacity="0.2"/>
</svg>
