<svg width="15" height="16" viewBox="0 0 15 16" fill="none" xmlns="http://www.w3.org/2000/svg">
<g clip-path="url(#clip0_1075_24321)">
<path fill-rule="evenodd" clip-rule="evenodd" d="M7.22852 3.3125H13.5941L14.0723 3.78125V8.00656C13.7794 7.78545 13.4616 7.59949 13.1254 7.4525V6.11562H7.20977L6.40352 6.92188L6.07539 7.0625H1.86602V12.6875H6.65664C6.72289 13.0144 6.82164 13.3269 6.95289 13.625H1.41602L0.947266 13.1562V2.84375L1.41602 2.375H6.10352L6.43164 2.51563L7.22852 3.3125ZM7.02227 5.1875H13.116L13.1254 4.25938H7.03164L6.69414 4.11875L5.89727 3.32187H1.87539V6.13438H5.88789L6.69414 5.32812L7.02227 5.1875Z" fill="#01933B"/>
<path fill-rule="evenodd" clip-rule="evenodd" d="M9.16812 8.63187C9.57753 8.35524 10.0376 8.16224 10.5218 8.06398C11.0061 7.96571 11.505 7.96412 11.9898 8.05928C12.4747 8.15444 12.9359 8.34449 13.3471 8.61849C13.7583 8.8925 14.1113 9.24506 14.3858 9.65592C14.6602 10.0668 14.8508 10.5278 14.9465 11.0126C15.0423 11.4973 15.0413 11.9962 14.9436 12.4806C14.8458 12.9649 14.6534 13.4252 14.3772 13.8349C14.1011 14.2447 13.7467 14.5958 13.3344 14.8681C12.5073 15.4144 11.4977 15.611 10.5261 15.415C9.5545 15.219 8.70002 14.6464 8.14942 13.8222C7.59883 12.9981 7.39691 11.9895 7.5878 11.0169C7.77869 10.0443 8.34686 9.18678 9.16812 8.63187ZM11.165 13.31L13.4028 10.3269L12.6528 9.76437L10.7056 12.3603L9.48593 11.3844L8.89999 12.1156L10.4975 13.3944L11.1659 13.31H11.165Z" fill="#01933B"/>
</g>
<defs>
<clipPath id="clip0_1075_24321">
<rect width="15" height="15" fill="white" transform="translate(0 0.5)"/>
</clipPath>
</defs>
</svg>
