<svg width="20" height="20" viewBox="0 0 20 20" fill="none" xmlns="http://www.w3.org/2000/svg">
<path d="M15.0003 6.66667C15.0003 7.10869 14.8247 7.53262 14.5122 7.84518C14.1996 8.15774 13.7757 8.33333 13.3337 8.33333C12.8916 8.33333 12.4677 8.15774 12.1551 7.84518C11.8426 7.53262 11.667 7.10869 11.667 6.66667C11.667 6.22464 11.8426 5.80072 12.1551 5.48816C12.4677 5.17559 12.8916 5 13.3337 5C13.7757 5 14.1996 5.17559 14.5122 5.48816C14.8247 5.80072 15.0003 6.22464 15.0003 6.66667Z" fill="white"/>
<path fill-rule="evenodd" clip-rule="evenodd" d="M9.95283 1.04185H10.0478C11.972 1.04185 13.4795 1.04185 14.6562 1.20018C15.8595 1.36185 16.8095 1.70018 17.5553 2.44518C18.3012 3.19102 18.6387 4.14102 18.8003 5.34518C18.9587 6.52102 18.9587 8.02852 18.9587 9.95268V10.026C18.9587 11.6168 18.9587 12.9185 18.872 13.9785C18.7853 15.0452 18.6078 15.9343 18.2095 16.6743C18.035 16.9999 17.817 17.2935 17.5553 17.5552C16.8095 18.301 15.8595 18.6385 14.6553 18.8002C13.4795 18.9585 11.972 18.9585 10.0478 18.9585H9.95283C8.02866 18.9585 6.52116 18.9585 5.34449 18.8002C4.14116 18.6385 3.19116 18.3002 2.44533 17.5552C1.78449 16.8943 1.44283 16.0718 1.26199 15.0502C1.08283 14.0477 1.05033 12.8002 1.04366 11.2518C1.04255 10.8574 1.04199 10.4402 1.04199 10.0002V9.95185C1.04199 8.02768 1.04199 6.52018 1.20033 5.34352C1.36199 4.14018 1.70033 3.19018 2.44533 2.44435C3.19116 1.69852 4.14116 1.36102 5.34533 1.19935C6.52116 1.04102 8.02866 1.04102 9.95283 1.04102M5.51116 2.43768C4.44616 2.58102 3.80366 2.85435 3.32949 3.32852C2.85449 3.80352 2.58199 4.44518 2.43866 5.51102C2.29366 6.59435 2.29199 8.01768 2.29199 9.99935V10.7027L3.12616 9.97268C3.49205 9.65239 3.96601 9.48315 4.45202 9.49924C4.93803 9.51533 5.39975 9.71556 5.74366 10.0593L9.31866 13.6343C9.59608 13.9117 9.96245 14.0823 10.3533 14.1162C10.7441 14.15 11.1344 14.0449 11.4553 13.8193L11.7037 13.6443C12.1667 13.319 12.7265 13.1603 13.2914 13.1944C13.8564 13.2284 14.393 13.4532 14.8137 13.8318L17.172 15.9543C17.4103 15.456 17.5512 14.801 17.6262 13.8768C17.7078 12.8727 17.7087 11.621 17.7087 9.99935C17.7087 8.01768 17.707 6.59435 17.562 5.51102C17.4187 4.44518 17.1453 3.80268 16.6712 3.32768C16.1962 2.85352 15.5545 2.58102 14.4887 2.43768C13.4053 2.29268 11.982 2.29102 10.0003 2.29102C8.01866 2.29102 6.59449 2.29268 5.51116 2.43768Z" fill="white"/>
</svg>
