<svg width="20" height="21" viewBox="0 0 20 21" fill="none" xmlns="http://www.w3.org/2000/svg">
<path d="M11.0784 0.5C11.3724 0.5 11.6354 0.683 11.7344 0.957L12.4404 2.914C12.693 2.97667 12.911 3.04067 13.0944 3.106C13.2944 3.17733 13.5544 3.28733 13.8744 3.436L15.5184 2.566C15.6525 2.49458 15.8062 2.46874 15.9563 2.49237C16.1064 2.516 16.2447 2.58783 16.3504 2.697L17.7964 4.192C17.9884 4.391 18.0424 4.682 17.9344 4.936L17.1634 6.743C17.2907 6.97767 17.3934 7.179 17.4714 7.347C17.5554 7.529 17.6594 7.78233 17.7834 8.107L19.5804 8.877C19.8504 8.992 20.0174 9.262 19.9994 9.551L19.8674 11.626C19.8583 11.7608 19.8099 11.89 19.7282 11.9975C19.6464 12.1051 19.5349 12.1863 19.4074 12.231L17.7054 12.836C17.6567 13.0707 17.6054 13.2727 17.5514 13.442C17.464 13.7044 17.3645 13.9627 17.2534 14.216L18.1084 16.106C18.1692 16.2387 18.1857 16.3875 18.1554 16.5303C18.1252 16.6731 18.0498 16.8024 17.9404 16.899L16.3144 18.351C16.2075 18.4466 16.0738 18.5071 15.9315 18.5243C15.7891 18.5414 15.6449 18.5145 15.5184 18.447L13.8424 17.559C13.5804 17.6984 13.3099 17.821 13.0324 17.926L12.3004 18.2L11.6504 20C11.6017 20.1315 11.5147 20.2454 11.4006 20.3269C11.2865 20.4084 11.1505 20.4537 11.0104 20.457L9.11037 20.5C8.96642 20.5033 8.82495 20.4622 8.70523 20.3822C8.58551 20.3022 8.49337 20.1873 8.44137 20.053L7.67537 18.026C7.41408 17.9365 7.15532 17.8398 6.89937 17.736C6.69009 17.6454 6.48397 17.5477 6.28137 17.443L4.38137 18.255C4.25622 18.3087 4.11814 18.3247 3.98404 18.301C3.84994 18.2774 3.72564 18.2152 3.62637 18.122L2.22037 16.803C2.1153 16.7055 2.04373 16.5773 2.0159 16.4366C1.98806 16.296 2.00537 16.1502 2.06537 16.02L2.88237 14.24C2.7741 14.029 2.67337 13.8142 2.58037 13.596C2.47204 13.3288 2.37199 13.0584 2.28037 12.785L0.490367 12.24C0.344868 12.196 0.217962 12.1052 0.129357 11.9817C0.0407526 11.8582 -0.0045913 11.7089 0.000367469 11.557L0.0703675 9.636C0.0755676 9.51072 0.114809 9.38922 0.183876 9.28456C0.252942 9.1799 0.349221 9.09605 0.462367 9.042L2.34037 8.14C2.42703 7.82133 2.5037 7.572 2.57037 7.392C2.66472 7.15025 2.76948 6.91269 2.88437 6.68L2.07037 4.96C2.00812 4.82948 1.98911 4.68252 2.01608 4.54045C2.04306 4.39839 2.11462 4.26862 2.22037 4.17L3.62437 2.844C3.72266 2.75095 3.84581 2.6884 3.97893 2.6639C4.11204 2.63941 4.2494 2.65403 4.37437 2.706L6.27237 3.49C6.4817 3.35067 6.67237 3.236 6.84437 3.146C7.04903 3.038 7.3237 2.92267 7.66837 2.8L8.32837 0.959C8.37766 0.824592 8.46697 0.708527 8.58427 0.626454C8.70156 0.544382 8.84121 0.500247 8.98437 0.5H11.0784ZM10.0244 7.519C8.35737 7.519 7.00637 8.854 7.00637 10.502C7.00637 12.15 8.35737 13.486 10.0244 13.486C11.6914 13.486 13.0414 12.15 13.0414 10.502C13.0414 8.854 11.6914 7.519 10.0244 7.519Z" fill="black"/>
</svg>
