<svg width="24" height="20" viewBox="0 0 24 20" fill="none" xmlns="http://www.w3.org/2000/svg">
<path d="M2.77 19.7504C2.19417 19.7504 1.71375 19.5579 1.32875 19.1729C0.94375 18.7879 0.750833 18.3071 0.75 17.7304V4.27039C0.75 3.69456 0.942917 3.21414 1.32875 2.82914C1.71458 2.44414 2.19458 2.25122 2.76875 2.25039H15.2025C15.1667 2.45872 15.1446 2.66289 15.1362 2.86289C15.1287 3.06289 15.1346 3.27539 15.1537 3.50039H2.385L12 9.75039L16.4662 6.83414C16.6137 6.97664 16.7633 7.11497 16.915 7.24914C17.0667 7.38331 17.2258 7.50706 17.3925 7.62039L12 11.1454L2 4.60664V17.7316C2 17.9558 2.07208 18.14 2.21625 18.2841C2.36042 18.4283 2.545 18.5004 2.77 18.5004H21.2313C21.4554 18.5004 21.6396 18.4283 21.7837 18.2841C21.9279 18.14 22 17.9554 22 17.7304V8.68789C22.2392 8.63206 22.4587 8.56622 22.6588 8.49039C22.8588 8.41539 23.0558 8.32247 23.25 8.21164V17.7316C23.25 18.3066 23.0575 18.7866 22.6725 19.1716C22.2875 19.5566 21.8071 19.7496 21.2313 19.7504H2.77ZM20.75 6.33789C19.885 6.33789 19.1475 6.03331 18.5375 5.42414C17.9275 4.81497 17.6233 4.07747 17.625 3.21164C17.6267 2.34581 17.9308 1.60872 18.5375 1.00039C19.1442 0.392057 19.8817 0.0878906 20.75 0.0878906C21.6183 0.0878906 22.3558 0.392057 22.9625 1.00039C23.5692 1.60872 23.8733 2.34622 23.875 3.21289C23.8767 4.07956 23.5725 4.81664 22.9625 5.42414C22.3525 6.03164 21.615 6.33581 20.75 6.33664" fill="black"/>
</svg>
