<svg width="24" height="25" viewBox="0 0 24 25" fill="none" xmlns="http://www.w3.org/2000/svg">
<path d="M12.0013 23.8749C19.8555 23.8749 22.8346 22.2499 22.8346 16.2915M2.68626 18.8823C1.77409 18.6543 1.16797 17.8218 1.16797 16.882V13.5355C1.16797 12.5952 1.77409 11.7621 2.68626 11.5341C3.56701 11.3136 4.72401 11.0661 5.86151 10.9469C6.64043 10.8651 7.32618 11.3218 7.45563 12.0936C7.56938 12.7675 7.66797 13.7679 7.66797 15.2082C7.66797 16.649 7.56884 17.6495 7.45563 18.3228C7.32563 19.0947 6.64043 19.5513 5.86151 19.47C4.72401 19.3509 3.56701 19.1028 2.68626 18.8823Z" stroke="black" stroke-linecap="round" stroke-linejoin="round"/>
<path d="M21.3176 18.8823C22.2298 18.6543 22.8359 17.8218 22.8359 16.882V13.5355C22.8359 12.5952 22.2298 11.7621 21.3176 11.5341C20.4369 11.3136 19.2799 11.0661 18.1424 10.9469C17.3635 10.8651 16.6777 11.3218 16.5483 12.0936C16.4345 12.7675 16.3359 13.7679 16.3359 15.2082C16.3359 16.649 16.4351 17.6495 16.5483 18.3228C16.6783 19.0947 17.3635 19.5513 18.1424 19.47C19.2799 19.3509 20.4369 19.1028 21.3176 18.8823Z" stroke="black" stroke-linecap="round" stroke-linejoin="round"/>
<path d="M22.8346 13.5351V11.9583C22.8346 5.97508 17.9846 1.125 12.0013 1.125C6.01805 1.125 1.16797 5.97508 1.16797 11.9583V13.5351M19.5608 11.1529C19.2521 7.35958 15.9858 4.375 12.0013 4.375C8.0168 4.375 4.75055 7.35958 4.4418 11.1529" stroke="black" stroke-linecap="round" stroke-linejoin="round"/>
</svg>
