<svg width="18" height="18" viewBox="0 0 18 18" fill="none" xmlns="http://www.w3.org/2000/svg">
<path d="M2.25225 2.8125C2.25225 2.66332 2.19299 2.52024 2.0875 2.41475C1.98201 2.30926 1.83893 2.25 1.68975 2.25C1.54057 2.25 1.39749 2.30926 1.292 2.41475C1.18651 2.52024 1.12725 2.66332 1.12725 2.8125V8.44313C1.12725 8.59231 1.18651 8.73538 1.292 8.84087C1.39749 8.94636 1.54057 9.00562 1.68975 9.00562C1.83893 9.00562 1.98201 8.94636 2.0875 8.84087C2.19299 8.73538 2.25225 8.59231 2.25225 8.44313V6.18862H5.62725V8.43862C5.62725 8.58781 5.68651 8.73088 5.792 8.83637C5.89749 8.94186 6.04057 9.00112 6.18975 9.00112C6.33893 9.00112 6.48201 8.94186 6.5875 8.83637C6.69299 8.73088 6.75225 8.58781 6.75225 8.43862V2.81363C6.75225 2.66444 6.69299 2.52137 6.5875 2.41588C6.48201 2.31039 6.33893 2.25113 6.18975 2.25113C6.04057 2.25113 5.89749 2.31039 5.792 2.41588C5.68651 2.52137 5.62725 2.66444 5.62725 2.81363V5.06475H2.25225V2.8125ZM1.125 11.8136C1.125 11.6644 1.18426 11.5214 1.28975 11.4159C1.39524 11.3104 1.53832 11.2511 1.6875 11.2511H16.3125C16.4617 11.2511 16.6048 11.3104 16.7102 11.4159C16.8157 11.5214 16.875 11.6644 16.875 11.8136C16.875 11.9628 16.8157 12.1059 16.7102 12.2114C16.6048 12.3169 16.4617 12.3761 16.3125 12.3761H1.6875C1.53832 12.3761 1.39524 12.3169 1.28975 12.2114C1.18426 12.1059 1.125 11.9628 1.125 11.8136ZM1.125 15.1864C1.125 15.0372 1.18426 14.8941 1.28975 14.7886C1.39524 14.6831 1.53832 14.6239 1.6875 14.6239H16.3125C16.4617 14.6239 16.6048 14.6831 16.7102 14.7886C16.8157 14.8941 16.875 15.0372 16.875 15.1864C16.875 15.3356 16.8157 15.4786 16.7102 15.5841C16.6048 15.6896 16.4617 15.7489 16.3125 15.7489H1.6875C1.53832 15.7489 1.39524 15.6896 1.28975 15.5841C1.18426 15.4786 1.125 15.3356 1.125 15.1864ZM11.25 2.81363C11.25 2.68696 11.2072 2.56401 11.1286 2.46467C11.0501 2.36533 10.9402 2.29542 10.817 2.26627C10.6937 2.23711 10.5642 2.25041 10.4495 2.30401C10.3347 2.35762 10.2414 2.44839 10.1846 2.56163C9.999 2.93288 9.71213 3.22537 9.45675 3.429C9.32864 3.53095 9.19328 3.62345 9.05175 3.70575L9.03038 3.717H9.02812C8.89475 3.78398 8.79346 3.90121 8.74651 4.04288C8.69957 4.18455 8.71083 4.33907 8.77781 4.47244C8.8448 4.60581 8.96202 4.70711 9.10369 4.75405C9.24536 4.80099 9.39988 4.78973 9.53325 4.72275L9.5355 4.72163L9.54 4.71937C9.60525 4.68562 9.66863 4.64962 9.73013 4.61137C9.83363 4.54725 9.97088 4.45612 10.125 4.33575V8.43862C10.125 8.58781 10.1843 8.73088 10.2898 8.83637C10.3952 8.94186 10.5383 9.00112 10.6875 9.00112C10.8367 9.00112 10.9798 8.94186 11.0852 8.83637C11.1907 8.73088 11.25 8.58781 11.25 8.43862V2.81363Z" fill="black"/>
</svg>
