<svg width="18" height="16" viewBox="0 0 18 16" fill="none" xmlns="http://www.w3.org/2000/svg">
<path d="M9.00187 0.894552C6.79342 0.900053 4.677 1.77979 3.11539 3.34141C1.55377 4.90302 0.674033 7.01944 0.668532 9.22789C0.65556 10.3235 0.866635 11.4103 1.2888 12.4214C1.71097 13.4326 2.33532 14.3467 3.12353 15.1079L4.2902 13.9412C3.66764 13.3252 3.17531 12.5902 2.84246 11.7801C2.50962 10.97 2.34306 10.1012 2.3527 9.22539C2.35004 7.46317 3.04748 5.77206 4.29161 4.52402C5.53573 3.27599 7.22465 2.57326 8.98687 2.57039H9.00187C10.7641 2.56817 12.455 3.26604 13.7027 4.51047C14.9505 5.75491 15.6528 7.444 15.6552 9.20622V9.22455C15.6334 10.9859 14.9405 12.6725 13.7177 13.9404L14.8802 15.1071C16.0496 13.9454 16.8473 12.4623 17.1719 10.8463C17.4966 9.23025 17.3335 7.55418 16.7036 6.03101C16.0736 4.50783 15.005 3.20629 13.6337 2.29172C12.2624 1.37715 10.6502 0.890836 9.00187 0.894552ZM7.32187 9.42205L8.74353 10.9079L12.8785 6.19205L12.0377 5.28789L7.32187 9.42205Z" fill="black" fill-opacity="0.2"/>
</svg>
