<svg width="18" height="16" viewBox="0 0 18 16" fill="none" xmlns="http://www.w3.org/2000/svg">
<path d="M8.99991 0.894552C6.79147 0.900053 4.67505 1.77979 3.11343 3.34141C1.55182 4.90302 0.67208 7.01944 0.666579 9.22789C0.653607 10.3235 0.864682 11.4103 1.28685 12.4214C1.70901 13.4326 2.33336 14.3467 3.12158 15.1079L4.28825 13.9412C3.66569 13.3252 3.17335 12.5902 2.84051 11.7801C2.50767 10.97 2.34111 10.1012 2.35075 9.22539C2.34809 7.46317 3.04553 5.77206 4.28965 4.52402C5.53378 3.27599 7.22269 2.57326 8.98491 2.57039H8.99991C10.7621 2.56817 12.4531 3.26604 13.7008 4.51047C14.9485 5.75491 15.6508 7.444 15.6532 9.20622V9.22455C15.6315 10.9859 14.9385 12.6725 13.7157 13.9404L14.8782 15.1071C16.0476 13.9454 16.8453 12.4623 17.17 10.8463C17.4946 9.23025 17.3316 7.55418 16.7016 6.03101C16.0716 4.50783 15.0031 3.20629 13.6318 2.29172C12.2604 1.37715 10.6482 0.890836 8.99991 0.894552ZM7.31991 9.42205L8.74158 10.9079L12.8766 6.19205L12.0357 5.28789L7.31991 9.42205Z" fill="black" fill-opacity="0.2"/>
</svg>
