<svg width="15" height="18" viewBox="0 0 15 18" fill="none" xmlns="http://www.w3.org/2000/svg">
<path d="M1.07143 16.1706H5.02714V10.7309C5.02714 10.4859 5.11036 10.2806 5.27679 10.1148C5.4425 9.94841 5.64786 9.8652 5.89286 9.8652H9.10714C9.35214 9.8652 9.55786 9.94841 9.72429 10.1148C9.89 10.2806 9.97286 10.4859 9.97286 10.7309V16.1706H13.9286V6.8577C13.9286 6.7477 13.9046 6.6477 13.8568 6.5577C13.8089 6.4677 13.7436 6.38913 13.6607 6.32198L7.89214 1.97413C7.78214 1.87841 7.65143 1.83056 7.5 1.83056C7.34857 1.83056 7.21821 1.87841 7.10893 1.97413L1.33929 6.32198C1.25714 6.39056 1.19179 6.46913 1.14321 6.5577C1.09464 6.64627 1.07071 6.74627 1.07143 6.8577V16.1706ZM0 16.1706V6.8577C0 6.58341 0.0614285 6.32377 0.184286 6.07877C0.307143 5.83377 0.476428 5.63199 0.692143 5.47341L6.46179 1.10413C6.76393 0.873414 7.10893 0.758057 7.49679 0.758057C7.88464 0.758057 8.23178 0.873414 8.53821 1.10413L14.3079 5.47234C14.5243 5.63091 14.6936 5.83306 14.8157 6.07877C14.9386 6.32377 15 6.58341 15 6.8577V16.1706C15 16.4577 14.8932 16.7081 14.6796 16.9216C14.4661 17.1352 14.2157 17.242 13.9286 17.242H9.76714C9.52143 17.242 9.31571 17.1591 9.15 16.9934C8.98429 16.827 8.90143 16.6213 8.90143 16.3763V10.9377H6.09857V16.3763C6.09857 16.622 6.01571 16.8277 5.85 16.9934C5.68429 17.1591 5.47893 17.242 5.23393 17.242H1.07143C0.784286 17.242 0.533928 17.1352 0.320357 16.9216C0.106785 16.7081 0 16.4577 0 16.1706Z" fill="black"/>
</svg>
