<svg width="20" height="20" viewBox="0 0 20 20" fill="none" xmlns="http://www.w3.org/2000/svg">
<path d="M17.5 1.66406L16.6667 2.4974M2.5 1.66406L3.33333 2.4974M17.5 13.3307L16.6667 12.4974M2.5 13.3307L3.33333 12.4974M7.5 14.9974H12.5M8.33333 17.4974H11.6667M10 2.4974C6.66667 2.4974 4.96 4.1224 5 6.66406C5.01917 7.90323 5.41667 8.7474 6.25 9.58073C7.08333 10.4141 7.5 10.8307 7.5 12.4974H12.5C12.5 10.8307 12.9167 10.4141 13.75 9.58073C14.5833 8.7474 14.9808 7.90323 15 6.66406C15.04 4.1224 13.3333 2.4974 10 2.4974Z" stroke="black" stroke-opacity="0.2" stroke-linecap="round" stroke-linejoin="round"/>
</svg>
