<svg width="18" height="14" viewBox="0 0 18 14" fill="none" xmlns="http://www.w3.org/2000/svg">
<path d="M3.99276 1.10908C4.1098 1.22627 4.17554 1.38512 4.17554 1.55075C4.17554 1.71637 4.1098 1.87523 3.99276 1.99241C3.33499 2.65016 2.81322 3.43104 2.45723 4.29044C2.10125 5.14984 1.91802 6.07095 1.91802 7.00116C1.91802 7.93138 2.10125 8.85248 2.45723 9.71189C2.81322 10.5713 3.33499 11.3522 3.99276 12.0099C4.10655 12.1278 4.16948 12.2858 4.16798 12.4496C4.16648 12.6135 4.10067 12.7702 3.98474 12.8861C3.8688 13.0019 3.71201 13.0675 3.54814 13.0689C3.38426 13.0702 3.22642 13.0072 3.10859 12.8932C-0.145573 9.63908 -0.145573 4.36325 3.10859 1.10908C3.22578 0.992038 3.38464 0.926297 3.55026 0.926297C3.71589 0.926297 3.87557 0.992038 3.99276 1.10908ZM14.8928 1.10908C18.1469 4.36325 18.1469 9.63991 14.8928 12.8941C14.7743 13.0045 14.6176 13.0646 14.4557 13.0617C14.2937 13.0589 14.1393 12.9933 14.0247 12.8788C13.9102 12.7643 13.8446 12.6098 13.8418 12.4478C13.8389 12.2859 13.899 12.1292 14.0094 12.0107C14.6673 11.353 15.1892 10.5721 15.5453 9.71258C15.9013 8.8531 16.0846 7.93189 16.0846 7.00158C16.0846 6.07127 15.9013 5.15006 15.5453 4.29058C15.1892 3.4311 14.6673 2.65018 14.0094 1.99241C13.948 1.93519 13.8988 1.86619 13.8646 1.78953C13.8305 1.71286 13.8121 1.6301 13.8106 1.54618C13.8091 1.46226 13.8246 1.37891 13.856 1.30108C13.8874 1.22326 13.9342 1.15256 13.9936 1.09321C14.0529 1.03387 14.1236 0.987079 14.2014 0.955644C14.2793 0.92421 14.3626 0.908773 14.4465 0.910254C14.5304 0.911734 14.6132 0.930103 14.6899 0.964262C14.7665 0.998422 14.8355 1.04767 14.8928 1.10908ZM6.34943 3.46575C6.46647 3.58293 6.53221 3.74179 6.53221 3.90741C6.53221 4.07304 6.46647 4.23189 6.34943 4.34908C6.00108 4.69732 5.72475 5.11077 5.53621 5.56582C5.34768 6.02087 5.25065 6.5086 5.25065 7.00116C5.25065 7.49372 5.34768 7.98146 5.53621 8.43651C5.72475 8.89156 6.00108 9.30501 6.34943 9.65325C6.45983 9.77173 6.51993 9.92843 6.51707 10.0903C6.51422 10.2523 6.44862 10.4068 6.33411 10.5213C6.2196 10.6358 6.06511 10.7014 5.9032 10.7042C5.74128 10.7071 5.58457 10.647 5.46609 10.5366C4.52848 9.59891 4.00175 8.32719 4.00175 7.00116C4.00175 5.67514 4.52848 4.40342 5.46609 3.46575C5.58328 3.3487 5.74214 3.28296 5.90776 3.28296C6.07339 3.28296 6.23224 3.3487 6.34943 3.46575ZM12.5369 3.46575C13.4745 4.40342 14.0013 5.67514 14.0013 7.00116C14.0013 8.32719 13.4745 9.59891 12.5369 10.5366C12.4793 10.5963 12.4104 10.6439 12.3341 10.6767C12.2579 10.7095 12.1759 10.7268 12.0929 10.7276C12.0099 10.7283 11.9276 10.7126 11.8508 10.6812C11.774 10.6498 11.7041 10.6034 11.6454 10.5447C11.5867 10.4861 11.5403 10.4163 11.5088 10.3395C11.4774 10.2627 11.4615 10.1804 11.4622 10.0975C11.4629 10.0145 11.4801 9.93245 11.5128 9.85618C11.5455 9.77992 11.5931 9.71093 11.6528 9.65325C12.001 9.30503 12.2772 8.89163 12.4657 8.43665C12.6541 7.98168 12.7511 7.49404 12.7511 7.00158C12.7511 6.50912 12.6541 6.02148 12.4657 5.56651C12.2772 5.11153 12.001 4.69813 11.6528 4.34991C11.5424 4.23143 11.4823 4.07473 11.4851 3.91281C11.488 3.75089 11.5536 3.59641 11.6681 3.4819C11.7826 3.36738 11.9371 3.30179 12.099 3.29893C12.2609 3.29608 12.4176 3.35618 12.5361 3.46658M9.00109 5.75158C9.33261 5.75158 9.65056 5.88328 9.88498 6.1177C10.1194 6.35212 10.2511 6.67006 10.2511 7.00158C10.2511 7.3331 10.1194 7.65104 9.88498 7.88546C9.65056 8.11988 9.33261 8.25158 9.00109 8.25158C8.66957 8.25158 8.35163 8.11988 8.11721 7.88546C7.88279 7.65104 7.75109 7.3331 7.75109 7.00158C7.75109 6.67006 7.88279 6.35212 8.11721 6.1177C8.35163 5.88328 8.66957 5.75158 9.00109 5.75158Z" fill="black" fill-opacity="0.2"/>
</svg>
