<svg width="20" height="20" viewBox="0 0 20 20" fill="none" xmlns="http://www.w3.org/2000/svg">
<path d="M13 15.6252C12.926 17.4772 11.383 19.0492 9.316 18.9992C8.835 18.9872 8.24 18.8192 7.051 18.4842C4.19 17.6772 1.706 16.3202 1.11 13.2812C1 12.7242 1 12.0952 1 10.8372V9.16316C1 7.90616 1 7.27716 1.11 6.71816C1.706 3.68016 4.19 2.32316 7.051 1.51616C8.241 1.18116 8.835 1.01316 9.316 1.00116C11.383 0.951161 12.926 2.52316 13 4.37516M19 10.0002H8M19 10.0002C19 9.30016 17.006 7.99216 16.5 7.50016M19 10.0002C19 10.7002 17.006 12.0082 16.5 12.5002" stroke="black" stroke-width="1.5" stroke-linecap="round" stroke-linejoin="round"/>
</svg>
