<svg width="17" height="16" viewBox="0 0 17 16" fill="none" xmlns="http://www.w3.org/2000/svg">
<path d="M9.5 2C7.667 2 6.277 2.431 5.3435 3.3125C4.411 4.194 4 5.479 4 7V7.453C3.714 7.725 3.5 8.075 3.5 8.5C3.5 9.13 3.945 9.577 4.5 9.797C4.685 10.3805 4.8865 10.9935 5.11 11.5155C5.3525 12.0865 5.572 12.5395 5.875 12.8605C6.21129 13.2199 6.61779 13.5064 7.06933 13.7023C7.52086 13.8981 8.00781 13.9992 8.5 13.9992C8.99219 13.9992 9.47913 13.8981 9.93067 13.7023C10.3822 13.5064 10.7887 13.2199 11.125 12.8605C11.428 12.5395 11.6315 12.0865 11.875 11.5155C12.098 10.9935 12.315 10.3805 12.5 9.7975C13.055 9.5775 13.5 9.1305 13.5 8.5005C13.5 8.0775 13.285 7.727 13 7.4535V7C13 5.588 12.6785 4.583 12.11 3.922C11.627 3.362 10.9825 3.132 10.344 3.062L9.953 2.282L9.813 2H9.5ZM9.203 3.0315L9.547 3.719C9.7135 4.052 9.7785 4.289 9.781 4.3905C9.7835 4.492 9.7875 4.4505 9.766 4.4695C9.7225 4.506 9.301 4.6145 8.781 4.641C8.261 4.6675 7.649 4.655 7.078 4.876C6.508 5.097 6.0065 5.6895 6 6.501H7C7.004 6.008 7.1185 5.937 7.4375 5.8135C7.7565 5.69 8.3065 5.6535 8.844 5.626C9.381 5.5985 9.9355 5.631 10.4065 5.236C10.6415 5.0375 10.7915 4.696 10.7815 4.361C10.779 4.287 10.7615 4.216 10.75 4.141C10.9794 4.23872 11.1828 4.38871 11.344 4.579C11.7065 5 12 5.741 12 7V7.922L12.25 8.062C12.402 8.1505 12.5 8.31 12.5 8.5C12.5029 8.62551 12.4576 8.74735 12.3733 8.84038C12.289 8.93342 12.1722 8.99055 12.047 9L11.703 9.015L11.6095 9.3435C11.4251 9.94238 11.2112 10.5318 10.9685 11.1095C10.7435 11.6375 10.485 12.0875 10.406 12.1715C9.341 13.2965 7.6575 13.2965 6.5935 12.1715C6.5135 12.0875 6.256 11.6375 6.0305 11.109C5.78818 10.5312 5.57459 9.94186 5.3905 9.343L5.2965 9.0145L4.9525 8.9995C4.82749 8.98994 4.71091 8.93282 4.62673 8.8399C4.54256 8.74699 4.4972 8.62534 4.5 8.5C4.5 8.313 4.5965 8.151 4.75 8.0625L5 7.9225V7C5 5.6515 5.342 4.682 6.0315 4.031C6.6715 3.426 7.7165 3.081 9.203 3.031V3.0315ZM7 8C6.86739 8 6.74021 8.05268 6.64645 8.14645C6.55268 8.24021 6.5 8.36739 6.5 8.5C6.5 8.63261 6.55268 8.75979 6.64645 8.85355C6.74021 8.94732 6.86739 9 7 9C7.13261 9 7.25979 8.94732 7.35355 8.85355C7.44732 8.75979 7.5 8.63261 7.5 8.5C7.5 8.36739 7.44732 8.24021 7.35355 8.14645C7.25979 8.05268 7.13261 8 7 8ZM10 8C9.86739 8 9.74021 8.05268 9.64645 8.14645C9.55268 8.24021 9.5 8.36739 9.5 8.5C9.5 8.63261 9.55268 8.75979 9.64645 8.85355C9.74021 8.94732 9.86739 9 10 9C10.1326 9 10.2598 8.94732 10.3536 8.85355C10.4473 8.75979 10.5 8.63261 10.5 8.5C10.5 8.36739 10.4473 8.24021 10.3536 8.14645C10.2598 8.05268 10.1326 8 10 8Z" fill="#00809D"/>
</svg>
