<svg width="16" height="14" viewBox="0 0 16 14" fill="none" xmlns="http://www.w3.org/2000/svg">
<path d="M12.949 12.4268C13.4665 12.4268 13.9119 12.2341 14.285 11.8487C14.6582 11.464 14.8448 11.0041 14.8448 10.4691C14.8448 9.93409 14.6582 9.47421 14.285 9.08946C13.9119 8.70471 13.4665 8.51203 12.949 8.51143C12.4314 8.51082 11.9858 8.7035 11.612 9.08946C11.2382 9.47542 11.0519 9.9353 11.0531 10.4691C11.0543 11.0029 11.2406 11.4631 11.612 11.8497C11.9834 12.2362 12.4297 12.4286 12.949 12.4268ZM12.8909 13.9991C12.787 13.9991 12.692 13.9603 12.6057 13.8828C12.5194 13.8046 12.4713 13.7119 12.4613 13.6046L12.4138 13.1957C12.0794 13.1199 11.8042 13.02 11.5882 12.8957C11.3723 12.7721 11.1669 12.5973 10.9721 12.3713L10.554 12.5404C10.4531 12.5779 10.3592 12.5822 10.2724 12.5531C10.1855 12.524 10.1128 12.4668 10.0541 12.3813L9.98017 12.2559C9.92266 12.1553 9.89714 12.0544 9.90359 11.9533C9.91005 11.8521 9.96022 11.7624 10.0541 11.6842L10.3692 11.4098C10.2724 11.088 10.224 10.7745 10.224 10.4691C10.224 10.1637 10.2724 9.85047 10.3692 9.52934L10.0541 9.25487C9.97195 9.18822 9.92178 9.10521 9.90359 9.00584C9.88599 8.90587 9.90565 8.8059 9.96257 8.70592L10.0594 8.55687C10.1169 8.47204 10.1885 8.41509 10.2741 8.386C10.3598 8.35692 10.4531 8.36086 10.554 8.39782L10.9721 8.56777C11.1669 8.33026 11.3723 8.15243 11.5882 8.03428C11.8047 7.91552 12.0799 7.81858 12.4138 7.74344L12.4613 7.3281C12.4713 7.22085 12.5194 7.12906 12.6057 7.05271C12.692 6.97637 12.787 6.9382 12.8909 6.9382H13.0062C13.11 6.9382 13.2051 6.97758 13.2913 7.05635C13.3776 7.1339 13.426 7.22631 13.4366 7.33355L13.4832 7.74254C13.8177 7.81827 14.0929 7.91522 14.3088 8.03337C14.5247 8.15152 14.7301 8.32966 14.9249 8.56777L15.3439 8.39782C15.4436 8.36086 15.5375 8.35692 15.6255 8.386C15.713 8.41509 15.7854 8.47204 15.8429 8.55687L15.9177 8.6832C15.9753 8.78317 16.0005 8.88375 15.9934 8.98494C15.987 9.08673 15.9368 9.17671 15.8429 9.25487L15.5278 9.52843C15.6252 9.85017 15.6739 10.1637 15.6739 10.4691C15.6739 10.7745 15.6252 11.088 15.5278 11.4098L15.8429 11.6842C15.9251 11.7509 15.9753 11.8339 15.9934 11.9333C16.0116 12.0326 15.992 12.1326 15.9345 12.2332L15.8377 12.3813C15.7801 12.4662 15.7086 12.5234 15.6229 12.5531C15.5372 12.5828 15.4442 12.5786 15.3439 12.5404L14.9258 12.3713C14.7304 12.5973 14.5247 12.7724 14.3088 12.8967C14.0923 13.0203 13.8171 13.1202 13.4832 13.1966L13.4366 13.6101C13.426 13.7173 13.3776 13.8091 13.2913 13.8855C13.2051 13.9618 13.11 14 13.0062 14L12.8909 13.9991ZM0.880163 11.8151V0.908855V4.93963V4.54427V11.8151ZM1.42234 12.724C1.01688 12.724 0.678606 12.584 0.407516 12.3041C0.136425 12.0242 0.000586775 11.6745 0 11.2553V1.46871C0 1.05003 0.135839 0.700727 0.407516 0.4208C0.679193 0.140872 1.01717 0.000605903 1.42146 0H5.21497C5.40449 0 5.58874 0.0393838 5.76771 0.118151C5.94668 0.19813 6.09982 0.303861 6.22715 0.435342L7.56588 1.81771H14.4215C14.8263 1.81771 15.1646 1.95798 15.4363 2.23851C15.708 2.51904 15.8435 2.86835 15.8429 3.28642V5.1214C15.8429 5.25045 15.801 5.35831 15.7171 5.44495C15.6332 5.53159 15.5284 5.57522 15.4029 5.57583C15.2773 5.57643 15.1725 5.53281 15.0886 5.44495C15.0047 5.35709 14.9628 5.24924 14.9628 5.1214V3.28551C14.9628 3.12252 14.912 2.98862 14.8105 2.8838C14.709 2.77898 14.5793 2.72656 14.4215 2.72656H7.21294L5.45261 0.908855H1.42146C1.26362 0.908855 1.13394 0.961265 1.03243 1.06609C0.930919 1.17091 0.880163 1.30512 0.880163 1.46871V11.2562C0.880163 11.4192 0.930919 11.5531 1.03243 11.6579C1.13394 11.7627 1.26391 11.8151 1.42234 11.8151H7.73575C7.86074 11.8151 7.96518 11.8584 8.04909 11.9451C8.133 12.0317 8.17525 12.1399 8.17583 12.2695C8.17642 12.3992 8.13417 12.5074 8.04909 12.594C7.96401 12.6806 7.85956 12.724 7.73575 12.724H1.42234Z" fill="black"/>
</svg>
