<svg width="23" height="31" viewBox="0 0 23 31" fill="none" xmlns="http://www.w3.org/2000/svg">
<path d="M11.5 0.1875C5.46934 0.1875 0.5625 4.88037 0.5625 10.6465C0.5625 13.3925 1.81416 17.0442 4.28262 21.5006C6.26504 25.0785 8.5585 28.314 9.75137 29.9238C9.95294 30.1989 10.2165 30.4226 10.5206 30.5768C10.8248 30.731 11.161 30.8114 11.5021 30.8114C11.8431 30.8114 12.1793 30.731 12.4835 30.5768C12.7876 30.4226 13.0512 30.1989 13.2527 29.9238C14.4436 28.314 16.7391 25.0785 18.7215 21.5006C21.1858 17.0456 22.4375 13.3938 22.4375 10.6465C22.4375 4.88037 17.5307 0.1875 11.5 0.1875ZM11.5 15.5C10.6347 15.5 9.78885 15.2434 9.06938 14.7627C8.34992 14.2819 7.78916 13.5987 7.45803 12.7992C7.12689 11.9998 7.04025 11.1201 7.20906 10.2715C7.37787 9.42281 7.79455 8.64326 8.40641 8.03141C9.01826 7.41955 9.79781 7.00287 10.6465 6.83406C11.4951 6.66525 12.3748 6.75189 13.1742 7.08303C13.9737 7.41416 14.6569 7.97492 15.1377 8.69438C15.6184 9.41385 15.875 10.2597 15.875 11.125C15.8737 12.2849 15.4124 13.397 14.5922 14.2172C13.772 15.0374 12.6599 15.4987 11.5 15.5Z" fill="white"/>
</svg>
