<svg width="16" height="12" viewBox="0 0 16 12" fill="none" xmlns="http://www.w3.org/2000/svg">
<path d="M10.1847 0L8.00229 2.11765H2.18244C1.60362 2.11765 1.04851 2.34076 0.639222 2.73789C0.229935 3.13503 0 3.67366 0 4.23529L0 6.35294C0 6.91458 0.229935 7.45321 0.639222 7.85034C1.04851 8.24748 1.60362 8.47059 2.18244 8.47059V10.5882C2.18244 10.9627 2.33573 11.3217 2.60859 11.5865C2.88145 11.8513 3.25152 12 3.6374 12H4.36488C4.75076 12 5.12084 11.8513 5.3937 11.5865C5.66655 11.3217 5.81984 10.9627 5.81984 10.5882V8.47059H8.00229L10.1847 10.5882H11.6397V0H10.1847ZM10.483 0.705882H10.9122V9.88235H10.483L8.30055 7.76471H2.18244C1.79656 7.76471 1.42649 7.61597 1.15363 7.35121C0.880771 7.08645 0.727481 6.72736 0.727481 6.35294V4.23529C0.727481 3.86087 0.880771 3.50178 1.15363 3.23703C1.42649 2.97227 1.79656 2.82353 2.18244 2.82353H8.30055L10.483 0.705882ZM13.0946 2.11765V2.82353C14.3314 3 15.2771 4.03059 15.2771 5.27294C15.2771 6.52235 14.3314 7.54588 13.0946 7.72235V8.43529C13.8942 8.34683 14.6322 7.97596 15.168 7.39339C15.7039 6.81083 16 6.0573 16 5.27647C16 4.49564 15.7039 3.74212 15.168 3.15955C14.6322 2.57698 13.8942 2.20611 13.0946 2.11765ZM13.0946 4.27765V6.27529C13.5166 6.12706 13.8221 5.73882 13.8221 5.27294C13.8221 4.81412 13.5166 4.41882 13.0946 4.27765ZM2.90992 8.47059H5.09236V10.5882C5.09236 10.7754 5.01572 10.955 4.87929 11.0874C4.74286 11.2197 4.55782 11.2941 4.36488 11.2941H3.6374C3.44446 11.2941 3.25943 11.2197 3.123 11.0874C2.98657 10.955 2.90992 10.7754 2.90992 10.5882V8.47059Z" fill="black"/>
</svg>
