<svg width="4" height="16" viewBox="0 0 4 16" fill="none" xmlns="http://www.w3.org/2000/svg">
<path d="M3.75 14C3.75 13.0335 2.9665 12.25 2 12.25C1.0335 12.25 0.25 13.0335 0.25 14C0.25 14.9665 1.0335 15.75 2 15.75C2.9665 15.75 3.75 14.9665 3.75 14Z" fill="#A19F9F"/>
<path d="M3.75 8C3.75 7.0335 2.9665 6.25 2 6.25C1.0335 6.25 0.25 7.0335 0.25 8C0.25 8.9665 1.0335 9.75 2 9.75C2.9665 9.75 3.75 8.9665 3.75 8Z" fill="#A19F9F"/>
<path d="M3.75 2C3.75 1.0335 2.9665 0.25 2 0.25C1.0335 0.25 0.25 1.0335 0.25 2C0.25 2.9665 1.0335 3.75 2 3.75C2.9665 3.75 3.75 2.9665 3.75 2Z" fill="#A19F9F"/>
</svg>
