<svg width="16" height="4" viewBox="0 0 16 4" fill="none" xmlns="http://www.w3.org/2000/svg">
<path d="M2 3.74982C2.9665 3.74982 3.75 2.96632 3.75 1.99982C3.75 1.03332 2.9665 0.249817 2 0.249817C1.0335 0.249817 0.25 1.03332 0.25 1.99982C0.25 2.96632 1.0335 3.74982 2 3.74982Z" fill="black"/>
<path d="M8 3.74982C8.9665 3.74982 9.75 2.96632 9.75 1.99982C9.75 1.03332 8.9665 0.249817 8 0.249817C7.0335 0.249817 6.25 1.03332 6.25 1.99982C6.25 2.96632 7.0335 3.74982 8 3.74982Z" fill="black"/>
<path d="M14 3.74982C14.9665 3.74982 15.75 2.96632 15.75 1.99982C15.75 1.03332 14.9665 0.249817 14 0.249817C13.0335 0.249817 12.25 1.03332 12.25 1.99982C12.25 2.96632 13.0335 3.74982 14 3.74982Z" fill="black"/>
</svg>
