<svg width="17" height="4" viewBox="0 0 17 4" fill="none" xmlns="http://www.w3.org/2000/svg">
<path d="M2.5 3.75C3.4665 3.75 4.25 2.9665 4.25 2C4.25 1.0335 3.4665 0.25 2.5 0.25C1.5335 0.25 0.75 1.0335 0.75 2C0.75 2.9665 1.5335 3.75 2.5 3.75Z" fill="#3666AA"/>
<path d="M8.5 3.75C9.4665 3.75 10.25 2.9665 10.25 2C10.25 1.0335 9.4665 0.25 8.5 0.25C7.5335 0.25 6.75 1.0335 6.75 2C6.75 2.9665 7.5335 3.75 8.5 3.75Z" fill="#3666AA"/>
<path d="M14.5 3.75C15.4665 3.75 16.25 2.9665 16.25 2C16.25 1.0335 15.4665 0.25 14.5 0.25C13.5335 0.25 12.75 1.0335 12.75 2C12.75 2.9665 13.5335 3.75 14.5 3.75Z" fill="#3666AA"/>
</svg>
