<svg width="24" height="25" viewBox="0 0 24 25" fill="none" xmlns="http://www.w3.org/2000/svg">
<rect y="0.5" width="24" height="24" rx="12" fill="#FFC62B"/>
<path d="M8.5 16.1571V8.84286C8.5 8.75193 8.53687 8.66472 8.60251 8.60042C8.66815 8.53612 8.75717 8.5 8.85 8.5H10.4833C10.5762 8.5 10.6652 8.53612 10.7308 8.60042C10.7965 8.66472 10.8333 8.75193 10.8333 8.84286V16.1571C10.8333 16.2481 10.7965 16.3353 10.7308 16.3996C10.6652 16.4639 10.5762 16.5 10.4833 16.5H8.85C8.75717 16.5 8.66815 16.4639 8.60251 16.3996C8.53687 16.3353 8.5 16.2481 8.5 16.1571ZM13.1667 16.1571V8.84286C13.1667 8.75193 13.2035 8.66472 13.2692 8.60042C13.3348 8.53612 13.4238 8.5 13.5167 8.5H15.15C15.2428 8.5 15.3318 8.53612 15.3975 8.60042C15.4631 8.66472 15.5 8.75193 15.5 8.84286V16.1571C15.5 16.2481 15.4631 16.3353 15.3975 16.3996C15.3318 16.4639 15.2428 16.5 15.15 16.5H13.5167C13.4238 16.5 13.3348 16.4639 13.2692 16.3996C13.2035 16.3353 13.1667 16.2481 13.1667 16.1571Z" fill="white" stroke="white" stroke-width="1.2"/>
</svg>
