<svg width="21" height="21" viewBox="0 0 21 21" fill="none" xmlns="http://www.w3.org/2000/svg">
<path d="M16.4088 12.5342V16.2342C16.4086 16.7577 16.2006 17.2597 15.8304 17.6299C15.4602 18.0001 14.9582 18.2081 14.4347 18.2084H4.76717C4.50697 18.2082 4.24935 18.1567 4.00912 18.0567C3.76889 17.9568 3.55078 17.8103 3.36733 17.6258C3.18388 17.4412 3.0387 17.2223 2.94014 16.9815C2.84158 16.7406 2.79158 16.4827 2.793 16.2225V6.56586C2.79146 6.30606 2.84148 6.04854 2.94019 5.80823C3.03889 5.56791 3.18431 5.34957 3.36802 5.16587C3.55172 4.98216 3.77006 4.83674 4.01038 4.73804C4.25069 4.63933 4.50821 4.58931 4.768 4.59086H8.46717" stroke="#3666AA" stroke-width="1.25" stroke-linecap="round" stroke-linejoin="round"/>
<path d="M16.4078 7.99589L13.0036 4.59089M6.19531 13.6692V11.8651C6.19698 11.5676 6.31531 11.2817 6.52448 11.0709L14.4678 3.12755C14.5732 3.02098 14.6987 2.93636 14.837 2.87862C14.9754 2.82087 15.1238 2.79114 15.2736 2.79114C15.4235 2.79114 15.5719 2.82087 15.7103 2.87862C15.8486 2.93636 15.9741 3.02098 16.0795 3.12755L17.872 4.92005C17.9786 5.02545 18.0632 5.15095 18.1209 5.28927C18.1787 5.42759 18.2084 5.57599 18.2084 5.72589C18.2084 5.87578 18.1787 6.02418 18.1209 6.16251C18.0632 6.30083 17.9786 6.42632 17.872 6.53172L9.92865 14.4751C9.71743 14.6848 9.43216 14.8031 9.13448 14.8042H7.33031C7.1812 14.8044 7.03351 14.7752 6.89571 14.7183C6.7579 14.6613 6.6327 14.5777 6.52726 14.4723C6.42182 14.3668 6.33822 14.2416 6.28126 14.1038C6.2243 13.966 6.19509 13.8183 6.19531 13.6692Z" stroke="#3666AA" stroke-width="1.25" stroke-linecap="round" stroke-linejoin="round"/>
</svg>
