<svg width="18" height="18" viewBox="0 0 18 18" fill="none" xmlns="http://www.w3.org/2000/svg">
<path d="M2.25 12.9393V15.7518H5.0625L13.3575 7.45683L10.545 4.64433L2.25 12.9393ZM15.5325 5.28183C15.602 5.21245 15.6572 5.13003 15.6948 5.0393C15.7325 4.94857 15.7518 4.85131 15.7518 4.75308C15.7518 4.65486 15.7325 4.55759 15.6948 4.46686C15.6572 4.37613 15.602 4.29372 15.5325 4.22433L13.7775 2.46933C13.7081 2.39981 13.6257 2.34464 13.535 2.30701C13.4442 2.26937 13.347 2.25 13.2488 2.25C13.1505 2.25 13.0533 2.26937 12.9625 2.30701C12.8718 2.34464 12.7894 2.39981 12.72 2.46933L11.3475 3.84183L14.16 6.65433L15.5325 5.28183Z" fill="white"/>
</svg>
