<svg width="18" height="18" viewBox="0 0 18 18" fill="none" xmlns="http://www.w3.org/2000/svg">
<path d="M0.75 14.0033V16.79C0.75 17.0467 0.951667 17.2483 1.20833 17.2483H3.995C4.11417 17.2483 4.23333 17.2025 4.31583 17.1108L14.3258 7.11L10.8883 3.6725L0.8875 13.6733C0.795833 13.765 0.75 13.875 0.75 14.0033ZM16.9842 4.45167C17.0691 4.36686 17.1366 4.26613 17.1826 4.15524C17.2286 4.04435 17.2522 3.92547 17.2522 3.80542C17.2522 3.68536 17.2286 3.56649 17.1826 3.4556C17.1366 3.3447 17.0691 3.24397 16.9842 3.15917L14.8392 1.01417C14.7544 0.929189 14.6536 0.861771 14.5427 0.815771C14.4318 0.769771 14.313 0.746094 14.1929 0.746094C14.0729 0.746094 13.954 0.769771 13.8431 0.815771C13.7322 0.861771 13.6315 0.929189 13.5467 1.01417L11.8692 2.69167L15.3067 6.12917L16.9842 4.45167Z" fill="#3666AA"/>
</svg>
