<svg width="19" height="18" viewBox="0 0 19 18" fill="none" xmlns="http://www.w3.org/2000/svg">
<path d="M16.2143 2.28607C15.7108 1.7832 15.0283 1.50073 14.3168 1.50073C13.6052 1.50073 12.9227 1.7832 12.4193 2.28607L3.45527 11.2501C3.15042 11.5546 2.9362 11.9379 2.83652 12.3571L2.01527 15.8086C1.99303 15.9021 1.99512 15.9997 2.02132 16.0921C2.04753 16.1846 2.09699 16.2688 2.16497 16.3367C2.23296 16.4046 2.31721 16.454 2.40969 16.4801C2.50218 16.5062 2.5998 16.5082 2.69327 16.4858L6.14402 15.6638C6.56349 15.5643 6.94703 15.35 7.25177 15.0451L16.2143 6.08257C16.7171 5.57912 16.9996 4.89665 16.9996 4.18507C16.9996 3.47349 16.7171 2.79102 16.2143 2.28757M13.2143 3.08257C13.359 2.93779 13.5309 2.82294 13.7201 2.74458C13.9093 2.66623 14.112 2.6259 14.3168 2.6259C14.5215 2.6259 14.7243 2.66623 14.9134 2.74458C15.1026 2.82294 15.2745 2.93779 15.4193 3.08257C15.564 3.22735 15.6789 3.39923 15.7573 3.5884C15.8356 3.77757 15.8759 3.98032 15.8759 4.18507C15.8759 4.38982 15.8356 4.59257 15.7573 4.78174C15.6789 4.97091 15.564 5.14279 15.4193 5.28757L14.7503 5.95432L12.5453 3.75007L13.2143 3.08257ZM11.7503 4.54657L13.9553 6.75007L6.45527 14.2501C6.29777 14.4076 6.09977 14.5178 5.88302 14.5696L3.32102 15.1801L3.93077 12.6181C3.98252 12.4006 4.09352 12.2026 4.25102 12.0451L11.7503 4.54657Z" fill="#3666AA"/>
</svg>
