<svg width="15" height="18" viewBox="0 0 15 18" fill="none" xmlns="http://www.w3.org/2000/svg">
<path d="M7.50127 1.5C6.83823 1.5 6.20234 1.76339 5.7335 2.23223C5.26466 2.70107 5.00127 3.33696 5.00127 4C5.00127 4.66304 5.26466 5.29893 5.7335 5.76777C6.20234 6.23661 6.83823 6.5 7.50127 6.5C8.16431 6.5 8.80019 6.23661 9.26904 5.76777C9.73788 5.29893 10.0013 4.66304 10.0013 4C10.0013 3.33696 9.73788 2.70107 9.26904 2.23223C8.80019 1.76339 8.16431 1.5 7.50127 1.5ZM4.00127 4C4.00127 3.54037 4.0918 3.08525 4.26769 2.66061C4.44358 2.23597 4.70139 1.85013 5.0264 1.52513C5.3514 1.20012 5.73724 0.942313 6.16188 0.766422C6.58652 0.59053 7.04164 0.5 7.50127 0.5C7.9609 0.5 8.41602 0.59053 8.84066 0.766422C9.2653 0.942313 9.65114 1.20012 9.97614 1.52513C10.3011 1.85013 10.559 2.23597 10.7348 2.66061C10.9107 3.08525 11.0013 3.54037 11.0013 4C11.0013 4.92826 10.6325 5.8185 9.97614 6.47487C9.31977 7.13125 8.42953 7.5 7.50127 7.5C6.57301 7.5 5.68277 7.13125 5.0264 6.47487C4.37002 5.8185 4.00127 4.92826 4.00127 4ZM4.87127 9.546C4.63794 9.606 4.40694 9.67333 4.17827 9.748L3.21927 10.063C2.82754 10.1905 2.47375 10.4137 2.18986 10.7122C1.90598 11.0108 1.70094 11.3753 1.59327 11.773L1.19427 14.653C1.10427 15.3 1.44727 15.833 1.99027 15.963C3.05727 16.218 4.84127 16.5 7.50027 16.5C10.1603 16.5 11.9453 16.218 13.0123 15.963C13.5553 15.833 13.8973 15.3 13.8083 14.653L13.4083 11.773C13.3006 11.3753 13.0956 11.0108 12.8117 10.7122C12.5278 10.4137 12.174 10.1905 11.7823 10.063L10.8233 9.748C10.5946 9.67267 10.3639 9.60533 10.1313 9.546C9.95063 9.68774 9.7594 9.81545 9.55927 9.928C8.93269 10.2879 8.22385 10.4801 7.50127 10.486C6.64127 10.486 5.93127 10.203 5.44327 9.928C5.24279 9.81549 5.05223 9.68778 4.87127 9.546ZM5.15527 8.451L5.34927 8.642L5.35427 8.647L5.37827 8.669C5.4016 8.69033 5.4386 8.721 5.48927 8.761C5.58927 8.841 5.74027 8.949 5.93327 9.057C6.32027 9.275 6.86027 9.486 7.50027 9.486C8.14027 9.486 8.68027 9.276 9.06727 9.057C9.26403 8.94585 9.44956 8.81591 9.62127 8.669L9.64627 8.646L9.65027 8.643L9.84427 8.451L10.1123 8.513C10.4563 8.59167 10.7969 8.68667 11.1343 8.798L12.0943 9.113C12.6507 9.29368 13.1525 9.61212 13.5528 10.0387C13.9532 10.4653 14.2392 10.9862 14.3843 11.553L14.3913 11.58L14.7973 14.516C14.9443 15.576 14.3773 16.666 13.2433 16.936C12.0933 17.21 10.2303 17.5 7.50027 17.5C4.77027 17.5 2.90727 17.21 1.75727 16.936C0.623269 16.666 0.0562689 15.576 0.202269 14.516L0.609268 11.58L0.616268 11.553C0.76133 10.9862 1.04734 10.4653 1.44771 10.0387C1.84809 9.61212 2.34982 9.29368 2.90627 9.113L3.86627 8.798C4.2036 8.68733 4.54427 8.59233 4.88827 8.513L5.15527 8.451Z" fill="#00809D"/>
</svg>
