<svg width="13" height="16" viewBox="0 0 13 16" fill="none" xmlns="http://www.w3.org/2000/svg">
<path d="M6.91984 14.615C6.79743 14.7029 6.65053 14.7502 6.49984 14.7502C6.34914 14.7502 6.20224 14.7029 6.07984 14.615C2.45809 12.0335 -1.38567 6.7235 2.50009 2.8865C3.56684 1.83714 5.00346 1.24934 6.49984 1.25C7.99984 1.25 9.43909 1.83875 10.4996 2.88575C14.3853 6.72275 10.5416 12.032 6.91984 14.615Z" stroke="#919191" stroke-linecap="round" stroke-linejoin="round"/>
<path d="M6.5 8C6.89782 8 7.27936 7.84196 7.56066 7.56066C7.84196 7.27936 8 6.89782 8 6.5C8 6.10218 7.84196 5.72064 7.56066 5.43934C7.27936 5.15804 6.89782 5 6.5 5C6.10218 5 5.72064 5.15804 5.43934 5.43934C5.15804 5.72064 5 6.10218 5 6.5C5 6.89782 5.15804 7.27936 5.43934 7.56066C5.72064 7.84196 6.10218 8 6.5 8Z" stroke="#919191" stroke-linecap="round" stroke-linejoin="round"/>
</svg>
