<svg width="18" height="19" viewBox="0 0 18 19" fill="none" xmlns="http://www.w3.org/2000/svg">
<path d="M9.41984 16.115C9.29743 16.2029 9.15053 16.2502 8.99984 16.2502C8.84914 16.2502 8.70224 16.2029 8.57984 16.115C4.95809 13.5335 1.11434 8.2235 5.00009 4.3865C6.06684 3.33714 7.50346 2.74934 8.99984 2.75C10.4998 2.75 11.9391 3.33875 12.9996 4.38575C16.8853 8.22275 13.0416 13.532 9.41984 16.115Z" stroke="black" stroke-linecap="round" stroke-linejoin="round"/>
<path d="M9 9.5C9.39782 9.5 9.77936 9.34196 10.0607 9.06066C10.342 8.77936 10.5 8.39782 10.5 8C10.5 7.60218 10.342 7.22064 10.0607 6.93934C9.77936 6.65804 9.39782 6.5 9 6.5C8.60218 6.5 8.22064 6.65804 7.93934 6.93934C7.65804 7.22064 7.5 7.60218 7.5 8C7.5 8.39782 7.65804 8.77936 7.93934 9.06066C8.22064 9.34196 8.60218 9.5 9 9.5Z" stroke="black" stroke-linecap="round" stroke-linejoin="round"/>
</svg>
