<svg width="24" height="25" viewBox="0 0 24 25" fill="none" xmlns="http://www.w3.org/2000/svg">
<rect y="0.5" width="24" height="24" rx="12" fill="#FFC62B"/>
<path fill-rule="evenodd" clip-rule="evenodd" d="M7.28316 8.06356C7.36855 8.01609 7.46448 7.99456 7.56053 8.0013C7.65657 8.00805 7.74905 8.04281 7.82789 8.10181L13.0911 12.0393C13.1603 12.0912 13.2169 12.1601 13.2559 12.2403C13.295 12.3205 13.3154 12.4096 13.3154 12.5C13.3154 12.5904 13.295 12.6795 13.2559 12.7597C13.2169 12.8399 13.1603 12.9088 13.0911 12.9607L7.82789 16.8982C7.74903 16.9571 7.65656 16.9918 7.56053 16.9985C7.46451 17.0052 7.36861 16.9836 7.28326 16.9361C7.1979 16.8886 7.12637 16.817 7.07643 16.7291C7.02649 16.6412 7.00005 16.5403 7 16.4375V8.5625C6.99999 8.45961 7.02638 8.35869 7.07631 8.27072C7.12623 8.18275 7.19778 8.1111 7.28316 8.06356ZM14.3684 9.0125C14.3684 8.74397 14.4682 8.48643 14.6459 8.29655C14.8236 8.10667 15.0645 8 15.3158 8H16.0526C16.177 8 16.3002 8.02619 16.4152 8.07707C16.5301 8.12795 16.6346 8.20254 16.7225 8.29655C16.8105 8.39057 16.8803 8.50219 16.9279 8.62503C16.9755 8.74788 17 8.87954 17 9.0125V15.9875C17 16.1205 16.9755 16.2521 16.9279 16.375C16.8803 16.4978 16.8105 16.6094 16.7225 16.7034C16.6346 16.7975 16.5301 16.872 16.4152 16.9229C16.3002 16.9738 16.177 17 16.0526 17H15.3158C15.0645 17 14.8236 16.8933 14.6459 16.7034C14.4682 16.5136 14.3684 16.256 14.3684 15.9875V9.0125Z" fill="white"/>
</svg>
