<svg width="18" height="19" viewBox="0 0 18 19" fill="none" xmlns="http://www.w3.org/2000/svg">
<path d="M16.875 8.375H10.125V1.625C10.125 1.32663 10.0065 1.04048 9.7955 0.829505C9.58452 0.618527 9.29837 0.5 9 0.5C8.70163 0.5 8.41548 0.618527 8.2045 0.829505C7.99353 1.04048 7.875 1.32663 7.875 1.625V8.375H1.125C0.826631 8.375 0.540483 8.49353 0.329505 8.7045C0.118527 8.91548 0 9.20163 0 9.5C0 9.79837 0.118527 10.0845 0.329505 10.2955C0.540483 10.5065 0.826631 10.625 1.125 10.625H7.875V17.375C7.875 17.6734 7.99353 17.9595 8.2045 18.1705C8.41548 18.3815 8.70163 18.5 9 18.5C9.29837 18.5 9.58452 18.3815 9.7955 18.1705C10.0065 17.9595 10.125 17.6734 10.125 17.375V10.625H16.875C17.1734 10.625 17.4595 10.5065 17.6705 10.2955C17.8815 10.0845 18 9.79837 18 9.5C18 9.20163 17.8815 8.91548 17.6705 8.7045C17.4595 8.49353 17.1734 8.375 16.875 8.375Z" fill="white"/>
</svg>
