<svg width="22" height="22" viewBox="0 0 22 22" fill="none" xmlns="http://www.w3.org/2000/svg">
<path fill-rule="evenodd" clip-rule="evenodd" d="M5.18239 1.02125C9.04974 0.593056 12.9525 0.593056 16.8199 1.02125C18.9611 1.26125 20.6886 2.9475 20.9399 5.09625C21.3982 9.01874 21.3982 12.9813 20.9399 16.9037C20.6886 19.0525 18.9611 20.7388 16.8199 20.9788C12.9525 21.4069 9.04974 21.4069 5.18239 20.9788C3.04114 20.7388 1.31364 19.0525 1.06239 16.9037C0.604205 12.9817 0.604205 9.01958 1.06239 5.0975C1.18947 4.05359 1.66536 3.08318 2.41293 2.34355C3.16049 1.60393 4.13593 1.13843 5.18114 1.0225M11.0011 4.75875C11.2498 4.75875 11.4882 4.85752 11.664 5.03334C11.8399 5.20915 11.9386 5.44761 11.9386 5.69625V10.0625H16.3049C16.5535 10.0625 16.792 10.1613 16.9678 10.3371C17.1436 10.5129 17.2424 10.7514 17.2424 11C17.2424 11.2486 17.1436 11.4871 16.9678 11.6629C16.792 11.8387 16.5535 11.9375 16.3049 11.9375H11.9386V16.3037C11.9386 16.5524 11.8399 16.7908 11.664 16.9667C11.4882 17.1425 11.2498 17.2412 11.0011 17.2412C10.7525 17.2412 10.514 17.1425 10.3382 16.9667C10.1624 16.7908 10.0636 16.5524 10.0636 16.3037V11.9375H5.69739C5.44875 11.9375 5.21029 11.8387 5.03447 11.6629C4.85866 11.4871 4.75989 11.2486 4.75989 11C4.75989 10.7514 4.85866 10.5129 5.03447 10.3371C5.21029 10.1613 5.44875 10.0625 5.69739 10.0625H10.0636V5.69625C10.0636 5.44761 10.1624 5.20915 10.3382 5.03334C10.514 4.85752 10.7525 4.75875 11.0011 4.75875Z" fill="#3666AA"/>
</svg>
