<svg width="19" height="19" viewBox="0 0 19 19" fill="none" xmlns="http://www.w3.org/2000/svg">
<path d="M15.5 11.5H16C16.943 11.5 17.414 11.5 17.707 11.207C18 10.914 18 10.443 18 9.5V8.5C18 6.614 18 5.672 17.414 5.086C16.828 4.5 15.886 4.5 14 4.5H5C3.114 4.5 2.172 4.5 1.586 5.086C1 5.672 1 6.614 1 8.5V10.5C1 10.971 1 11.207 1.146 11.354C1.293 11.5 1.529 11.5 2 11.5H3.5" stroke="black"/>
<path d="M4 17.806V9.5C4 8.557 4 8.086 4.293 7.793C4.586 7.5 5.057 7.5 6 7.5H13C13.943 7.5 14.414 7.5 14.707 7.793C15 8.086 15 8.557 15 9.5V17.806C15 18.123 15 18.281 14.896 18.356C14.792 18.431 14.642 18.381 14.342 18.281L12.174 17.558C12.1193 17.5338 12.0607 17.5195 12.001 17.516C11.9413 17.5229 11.8834 17.5405 11.83 17.568L9.686 18.426C9.62818 18.4563 9.565 18.475 9.5 18.481C9.435 18.475 9.37182 18.4563 9.314 18.426L7.17 17.568C7.086 17.534 7.044 17.518 7 17.516C6.956 17.514 6.912 17.529 6.826 17.558L4.658 18.281C4.358 18.381 4.208 18.431 4.104 18.356C4 18.281 4 18.123 4 17.806Z" stroke="black"/>
<path d="M7 11.5H11M7 14.5H12" stroke="black" stroke-linecap="round"/>
<path d="M15 4.5V4.1C15 2.403 15 1.554 14.473 1.027C13.946 0.5 13.097 0.5 11.4 0.5H7.6C5.903 0.5 5.054 0.5 4.527 1.027C4 1.554 4 2.403 4 4.1V4.5" stroke="black"/>
</svg>
