<svg width="15" height="16" viewBox="0 0 15 16" fill="none" xmlns="http://www.w3.org/2000/svg">
<path d="M2.24609 9.995V8.96625C2.24609 8.67625 2.32109 8.42688 2.47109 8.21813C2.62109 8.00938 2.82318 7.84271 3.07734 7.71813C3.61943 7.45979 4.15776 7.25396 4.69234 7.10063C5.22651 6.94688 5.86943 6.87 6.62109 6.87C7.07401 6.87 7.48547 6.90042 7.85547 6.96125C8.22589 7.0225 8.58005 7.10709 8.91797 7.215C8.83464 7.28917 8.7588 7.37 8.69047 7.4575C8.62172 7.545 8.55818 7.63167 8.49984 7.7175C8.21943 7.6425 7.92505 7.58667 7.61672 7.55C7.30797 7.51334 6.97609 7.495 6.62109 7.495C5.95776 7.495 5.36776 7.56125 4.85109 7.69375C4.33401 7.82667 3.84234 8.01771 3.37609 8.26688C3.18609 8.36688 3.05443 8.47188 2.98109 8.58188C2.90776 8.69146 2.87109 8.81959 2.87109 8.96625V9.37H7.85797C7.84547 9.47167 7.83922 9.57334 7.83922 9.675C7.83922 9.77667 7.8413 9.88334 7.84547 9.995H2.24609ZM6.62109 5.47625C6.10568 5.47625 5.66422 5.2925 5.29672 4.925C4.92922 4.5575 4.74589 4.11625 4.74672 3.60125C4.74755 3.08625 4.93089 2.64459 5.29672 2.27625C5.66255 1.90792 6.10422 1.72459 6.62172 1.72625C7.13922 1.72792 7.58047 1.91125 7.94547 2.27625C8.31047 2.64125 8.49401 3.08292 8.49609 3.60125C8.49818 4.11959 8.31464 4.56084 7.94547 4.925C7.5763 5.28917 7.13484 5.47292 6.62109 5.47625ZM6.62109 4.85125C6.96484 4.85125 7.25922 4.72875 7.50422 4.48375C7.74922 4.23875 7.87151 3.94459 7.87109 3.60125C7.87068 3.25792 7.74839 2.96354 7.50422 2.71813C7.26005 2.47271 6.96568 2.35042 6.62109 2.35125C6.27651 2.35209 5.98234 2.47438 5.73859 2.71813C5.49484 2.96188 5.37234 3.25625 5.37109 3.60125C5.36984 3.94625 5.49234 4.24042 5.73859 4.48375C5.98484 4.72709 6.27901 4.84959 6.62109 4.85125ZM11.1648 3.60125C11.1648 4.11667 10.9811 4.55792 10.6136 4.925C10.2461 5.29209 9.80464 5.47584 9.28922 5.47625C9.26297 5.47625 9.22943 5.47313 9.18859 5.46688C9.14776 5.46063 9.11401 5.45417 9.08734 5.4475C9.31234 5.18625 9.47839 4.89771 9.58547 4.58188C9.69255 4.26646 9.74609 3.93875 9.74609 3.59875C9.74609 3.25875 9.68859 2.93375 9.57359 2.62375C9.45859 2.31375 9.29651 2.02417 9.08734 1.755C9.12109 1.7425 9.15484 1.73459 9.18859 1.73125C9.22193 1.72792 9.25547 1.72625 9.28922 1.72625C9.80505 1.72625 10.2467 1.90959 10.6142 2.27625C10.9817 2.64292 11.1657 3.08459 11.1648 3.60125ZM11.6173 12.0263C10.9169 12.0263 10.3198 11.7794 9.82609 11.2856C9.33234 10.7919 9.08526 10.1946 9.08484 9.49375C9.08484 8.785 9.33193 8.1825 9.82609 7.68625C10.3203 7.19 10.9173 6.94209 11.6173 6.9425C12.3265 6.9425 12.9292 7.19042 13.4255 7.68625C13.9217 8.18209 14.1696 8.78459 14.1692 9.49375C14.1692 10.1946 13.9213 10.7919 13.4255 11.2856C12.9296 11.7794 12.3269 12.0263 11.6173 12.0263ZM11.2555 11.0169L13.0023 9.26688L12.6611 8.9375L11.2561 10.3306L10.5455 9.62L10.2042 9.965L11.2555 11.0169Z" fill="#01933B"/>
</svg>
