<svg width="21" height="21" viewBox="0 0 21 21" fill="none" xmlns="http://www.w3.org/2000/svg">
<g clip-path="url(#clip0_1803_60047)">
<path d="M9.25 5.5V6.75H5.5V5.5H9.25ZM5.5 9.25V8H9.25V9.25H5.5ZM5.5 11.75V10.5H8V11.75H5.5ZM4.25 5.5V6.75H3V5.5H4.25ZM4.25 8V9.25H3V8H4.25ZM3 11.75V10.5H4.25V11.75H3ZM1.75 1.75V19.25H8V20.5H0.5V0.5H11.3887L16.75 5.86133V8H15.5V6.75H10.5V1.75H1.75ZM11.75 2.63867V5.5H14.6113L11.75 2.63867ZM18 10.5H20.5V20.5H9.25V10.5H11.75V9.25H13V10.5H16.75V9.25H18V10.5ZM19.25 19.25V14.25H10.5V19.25H19.25ZM19.25 13V11.75H10.5V13H19.25Z" fill="#3666AA"/>
</g>
<defs>
<clipPath id="clip0_1803_60047">
<rect width="20" height="20" fill="white" transform="translate(0.5 0.5)"/>
</clipPath>
</defs>
</svg>
