<svg width="21" height="21" viewBox="0 0 21 21" fill="none" xmlns="http://www.w3.org/2000/svg">
<path d="M1.5 11.5V6.5H19.5V11.5C19.5 15.271 19.5 17.157 18.328 18.328C17.156 19.499 15.271 19.5 11.5 19.5H9.5C5.729 19.5 3.843 19.5 2.672 18.328C1.501 17.156 1.5 15.271 1.5 11.5Z" stroke="#3666AA" stroke-width="1.5" stroke-linecap="round" stroke-linejoin="round"/>
<path d="M1.5 6.5L2.365 4.577C3.037 3.085 3.372 2.34 4.052 1.92C4.732 1.5 5.605 1.5 7.35 1.5H13.65C15.395 1.5 16.267 1.5 16.948 1.92C17.628 2.34 17.963 3.085 18.635 4.577L19.5 6.5M10.5 6.5V1.5" stroke="#3666AA" stroke-width="1.5" stroke-linecap="round"/>
<path d="M7 12H12.5C13.0304 12 13.5391 12.2107 13.9142 12.5858C14.2893 12.9609 14.5 13.4696 14.5 14C14.5 14.5304 14.2893 15.0391 13.9142 15.4142C13.5391 15.7893 13.0304 16 12.5 16H11.5M8.5 10L6.5 12L8.5 14" stroke="#3666AA" stroke-width="1.5" stroke-linecap="round" stroke-linejoin="round"/>
</svg>
