<svg width="17" height="16" viewBox="0 0 17 16" fill="none" xmlns="http://www.w3.org/2000/svg">
<path d="M6.13158 5.63158L9.28947 8.78947M11.6579 4.84211L7.71053 8.78947M1 8C1 4.46474 1 2.69632 2.09816 1.59816C3.19632 0.5 4.96395 0.5 8.5 0.5C12.0353 0.5 13.8037 0.5 14.9018 1.59816C16 2.69632 16 4.46395 16 8C16 11.5353 16 13.3037 14.9018 14.4018C13.8037 15.5 12.0361 15.5 8.5 15.5C4.96474 15.5 3.19632 15.5 2.09816 14.4018C1 13.3037 1 11.5361 1 8Z" stroke="black" stroke-linecap="round" stroke-linejoin="round"/>
</svg>
