<svg width="22" height="20" viewBox="0 0 22 20" fill="none" xmlns="http://www.w3.org/2000/svg">
<path d="M14.0007 20.007H4.00068V18.007H14.0007V20.007ZM21.0007 2L16.2657 7.955L16.0457 8.225L10.4157 15.415C10.2299 15.6008 10.0093 15.7482 9.76647 15.8488C9.52369 15.9494 9.26347 16.0011 9.00068 16.0011C8.73789 16.0011 8.47768 15.9494 8.23489 15.8488C7.9921 15.7482 7.7715 15.6008 7.58568 15.415C7.39986 15.2292 7.25246 15.0086 7.1519 14.7658C7.05133 14.523 6.99957 14.2628 6.99957 14C6.99957 13.7372 7.05133 13.477 7.1519 13.2342C7.25246 12.9914 7.39986 12.7708 7.58568 12.585L21.0007 2ZM1.64568 5.234C0.200935 7.54743 -0.318608 10.3205 0.190682 13H1.00068V12C0.990737 10.0311 1.58018 8.10584 2.69068 6.48L1.64568 5.234ZM11.0007 1.84653e-08C9.47131 -8.87534e-05 7.95885 0.319901 6.56057 0.93939C5.16228 1.55888 3.90912 2.46416 2.88168 3.597L4.02568 4.96C5.38331 3.7119 7.15657 3.01329 9.00068 3C10.8548 3.01273 12.6372 3.71826 13.9977 4.978L17.5477 2.176C15.6572 0.763513 13.3606 0.000209156 11.0007 1.84653e-08ZM17.8307 9.2L17.5977 9.487L16.8697 10.417C16.9553 10.9404 16.9991 11.4697 17.0007 12V13H21.8107C22.2851 10.4974 21.8665 7.90765 20.6277 5.682L17.8307 9.2Z" fill="#3666AA"/>
</svg>
