<svg width="39" height="23" viewBox="0 0 39 23" fill="none" xmlns="http://www.w3.org/2000/svg">
<path d="M13.3338 8.16602H6.66714V14.8327H13.3338M13.3338 8.16602V14.8327M13.3338 8.16602H15.8338C16.3283 8.16602 16.8116 8.01939 17.2227 7.74469C17.6339 7.46999 17.9543 7.07954 18.1435 6.62273C18.3327 6.16591 18.3822 5.66324 18.2858 5.17829C18.1893 4.69334 17.9512 4.24788 17.6016 3.89825C17.2519 3.54862 16.8065 3.31052 16.3215 3.21405C15.8366 3.11759 15.3339 3.1671 14.8771 3.35632C14.4203 3.54554 14.0298 3.86597 13.7551 4.27709C13.4804 4.68821 13.3338 5.17156 13.3338 5.66602V8.16602ZM13.3338 14.8327L15.8338 14.8335C16.3283 14.8335 16.8116 14.9801 17.2227 15.2548C17.6339 15.5295 17.9543 15.92 18.1435 16.3768C18.3327 16.8336 18.3822 17.3363 18.2858 17.8212C18.1893 18.3062 17.9512 18.7517 17.6016 19.1013C17.2519 19.4509 16.8065 19.689 16.3215 19.7855C15.8366 19.8819 15.3339 19.8324 14.8771 19.6432C14.4203 19.454 14.0298 19.1336 13.7551 18.7224C13.4804 18.3113 13.3338 17.828 13.3338 17.3335V14.8327ZM6.66797 14.8335H4.16797C3.67352 14.8335 3.19017 14.9801 2.77904 15.2548C2.36792 15.5295 2.04749 15.92 1.85827 16.3768C1.66905 16.8336 1.61954 17.3363 1.71601 17.8212C1.81247 18.3062 2.05057 18.7517 2.4002 19.1013C2.74983 19.4509 3.19529 19.689 3.68024 19.7855C4.1652 19.8819 4.66786 19.8324 5.12468 19.6432C5.58149 19.454 5.97194 19.1336 6.24664 18.7224C6.52135 18.3113 6.66797 17.828 6.66797 17.3335V14.8335ZM6.66797 8.16602H4.16797C3.67352 8.16602 3.19017 8.01939 2.77904 7.74469C2.36792 7.46999 2.04749 7.07954 1.85827 6.62273C1.66905 6.16591 1.61954 5.66324 1.71601 5.17829C1.81247 4.69334 2.05057 4.24788 2.4002 3.89825C2.74983 3.54862 3.19529 3.31052 3.68024 3.21405C4.1652 3.11759 4.66786 3.1671 5.12468 3.35632C5.58149 3.54554 5.97194 3.86597 6.24664 4.27709C6.52135 4.68821 6.66797 5.17156 6.66797 5.66602V8.16602Z" stroke="white" stroke-width="1.5"/>
<path d="M27.2912 18.5V5.40909H29.6626V11.424H29.8224L34.9297 5.40909H37.8253L32.7628 11.2834L37.87 18.5H35.0192L31.1136 12.8878L29.6626 14.6009V18.5H27.2912Z" fill="white"/>
</svg>
