<svg width="20" height="21" viewBox="0 0 20 21" fill="none" xmlns="http://www.w3.org/2000/svg">
<path fill-rule="evenodd" clip-rule="evenodd" d="M8.125 2.375C6.4674 2.375 4.87769 3.03348 3.70558 4.20558C2.53348 5.37769 1.875 6.9674 1.875 8.625C1.875 10.2826 2.53348 11.8723 3.70558 13.0444C4.87769 14.2165 6.4674 14.875 8.125 14.875C9.7826 14.875 11.3723 14.2165 12.5444 13.0444C13.7165 11.8723 14.375 10.2826 14.375 8.625C14.375 6.9674 13.7165 5.37769 12.5444 4.20558C11.3723 3.03348 9.7826 2.375 8.125 2.375ZM0 8.625C0 6.47012 0.856024 4.40349 2.37976 2.87976C3.90349 1.35602 5.97012 0.5 8.125 0.5C10.2799 0.5 12.3465 1.35602 13.8702 2.87976C15.394 4.40349 16.25 6.47012 16.25 8.625C16.25 10.7799 15.394 12.8465 13.8702 14.3702C12.3465 15.894 10.2799 16.75 8.125 16.75C5.97012 16.75 3.90349 15.894 2.37976 14.3702C0.856024 12.8465 0 10.7799 0 8.625Z" fill="black"/>
<path fill-rule="evenodd" clip-rule="evenodd" d="M13.0867 13.5877C13.2625 13.4121 13.5007 13.3135 13.7492 13.3135C13.9976 13.3135 14.2359 13.4121 14.4117 13.5877L19.4117 18.5877C19.5038 18.6735 19.5777 18.777 19.6289 18.892C19.6801 19.007 19.7077 19.1311 19.7099 19.257C19.7121 19.3829 19.689 19.5079 19.6418 19.6246C19.5947 19.7414 19.5245 19.8474 19.4355 19.9364C19.3464 20.0255 19.2404 20.0957 19.1237 20.1428C19.0069 20.19 18.8819 20.2131 18.756 20.2109C18.6301 20.2087 18.506 20.1811 18.391 20.1299C18.276 20.0786 18.1725 20.0048 18.0867 19.9127L13.0867 14.9127C12.9111 14.7369 12.8125 14.4986 12.8125 14.2502C12.8125 14.0017 12.9111 13.7634 13.0867 13.5877Z" fill="black"/>
</svg>
