<svg width="22" height="22" viewBox="0 0 22 22" fill="none" xmlns="http://www.w3.org/2000/svg">
<g clip-path="url(#clip0_1337_48140)">
<path d="M20.5955 1.24147L5.60089 13.7375M9.13346 17.2858L12.556 20.6958C12.7662 20.9112 13.029 21.068 13.3184 21.1507C13.6078 21.2334 13.9138 21.2391 14.206 21.1672C14.4998 21.0986 14.7711 20.9556 14.9937 20.7519C15.2163 20.5483 15.3829 20.2909 15.4773 20.0043L21.0967 3.15861C21.2152 2.84293 21.2403 2.49985 21.169 2.17031C21.0978 1.84076 20.9332 1.53868 20.695 1.3001C20.4567 1.06153 20.1549 0.896551 19.8254 0.824853C19.496 0.753154 19.1529 0.777766 18.837 0.895751L1.99132 6.51675C1.69492 6.61793 1.43089 6.79638 1.22647 7.03367C1.02205 7.27096 0.884657 7.55849 0.828465 7.86661C0.77073 8.14709 0.783583 8.43753 0.865869 8.71182C0.948156 8.98611 1.0973 9.23565 1.29989 9.43804L5.60089 13.739L5.45946 19.1856L9.13346 17.2858Z" stroke="black" stroke-linecap="round" stroke-linejoin="round"/>
</g>
<defs>
<clipPath id="clip0_1337_48140">
<rect width="22" height="22" fill="white"/>
</clipPath>
</defs>
</svg>
