<svg width="20" height="20" viewBox="0 0 20 20" fill="none" xmlns="http://www.w3.org/2000/svg">
<path d="M18.723 1.12816L5.09154 12.4882M8.30297 15.7139L11.4144 18.8139C11.6055 19.0097 11.8444 19.1523 12.1075 19.2274C12.3705 19.3026 12.6487 19.3078 12.9144 19.2424C13.1815 19.1801 13.4281 19.0501 13.6305 18.865C13.8328 18.6798 13.9842 18.4458 14.0701 18.1853L19.1787 2.87102C19.2863 2.58404 19.3092 2.27215 19.2444 1.97256C19.1796 1.67297 19.03 1.39835 18.8134 1.18147C18.5969 0.964585 18.3224 0.814603 18.0229 0.749422C17.7235 0.684242 17.4115 0.706616 17.1244 0.813875L1.81012 5.92388C1.54066 6.01586 1.30063 6.17808 1.11479 6.3938C0.92896 6.60951 0.804056 6.87091 0.752973 7.15102C0.700486 7.406 0.71217 7.67004 0.786976 7.91939C0.861782 8.16874 0.997366 8.3956 1.18154 8.57959L5.09154 12.4896L4.96297 17.441L8.30297 15.7139Z" stroke="white" stroke-width="1.5" stroke-linecap="round" stroke-linejoin="round"/>
</svg>
