<svg width="22" height="22" viewBox="0 0 22 22" fill="none" xmlns="http://www.w3.org/2000/svg">
<path d="M20.5955 1.24098L5.60089 13.737M9.13346 17.2853L12.556 20.6953C12.7662 20.9107 13.029 21.0675 13.3184 21.1502C13.6078 21.2329 13.9138 21.2386 14.206 21.1667C14.4998 21.0981 14.7711 20.9551 14.9937 20.7515C15.2163 20.5478 15.3829 20.2904 15.4773 20.0038L21.0967 3.15812C21.2152 2.84245 21.2403 2.49936 21.169 2.16982C21.0978 1.84027 20.9332 1.53819 20.695 1.29962C20.4567 1.06104 20.1549 0.896063 19.8254 0.824365C19.496 0.752666 19.1529 0.777278 18.837 0.895263L1.99132 6.51626C1.69492 6.61744 1.43089 6.79589 1.22647 7.03318C1.02205 7.27047 0.884657 7.55801 0.828465 7.86612C0.77073 8.14661 0.783583 8.43704 0.865869 8.71133C0.948156 8.98562 1.0973 9.23517 1.29989 9.43755L5.60089 13.7386L5.45946 19.1851L9.13346 17.2853Z" stroke="black" stroke-linecap="round" stroke-linejoin="round"/>
</svg>
