<svg width="17" height="16" viewBox="0 0 17 16" fill="none" xmlns="http://www.w3.org/2000/svg">
<path d="M16 15.5H1M14.5 15.5V7.25M2.5 15.5V7.25" stroke="black" stroke-linecap="round"/>
<path d="M11.8954 0.5H5.10344C4.20119 0.5 3.75044 0.5 3.38819 0.72425C3.02519 0.94775 2.82344 1.35125 2.42069 2.15825L1.36694 4.82C1.12394 5.435 0.910941 6.1595 1.32044 6.67925C1.51335 6.92452 1.77796 7.10351 2.07739 7.19131C2.37683 7.27911 2.6962 7.27134 2.99101 7.16908C3.28582 7.06682 3.5414 6.87516 3.72216 6.6208C3.90291 6.36644 3.99984 6.06204 3.99944 5.75C3.99944 6.14782 4.15748 6.52936 4.43878 6.81066C4.72009 7.09196 5.10162 7.25 5.49944 7.25C5.89727 7.25 6.2788 7.09196 6.5601 6.81066C6.84141 6.52936 6.99944 6.14782 6.99944 5.75C6.99944 6.14782 7.15748 6.52936 7.43878 6.81066C7.72009 7.09196 8.10162 7.25 8.49944 7.25C8.89727 7.25 9.2788 7.09196 9.5601 6.81066C9.84141 6.52936 9.99944 6.14782 9.99944 5.75C9.99944 6.14782 10.1575 6.52936 10.4388 6.81066C10.7201 7.09196 11.1016 7.25 11.4994 7.25C11.8973 7.25 12.2788 7.09196 12.5601 6.81066C12.8414 6.52936 12.9994 6.14782 12.9994 5.75C12.9994 6.06179 13.0965 6.36585 13.2773 6.61989C13.4581 6.87393 13.7135 7.06533 14.0081 7.16746C14.3027 7.26959 14.6218 7.27738 14.921 7.18974C15.2203 7.10211 15.4847 6.92341 15.6777 6.6785C16.0872 6.15875 15.8742 5.43425 15.6312 4.81925L14.5782 2.15825C14.1754 1.35125 13.9737 0.94775 13.6107 0.72425C13.2484 0.5 12.7977 0.5 11.8954 0.5Z" stroke="black" stroke-linejoin="round"/>
<path d="M6.625 15.125V12.875C6.625 12.1737 6.625 11.8235 6.77575 11.5625C6.87449 11.3915 7.01649 11.2495 7.1875 11.1508C7.4485 11 7.79875 11 8.5 11C9.20125 11 9.5515 11 9.8125 11.1508C9.98351 11.2495 10.1255 11.3915 10.2242 11.5625C10.375 11.8235 10.375 12.1737 10.375 12.875V15.125" stroke="black" stroke-linecap="round"/>
</svg>
