<svg width="22" height="22" viewBox="0 0 22 22" fill="none" xmlns="http://www.w3.org/2000/svg">
<path d="M22 11C22 12.0169 21.8711 12.9909 21.6133 13.9219C21.3555 14.8529 20.9867 15.7301 20.5068 16.5537C20.027 17.3773 19.4541 18.1185 18.7881 18.7773C18.1221 19.4362 17.3773 20.0091 16.5537 20.4961C15.7301 20.9831 14.8529 21.3519 13.9219 21.6025C12.9909 21.8532 12.0169 21.9857 11 22C9.98307 22 9.00911 21.8711 8.07812 21.6133C7.14714 21.3555 6.26986 20.9867 5.44629 20.5068C4.62272 20.027 3.88151 19.4541 3.22266 18.7881C2.5638 18.1221 1.99089 17.3773 1.50391 16.5537C1.01693 15.7301 0.648112 14.8529 0.397461 13.9219C0.14681 12.9909 0.0143229 12.0169 0 11C0 9.99023 0.128906 9.01628 0.386719 8.07812C0.644531 7.13997 1.01335 6.2627 1.49316 5.44629C1.97298 4.62988 2.5459 3.88867 3.21191 3.22266C3.87793 2.55664 4.62272 1.98372 5.44629 1.50391C6.26986 1.02409 7.14714 0.655273 8.07812 0.397461C9.00911 0.139648 9.98307 0.00716146 11 0C12.0098 0 12.9837 0.128906 13.9219 0.386719C14.86 0.644531 15.7373 1.01335 16.5537 1.49316C17.3701 1.97298 18.1113 2.5459 18.7773 3.21191C19.4434 3.87793 20.0163 4.62272 20.4961 5.44629C20.9759 6.26986 21.3447 7.14714 21.6025 8.07812C21.8604 9.00911 21.9928 9.98307 22 11ZM11 20.625C11.8809 20.625 12.7295 20.5104 13.5459 20.2812C14.3623 20.0521 15.1286 19.7298 15.8447 19.3145C16.5609 18.8991 17.2126 18.3942 17.7998 17.7998C18.387 17.2054 18.8883 16.5573 19.3037 15.8555C19.7191 15.1536 20.0449 14.3874 20.2812 13.5566C20.5176 12.7259 20.6322 11.8737 20.625 11C20.625 10.1191 20.5104 9.27051 20.2812 8.4541C20.0521 7.6377 19.7298 6.87142 19.3145 6.15527C18.8991 5.43913 18.3942 4.78744 17.7998 4.2002C17.2054 3.61296 16.5573 3.11165 15.8555 2.69629C15.1536 2.28092 14.3874 1.95508 13.5566 1.71875C12.7259 1.48242 11.8737 1.36784 11 1.375C10.112 1.375 9.25977 1.48958 8.44336 1.71875C7.62695 1.94792 6.86426 2.27018 6.15527 2.68555C5.44629 3.10091 4.7946 3.60579 4.2002 4.2002C3.60579 4.7946 3.10449 5.44271 2.69629 6.14453C2.28809 6.84635 1.96224 7.61263 1.71875 8.44336C1.47526 9.27409 1.36068 10.1263 1.375 11C1.375 11.888 1.48958 12.7402 1.71875 13.5566C1.94792 14.373 2.27018 15.1357 2.68555 15.8447C3.10091 16.5537 3.60579 17.2054 4.2002 17.7998C4.7946 18.3942 5.44271 18.8955 6.14453 19.3037C6.84635 19.7119 7.61263 20.0378 8.44336 20.2812C9.27409 20.5247 10.1263 20.6393 11 20.625ZM11 15.125C11.3939 15.125 11.777 15.0713 12.1494 14.9639C12.5218 14.8564 12.8727 14.6953 13.2021 14.4805C13.5316 14.2656 13.8216 14.0186 14.0723 13.7393C14.3229 13.46 14.5413 13.1341 14.7275 12.7617L15.9736 13.3633C15.7445 13.8431 15.458 14.2764 15.1143 14.6631C14.7705 15.0498 14.3802 15.3792 13.9434 15.6514C13.5065 15.9235 13.041 16.1312 12.5469 16.2744C12.0527 16.4176 11.5371 16.4928 11 16.5C10.2122 16.5 9.46029 16.3389 8.74414 16.0166C8.028 15.6943 7.40495 15.236 6.875 14.6416V16.5H5.5V12.375H9.625V13.75H7.92773C8.31445 14.1797 8.77637 14.5163 9.31348 14.7598C9.85059 15.0033 10.4128 15.125 11 15.125ZM15.125 7.3584V5.5H16.5V9.625H12.375V8.25H14.0723C13.6855 7.82031 13.2236 7.48372 12.6865 7.24023C12.1494 6.99674 11.5872 6.875 11 6.875C10.6061 6.875 10.223 6.92871 9.85059 7.03613C9.47819 7.14355 9.12728 7.30469 8.79785 7.51953C8.46842 7.73438 8.17839 7.98145 7.92773 8.26074C7.67708 8.54004 7.45866 8.86589 7.27246 9.23828L6.02637 8.63672C6.25553 8.1569 6.54199 7.72363 6.88574 7.33691C7.22949 6.9502 7.61979 6.62077 8.05664 6.34863C8.49349 6.0765 8.95898 5.86881 9.45312 5.72559C9.94727 5.58236 10.4629 5.50716 11 5.5C11.7878 5.5 12.5397 5.66113 13.2559 5.9834C13.972 6.30566 14.5951 6.764 15.125 7.3584Z" fill="black"/>
</svg>
