<svg width="13" height="16" viewBox="0 0 13 16" fill="none" xmlns="http://www.w3.org/2000/svg">
<path d="M2.59154 0.700364L3.65868 0.378935C4.14446 0.232379 4.66697 0.267613 5.12868 0.478059C5.59038 0.688506 5.95972 1.05978 6.16775 1.52258L6.83183 2.99986C7.01077 3.39783 7.06061 3.84184 6.97437 4.26958C6.88813 4.69732 6.67014 5.08732 6.35097 5.38486L5.19061 6.46679C5.17673 6.48058 5.16502 6.49641 5.1559 6.51372C5.0344 6.76186 5.2189 7.42465 5.79683 8.42622C6.44868 9.55508 6.95204 10.0012 7.1854 9.93244L8.70833 9.46636C9.1254 9.339 9.57187 9.34534 9.98517 9.48449C10.3985 9.62363 10.7578 9.88862 11.013 10.2423L11.9567 11.5492C12.253 11.9596 12.3902 12.4635 12.3429 12.9675C12.2956 13.4714 12.067 13.941 11.6995 14.2891L10.8876 15.0573C10.6053 15.3247 10.2624 15.5199 9.88831 15.6261C9.5142 15.7324 9.11994 15.7465 8.73918 15.6674C6.47825 15.1968 4.45261 13.3762 2.6449 10.2455C0.83654 7.11286 0.272754 4.44501 0.999183 2.25094C1.12078 1.88361 1.32901 1.55095 1.60628 1.28107C1.88355 1.01118 2.22107 0.812006 2.59154 0.700364ZM2.87118 1.62351C2.64889 1.69046 2.44598 1.80994 2.27959 1.97185C2.11321 2.13376 1.98824 2.33333 1.91525 2.55372C1.28911 4.44436 1.79633 6.84608 3.48061 9.76336C5.16361 12.6787 6.98804 14.318 8.93654 14.723C9.16501 14.7704 9.40155 14.7619 9.626 14.6981C9.85044 14.6342 10.0561 14.5171 10.2255 14.3566L11.0368 13.589C11.2347 13.4016 11.3579 13.1488 11.3834 12.8774C11.409 12.6061 11.3351 12.3347 11.1756 12.1136L10.2319 10.8061C10.0945 10.6157 9.90107 10.473 9.67858 10.3981C9.45609 10.3232 9.21573 10.3197 8.99118 10.3882L7.4644 10.8556C6.61968 11.1069 5.82511 10.403 4.9624 8.90772C4.23147 7.64258 3.97818 6.72844 4.29061 6.09008C4.35147 5.96579 4.43247 5.85629 4.53361 5.76158L5.69397 4.67965C5.86589 4.51944 5.98333 4.30941 6.0298 4.07905C6.07626 3.84868 6.04942 3.60955 5.95304 3.39522L5.28833 1.91858C5.17631 1.66932 4.9774 1.46935 4.72873 1.35602C4.48007 1.24269 4.19865 1.22374 3.93704 1.30272L2.87118 1.62351Z" fill="#919191"/>
</svg>
