<svg width="22" height="31" viewBox="0 0 22 31" fill="none" xmlns="http://www.w3.org/2000/svg">
<path d="M4.33504 1.55595L5.90566 1.05428C7.37566 0.584697 8.94775 1.34449 9.57775 2.82907L10.8319 5.78657C11.3788 7.07428 11.0755 8.58949 10.0823 9.53157L7.32171 12.1537C7.49184 13.7228 8.01879 15.2672 8.90254 16.7868C9.74293 18.2566 10.869 19.5433 12.2144 20.5712L15.5336 19.4628C16.7907 19.0443 18.16 19.527 18.9315 20.6601L20.7282 23.2997C21.6265 24.618 21.4646 26.4351 20.3519 27.5522L19.159 28.7495C17.9719 29.9409 16.2773 30.3741 14.7082 29.8841C11.0059 28.7291 7.60171 25.3005 4.49546 19.5984C1.38532 13.8866 0.287679 9.04109 1.20254 5.06178C1.58754 3.38761 2.78046 2.05324 4.33796 1.55595" fill="white"/>
</svg>
