<svg width="17" height="16" viewBox="0 0 17 16" fill="none" xmlns="http://www.w3.org/2000/svg">
<path d="M10.375 8H16M10.375 11.75H16M10.375 15.5H16M1 1.4375C1 1.18886 1.09877 0.950403 1.27459 0.774588C1.4504 0.598772 1.68886 0.5 1.9375 0.5H15.0625C15.3111 0.5 15.5496 0.598772 15.7254 0.774588C15.9012 0.950403 16 1.18886 16 1.4375V3.3125C16 3.56114 15.9012 3.7996 15.7254 3.97541C15.5496 4.15123 15.3111 4.25 15.0625 4.25H1.9375C1.68886 4.25 1.4504 4.15123 1.27459 3.97541C1.09877 3.7996 1 3.56114 1 3.3125V1.4375ZM1 8.9375C1 8.68886 1.09877 8.4504 1.27459 8.27459C1.4504 8.09877 1.68886 8 1.9375 8H5.6875C5.93614 8 6.1746 8.09877 6.35041 8.27459C6.52623 8.4504 6.625 8.68886 6.625 8.9375V14.5625C6.625 14.8111 6.52623 15.0496 6.35041 15.2254C6.1746 15.4012 5.93614 15.5 5.6875 15.5H1.9375C1.68886 15.5 1.4504 15.4012 1.27459 15.2254C1.09877 15.0496 1 14.8111 1 14.5625V8.9375Z" stroke="black" stroke-linecap="round" stroke-linejoin="round"/>
</svg>
