<svg width="24" height="24" viewBox="0 0 24 24" fill="none" xmlns="http://www.w3.org/2000/svg">
<path d="M2.5 7.5V13.5C2.5 17.271 2.5 19.157 3.672 20.328C4.844 21.499 6.729 21.5 10.5 21.5H14M2.5 7.5L3.87 5.315C4.731 3.939 5.162 3.251 5.84 2.875C6.518 2.5 7.33 2.5 8.953 2.5H15.103C16.762 2.5 17.592 2.5 18.279 2.889C18.968 3.279 19.394 3.99 20.248 5.413L21.5 7.5M2.5 7.5H21.5M21.5 11V7.5M12 7.5V2.5M10 10.5H14M18 13C16.067 13 14.5 14.538 14.5 16.434C14.5 17.519 14.938 18.362 15.813 19.115C16.429 19.646 17.551 20.785 18 21.5C18.471 20.8 19.57 19.646 20.188 19.115C21.063 18.362 21.5 17.519 21.5 16.435C21.5 14.537 19.933 13 18 13Z" stroke="black" stroke-width="1.25" stroke-linecap="round" stroke-linejoin="round"/>
<path d="M18 16.5H18.009" stroke="black" stroke-width="1.25" stroke-linecap="round" stroke-linejoin="round"/>
</svg>
