<svg width="26" height="26" viewBox="0 0 26 26" fill="none" xmlns="http://www.w3.org/2000/svg">
<path d="M21.5938 5.1875H16.9062V4.01562C16.9062 3.49762 16.7005 3.00084 16.3342 2.63456C15.9679 2.26828 15.4711 2.0625 14.9531 2.0625H11.0469C10.5289 2.0625 10.0321 2.26828 9.66581 2.63456C9.29953 3.00084 9.09375 3.49762 9.09375 4.01562V5.1875H4.40625C4.19905 5.1875 4.00034 5.26981 3.85382 5.41632C3.70731 5.56284 3.625 5.76155 3.625 5.96875C3.625 6.17595 3.70731 6.37466 3.85382 6.52118C4.00034 6.66769 4.19905 6.75 4.40625 6.75H5.23633L6.16406 21.6387C6.2334 22.9497 7.23828 23.9375 8.50781 23.9375H17.4922C18.7681 23.9375 19.7529 22.9717 19.8359 21.6426L20.7637 6.75H21.5938C21.801 6.75 21.9997 6.66769 22.1462 6.52118C22.2927 6.37466 22.375 6.17595 22.375 5.96875C22.375 5.76155 22.2927 5.56284 22.1462 5.41632C21.9997 5.26981 21.801 5.1875 21.5938 5.1875ZM9.90283 20.8125H9.875C9.67253 20.8126 9.47792 20.7341 9.33218 20.5936C9.18645 20.4531 9.10096 20.2614 9.09375 20.0591L8.70312 9.12158C8.69574 8.91438 8.77097 8.71274 8.91227 8.561C9.05356 8.40927 9.24934 8.31988 9.45654 8.3125C9.66374 8.30512 9.86539 8.38035 10.0171 8.52164C10.1689 8.66294 10.2582 8.85872 10.2656 9.06592L10.6562 20.0034C10.66 20.106 10.6434 20.2084 10.6076 20.3046C10.5717 20.4008 10.5172 20.489 10.4473 20.5641C10.3773 20.6393 10.2932 20.6999 10.1998 20.7425C10.1063 20.7851 10.0054 20.8089 9.90283 20.8125ZM13.7812 20.0312C13.7812 20.2385 13.6989 20.4372 13.5524 20.5837C13.4059 20.7302 13.2072 20.8125 13 20.8125C12.7928 20.8125 12.5941 20.7302 12.4476 20.5837C12.3011 20.4372 12.2188 20.2385 12.2188 20.0312V9.09375C12.2188 8.88655 12.3011 8.68784 12.4476 8.54132C12.5941 8.39481 12.7928 8.3125 13 8.3125C13.2072 8.3125 13.4059 8.39481 13.5524 8.54132C13.6989 8.68784 13.7812 8.88655 13.7812 9.09375V20.0312ZM15.3438 5.1875H10.6562V4.01562C10.6557 3.96416 10.6654 3.9131 10.6848 3.86545C10.7042 3.81779 10.733 3.77449 10.7693 3.7381C10.8057 3.70171 10.849 3.67296 10.8967 3.65354C10.9444 3.63411 10.9954 3.62441 11.0469 3.625H14.9531C15.0046 3.62441 15.0556 3.63411 15.1033 3.65354C15.151 3.67296 15.1943 3.70171 15.2307 3.7381C15.267 3.77449 15.2958 3.81779 15.3152 3.86545C15.3346 3.9131 15.3443 3.96416 15.3438 4.01562V5.1875ZM16.9062 20.0591C16.899 20.2614 16.8136 20.4531 16.6678 20.5936C16.5221 20.7341 16.3275 20.8126 16.125 20.8125H16.0967C15.9941 20.8088 15.8933 20.785 15.7999 20.7424C15.7065 20.6997 15.6225 20.6391 15.5526 20.564C15.4826 20.4888 15.4282 20.4007 15.3924 20.3045C15.3566 20.2083 15.34 20.106 15.3438 20.0034L15.7344 9.06592C15.738 8.96332 15.7619 8.86245 15.8045 8.76906C15.8471 8.67568 15.9077 8.5916 15.9829 8.52164C16.058 8.45168 16.1462 8.3972 16.2424 8.36132C16.3386 8.32543 16.4409 8.30885 16.5435 8.3125C16.6461 8.31615 16.7469 8.33998 16.8403 8.38262C16.9337 8.42526 17.0178 8.48587 17.0877 8.561C17.1577 8.63613 17.2122 8.72431 17.2481 8.82049C17.2839 8.91668 17.3005 9.01899 17.2969 9.12158L16.9062 20.0591Z" fill="#8F8F8F"/>
</svg>
