<svg width="16" height="20" viewBox="0 0 16 20" fill="none" xmlns="http://www.w3.org/2000/svg">
<path d="M2.15676 5.23725L2.69248 17.4665C2.73462 18.513 3.36248 19.0823 4.39176 19.0823H11.6157C12.6453 19.0823 13.2728 18.513 13.315 17.4665L13.8507 5.23725H14.8132C15.1564 5.23725 15.4325 4.95261 15.4325 4.6094C15.4325 4.26654 15.1564 3.97333 14.8132 3.97333H11.3728V2.77618C11.3728 1.62975 10.611 0.917969 9.53141 0.917969H6.45105C5.37141 0.917969 4.61784 1.62975 4.61784 2.77618V3.97333H1.19426C0.859621 3.97333 0.566406 4.26618 0.566406 4.6094C0.566406 4.95261 0.859263 5.23725 1.19426 5.23725H2.15676ZM5.75641 2.77654C5.75641 2.2994 6.10783 1.9644 6.60998 1.9644H9.38069C9.89141 1.9644 10.2428 2.2994 10.2428 2.77618V3.97333H5.75676L5.75641 2.77654ZM10.72 17.3744C10.3935 17.3744 10.1675 17.0901 10.1761 16.7469L10.5189 7.0369C10.536 6.70225 10.7785 6.42618 11.08 6.42618C11.3896 6.42618 11.6407 6.69404 11.6325 7.0369L11.2557 16.7551C11.2475 17.1151 11.0296 17.3744 10.72 17.3744ZM5.28783 17.3744C4.97783 17.3744 4.76033 17.1151 4.75212 16.7551L4.37533 7.03725C4.36676 6.68547 4.61819 6.42583 4.92748 6.42583C5.22891 6.42583 5.47998 6.70225 5.48819 7.0369L5.83176 16.7469C5.83998 17.0898 5.61426 17.3744 5.28783 17.3744ZM8.57676 16.7469C8.57676 17.0898 8.30891 17.3744 8.00748 17.3744C7.70641 17.3744 7.43855 17.0901 7.43855 16.7469V7.0369C7.43855 6.70225 7.70641 6.42618 8.00748 6.42618C8.30891 6.42618 8.58533 6.70225 8.58533 7.0369L8.57676 16.7469Z" fill="#C20205"/>
</svg>
