<svg width="17" height="12" viewBox="0 0 17 12" fill="none" xmlns="http://www.w3.org/2000/svg">
<path d="M0 0.5V1.5H10.0938V9H6.82337C6.58644 8.1405 5.76512 7.5 4.78125 7.5C3.79737 7.5 2.97606 8.1405 2.73913 9H2.125V6.5H1.0625V10H2.73913C2.97606 10.8595 3.79737 11.5 4.78125 11.5C5.76512 11.5 6.58644 10.8595 6.82337 10H11.2391C11.4761 10.8595 12.2974 11.5 13.2812 11.5C14.2651 11.5 15.0864 10.8595 15.3234 10H17V5.922L16.9665 5.8435L15.904 2.8435L15.7887 2.5H11.1562V0.5H0ZM0.53125 2.5V3.5H5.3125V2.5H0.53125ZM11.1562 3.5H15.0243L15.9375 6.0625V9H15.3234C15.0864 8.1405 14.2651 7.5 13.2812 7.5C12.2974 7.5 11.4761 8.1405 11.2391 9H11.1562V3.5ZM1.0625 4.5V5.5H4.25V4.5H1.0625ZM4.78125 8.5C5.37466 8.5 5.84375 8.9415 5.84375 9.5C5.84375 10.0585 5.37466 10.5 4.78125 10.5C4.18784 10.5 3.71875 10.0585 3.71875 9.5C3.71875 8.9415 4.18784 8.5 4.78125 8.5ZM13.2812 8.5C13.8747 8.5 14.3438 8.9415 14.3438 9.5C14.3438 10.0585 13.8747 10.5 13.2812 10.5C12.6878 10.5 12.2188 10.0585 12.2188 9.5C12.2188 8.9415 12.6878 8.5 13.2812 8.5Z" fill="black"/>
</svg>
