<svg width="16" height="18" viewBox="0 0 16 18" fill="none" xmlns="http://www.w3.org/2000/svg">
<path d="M10.7728 1.66228C10.2245 1.10734 9.52584 0.729406 8.76516 0.576273C8.00449 0.42314 7.21601 0.501692 6.49948 0.801993C5.78294 1.10229 5.17054 1.61085 4.73974 2.26333C4.30894 2.91581 4.0791 3.68289 4.0793 4.46755V6.1673M8 11.1523V12.5121M1.12769 13.9032C1.24063 14.8528 1.6841 15.7306 2.37864 16.3795C3.07318 17.0283 3.97341 17.4057 4.91801 17.4441C6.97201 17.5186 9.02799 17.5186 11.082 17.4441C12.0266 17.4057 12.9268 17.0283 13.6214 16.3795C14.3159 15.7306 14.7594 14.8528 14.8723 13.9032C14.9476 13.2233 15 12.5325 15 11.8322C15 11.1319 14.9462 10.4412 14.871 9.76125C14.7581 8.8119 14.3148 7.93423 13.6205 7.28541C12.9263 6.6366 12.0264 6.25903 11.082 6.22033C10.0551 6.18358 9.02757 6.16544 8 6.16594C6.91129 6.16594 5.90054 6.18497 4.91667 6.22033C3.9723 6.25903 3.0724 6.6366 2.37813 7.28541C1.68386 7.93423 1.24059 8.8119 1.12769 9.76125C1.04794 10.4487 1.00532 11.1401 1 11.8322C1 12.5325 1.05242 13.2233 1.12769 13.9032Z" stroke="black" stroke-linecap="round" stroke-linejoin="round"/>
</svg>
