<svg width="15" height="16" viewBox="0 0 15 16" fill="none" xmlns="http://www.w3.org/2000/svg">
<g clip-path="url(#clip0_1075_24256)">
<path d="M11.25 15.5V8M14.375 14.25L8.125 9.875M14.375 9.875L8.125 14.25M5 7.375C5.8288 7.375 6.62366 7.04576 7.20971 6.45971C7.79576 5.87366 8.125 5.0788 8.125 4.25C8.125 3.4212 7.79576 2.62634 7.20971 2.04029C6.62366 1.45424 5.8288 1.125 5 1.125C4.1712 1.125 3.37634 1.45424 2.79029 2.04029C2.20424 2.62634 1.875 3.4212 1.875 4.25C1.875 5.0788 2.20424 5.87366 2.79029 6.45971C3.37634 7.04576 4.1712 7.375 5 7.375ZM5 7.375C6.25813 7.375 7.3575 7.85 8.13937 8.63937M5 7.375C2.5 7.375 0.625 9.25 0.625 11.75V14.875H6.875" stroke="#00809D"/>
</g>
<defs>
<clipPath id="clip0_1075_24256">
<rect width="15" height="15" fill="white" transform="translate(0 0.5)"/>
</clipPath>
</defs>
</svg>
