<svg width="22" height="16" viewBox="0 0 22 16" fill="none" xmlns="http://www.w3.org/2000/svg">
<path d="M14.6439 10.1433C14.4734 10.1433 14.3099 10.211 14.1893 10.3316C14.0688 10.4521 14.001 10.6156 14.001 10.7861C14.001 10.9566 14.0688 11.1201 14.1893 11.2407C14.3099 11.3613 14.4734 11.429 14.6439 11.429H17.6439C17.8144 11.429 17.9779 11.3613 18.0985 11.2407C18.219 11.1201 18.2868 10.9566 18.2868 10.7861C18.2868 10.6156 18.219 10.4521 18.0985 10.3316C17.9779 10.211 17.8144 10.1433 17.6439 10.1433H14.6439ZM0.71875 3.50042C0.71875 2.64794 1.0574 1.83037 1.66019 1.22758C2.26299 0.62478 3.08055 0.286133 3.93304 0.286133H18.0725C18.9249 0.286133 19.7425 0.62478 20.3453 1.22758C20.9481 1.83037 21.2868 2.64794 21.2868 3.50042V12.5004C21.2868 13.3529 20.9481 14.1705 20.3453 14.7733C19.7425 15.3761 18.9249 15.7147 18.0725 15.7147H3.93389C3.08141 15.7147 2.26385 15.3761 1.66105 14.7733C1.05825 14.1705 0.719607 13.3529 0.719607 12.5004L0.71875 3.50042ZM3.93304 1.57185C3.42155 1.57185 2.93101 1.77504 2.56933 2.13671C2.20765 2.49839 2.00446 2.98893 2.00446 3.50042V4.14328H20.001V3.50042C20.001 2.98893 19.7978 2.49839 19.4362 2.13671C19.0745 1.77504 18.584 1.57185 18.0725 1.57185H3.93304ZM2.00446 12.5004C2.00446 13.0119 2.20765 13.5024 2.56933 13.8641C2.93101 14.2258 3.42155 14.429 3.93304 14.429H18.0725C18.584 14.429 19.0745 14.2258 19.4362 13.8641C19.7978 13.5024 20.001 13.0119 20.001 12.5004V5.42899H2.00532L2.00446 12.5004Z" fill="black"/>
</svg>
