<svg width="16" height="16" viewBox="0 0 16 16" fill="none" xmlns="http://www.w3.org/2000/svg">
<path fill-rule="evenodd" clip-rule="evenodd" d="M8 0C7.54977 0 7.13526 0.111628 6.68205 0.299163C6.24372 0.480744 5.7347 0.747907 5.1014 1.08056L3.56242 1.888C2.78474 2.29581 2.16335 2.62251 1.68186 2.94326C1.18474 3.27591 0.800744 3.62567 0.521674 4.09972C0.243349 4.57228 0.118326 5.08428 0.0580465 5.69377C-3.88123e-08 6.2854 0 7.01247 0 7.92781V8.07219C0 8.98753 -3.88123e-08 9.7146 0.0580465 10.3062C0.118326 10.9165 0.244093 11.4277 0.521674 11.9003C0.800744 12.3743 1.184 12.7241 1.6826 13.0567C2.1626 13.3775 2.78474 13.7042 3.56242 14.112L5.1014 14.9194C5.7347 15.2521 6.24372 15.5193 6.68205 15.7008C7.136 15.8884 7.54977 16 8 16C8.45023 16 8.86474 15.8884 9.31795 15.7008C9.75628 15.5193 10.2653 15.2521 10.8986 14.9194L12.4376 14.1127C13.2153 13.7042 13.8367 13.3775 14.3174 13.0567C14.816 12.7241 15.1993 12.3743 15.4783 11.9003C15.7567 11.4277 15.8817 10.9157 15.942 10.3062C16 9.7146 16 8.98753 16 8.07293V7.92707C16 7.01247 16 6.2854 15.942 5.69377C15.8817 5.08353 15.7559 4.57228 15.4783 4.09972C15.1993 3.62567 14.816 3.27591 14.3174 2.94326C13.8374 2.62251 13.2153 2.29581 12.4376 1.888L10.8986 1.08056C10.2653 0.747907 9.75628 0.480744 9.31795 0.299163C8.864 0.111628 8.45023 0 8 0ZM5.59628 2.08074C6.25861 1.73321 6.72298 1.4906 7.10847 1.33135C7.48353 1.17581 7.74772 1.11628 8 1.11628C8.25302 1.11628 8.51647 1.17581 8.89153 1.33135C9.27702 1.4906 9.74065 1.73321 10.403 2.08074L11.8913 2.86214C12.7025 3.28707 13.2718 3.58698 13.6982 3.87126C13.9081 4.01191 14.0726 4.14214 14.2065 4.27312L11.7276 5.51219L5.40205 2.1827L5.59628 2.08074ZM4.23814 2.79367L4.10865 2.86214C3.29749 3.28707 2.72819 3.58698 2.30251 3.87126C2.12102 3.98919 1.95086 4.12372 1.79423 4.27312L8 7.37637L10.4982 6.12614L4.39144 2.91274C4.33417 2.88171 4.28238 2.84148 4.23814 2.79367ZM1.25619 5.25172C1.21898 5.41098 1.18995 5.59181 1.16912 5.80242C1.11702 6.33377 1.11628 7.00577 1.11628 7.95609V8.04316C1.11628 8.99423 1.11628 9.66623 1.16912 10.1968C1.22047 10.7155 1.31795 11.0512 1.48391 11.334C1.64912 11.6145 1.888 11.8519 2.30251 12.1287C2.72819 12.413 3.29749 12.7129 4.10865 13.1379L5.59702 13.9193C6.25935 14.2668 6.72298 14.5094 7.10847 14.6687C7.22952 14.7188 7.34065 14.7597 7.44186 14.7914V8.34456L1.25619 5.25172ZM8.55814 14.7907C8.65935 14.7594 8.77048 14.7188 8.89153 14.6687C9.27702 14.5094 9.74065 14.2668 10.403 13.9193L11.8913 13.1379C12.7025 12.7122 13.2718 12.413 13.6982 12.1287C14.112 11.8519 14.3509 11.6145 14.5168 11.334C14.6828 11.0512 14.7795 10.7163 14.8309 10.1968C14.883 9.66623 14.8837 8.99423 14.8837 8.04391V7.95684C14.8837 7.00577 14.8837 6.33377 14.8309 5.80316C14.8134 5.61796 14.7843 5.43404 14.7438 5.25246L12.2791 6.48409V8.74419C12.2791 8.89221 12.2203 9.03418 12.1156 9.13885C12.0109 9.24352 11.869 9.30233 11.7209 9.30233C11.5729 9.30233 11.4309 9.24352 11.3263 9.13885C11.2216 9.03418 11.1628 8.89221 11.1628 8.74419V7.04298L8.55814 8.3453V14.7907Z" fill="black"/>
</svg>
