<svg width="14" height="12" viewBox="0 0 14 12" fill="none" xmlns="http://www.w3.org/2000/svg">
<path d="M1.97878 11.9985H12.0188C13.0454 11.9985 13.6854 10.8852 13.1721 9.99849L8.15211 1.32516C7.63878 0.43849 6.35878 0.43849 5.84545 1.32516L0.825445 9.99849C0.312112 10.8852 0.952112 11.9985 1.97878 11.9985ZM6.99878 7.33182C6.63211 7.33182 6.33211 7.03182 6.33211 6.66516V5.33182C6.33211 4.96516 6.63211 4.66516 6.99878 4.66516C7.36545 4.66516 7.66545 4.96516 7.66545 5.33182V6.66516C7.66545 7.03182 7.36545 7.33182 6.99878 7.33182ZM7.66545 9.99849H6.33211V8.66516H7.66545V9.99849Z" fill="#FF9E02"/>
</svg>
